<?xml version="1.0" encoding="UTF-8" standalone="no"?>
<!-- Created with Inkscape (http://www.inkscape.org/) -->

<svg
   xmlns:dc="http://purl.org/dc/elements/1.1/"
   xmlns:cc="http://creativecommons.org/ns#"
   xmlns:rdf="http://www.w3.org/1999/02/22-rdf-syntax-ns#"
   xmlns:svg="http://www.w3.org/2000/svg"
   xmlns="http://www.w3.org/2000/svg"
   version="1.0"
   width="100%"
   height="100%"
   viewBox="0 0 220.98518 223.49544"
   id="svg2221">
  <title
     id="title3414">Modified Alarm Clock</title>
  <defs
     id="defs2223">
    <filter
       x="-0.044406999"
       y="-0.56152999"
       width="1.0888"
       height="2.1231"
       color-interpolation-filters="sRGB"
       id="filter9326">
      <feGaussianBlur
         id="feGaussianBlur9328"
         stdDeviation="23.332558" />
    </filter>
  </defs>
  <path
     d="m -1150.4,-1103.9 h 811.51 c 66.31,0 119.69,18.6 119.69,41.6 0,23 -53.38,41.5 -119.69,41.5 h -811.51 c -66.3,0 -119.7,-18.5 -119.7,-41.5 0,-23 53.4,-41.6 119.7,-41.6 z"
     transform="matrix(0.19003,0,0,-0.19003,251.99843,3.08)"
     id="rect7318"
     style="fill:#d38d5f;filter:url(#filter9326)" />
  <path
     d="m 44.57843,0 h 133.59 c 20.75,0 37.45,16.71 37.45,37.45 v 133.59 c 0,20.75 -16.7,37.45 -37.45,37.45 h -133.59 c -20.74,0 -37.44,-16.7 -37.44,-37.45 V 37.45 c 0,-20.74 16.7,-37.45 37.44,-37.45 z"
     id="rect2241"
     style="fill:#784421" />
  <path
     d="m 48.40843,5.98 h 125.94 c 19.56,0 35.3,15.74 35.3,35.3 v 125.94 c 0,19.55 -15.74,35.3 -35.3,35.3 h -125.94 c -19.56,0 -35.3,-15.75 -35.3,-35.3 V 41.28 c 0,-19.56 15.74,-35.3 35.3,-35.3 z"
     id="rect2239"
     style="fill:#d38d5f" />
  <path
     d="m 52.59843,12.52 h 117.55 c 18.26,0 32.96,14.7 32.96,32.95 v 117.55 c 0,18.26 -14.7,32.95 -32.96,32.95 h -117.55 c -18.25,0 -32.95,-14.69 -32.95,-32.95 V 45.47 c 0,-18.25 14.7,-32.95 32.95,-32.95 z"
     id="rect4183"
     style="fill:#ffffff" />
  <path
     d="m 31.187405,44.125746 c 0,0.431368 -0.348895,0.779123 -0.778933,0.779123 -0.430038,0 -0.778933,-0.347755 -0.778933,-0.779123 0,-0.429468 0.348895,-0.777223 0.778933,-0.777223 0.430038,0 0.778933,0.347755 0.778933,0.777223 z"
     id="path5158" />
  <path
     d="m 36.617405,34.565746 c 0,0.431368 -0.348895,0.779123 -0.778933,0.779123 -0.430038,0 -0.778933,-0.347755 -0.778933,-0.779123 0,-0.429468 0.348895,-0.777223 0.778933,-0.777223 0.430038,0 0.778933,0.347755 0.778933,0.777223 z"
     id="path6137" />
  <path
     d="m 44.217405,26.965746 c 0,0.431368 -0.348895,0.779123 -0.778933,0.779123 -0.430038,0 -0.778933,-0.347755 -0.778933,-0.779123 0,-0.429468 0.348895,-0.777223 0.778933,-0.777223 0.430038,0 0.778933,0.347755 0.778933,0.777223 z"
     id="path6139" />
  <path
     d="m 53.757405,21.905746 c 0,0.431368 -0.348895,0.779123 -0.778933,0.779123 -0.430038,0 -0.778933,-0.347755 -0.778933,-0.779123 0,-0.429468 0.348895,-0.777223 0.778933,-0.777223 0.430038,0 0.778933,0.347755 0.778933,0.777223 z"
     id="path6141" />
  <path
     d="m 76.537405,19.755746 c 0,0.431368 -0.348895,0.779123 -0.778933,0.779123 -0.430038,0 -0.778933,-0.347755 -0.778933,-0.779123 0,-0.429468 0.348895,-0.777223 0.778933,-0.777223 0.430038,0 0.778933,0.347755 0.778933,0.777223 z"
     id="path6143" />
  <path
     d="m 86.467405,19.755746 c 0,0.431368 -0.348895,0.779123 -0.778933,0.779123 -0.430038,0 -0.778933,-0.347755 -0.778933,-0.779123 0,-0.429468 0.348895,-0.777223 0.778933,-0.777223 0.430038,0 0.778933,0.347755 0.778933,0.777223 z"
     id="path6145" />
  <path
     d="m 95.627405,19.755746 c 0,0.431368 -0.348895,0.779123 -0.778933,0.779123 -0.430038,0 -0.778933,-0.347755 -0.778933,-0.779123 0,-0.429468 0.348895,-0.777223 0.778933,-0.777223 0.430038,0 0.778933,0.347755 0.778933,0.777223 z"
     id="path6147" />
  <path
     d="m 104.9674,19.755746 c 0,0.431368 -0.34889,0.779123 -0.77893,0.779123 -0.43004,0 -0.77893,-0.347755 -0.77893,-0.779123 0,-0.429468 0.34889,-0.777223 0.77893,-0.777223 0.43004,0 0.77893,0.347755 0.77893,0.777223 z"
     id="path6149" />
  <path
     d="m 121.5274,19.755746 c 0,0.431368 -0.34889,0.779123 -0.77893,0.779123 -0.43004,0 -0.77893,-0.347755 -0.77893,-0.779123 0,-0.429468 0.34889,-0.777223 0.77893,-0.777223 0.43004,0 0.77893,0.347755 0.77893,0.777223 z"
     id="path6151" />
  <path
     d="m 131.4574,19.755746 c 0,0.431368 -0.34889,0.779123 -0.77893,0.779123 -0.43004,0 -0.77893,-0.347755 -0.77893,-0.779123 0,-0.429468 0.34889,-0.777223 0.77893,-0.777223 0.43004,0 0.77893,0.347755 0.77893,0.777223 z"
     id="path6153" />
  <path
     d="m 140.6074,19.755746 c 0,0.431368 -0.34889,0.779123 -0.77893,0.779123 -0.43004,0 -0.77893,-0.347755 -0.77893,-0.779123 0,-0.429468 0.34889,-0.777223 0.77893,-0.777223 0.43004,0 0.77893,0.347755 0.77893,0.777223 z"
     id="path6155" />
  <path
     d="m 149.9574,19.755746 c 0,0.431368 -0.34889,0.779123 -0.77893,0.779123 -0.43004,0 -0.77893,-0.347755 -0.77893,-0.779123 0,-0.429468 0.34889,-0.777223 0.77893,-0.777223 0.43004,0 0.77893,0.347755 0.77893,0.777223 z"
     id="path6157" />
  <path
     d="m 192.37946,43.515746 c 0,0.431368 0.34889,0.779123 0.77893,0.779123 0.43004,0 0.77893,-0.347755 0.77893,-0.779123 0,-0.429468 -0.34889,-0.777223 -0.77893,-0.777223 -0.43004,0 -0.77893,0.347755 -0.77893,0.777223 z"
     id="path6163" />
  <path
     d="m 187.24946,33.585746 c 0,0.431368 0.34889,0.779123 0.77893,0.779123 0.43004,0 0.77893,-0.347755 0.77893,-0.779123 0,-0.429468 -0.34889,-0.777223 -0.77893,-0.777223 -0.43004,0 -0.77893,0.347755 -0.77893,0.777223 z"
     id="path6165" />
  <path
     d="m 179.64946,25.995746 c 0,0.431368 0.34889,0.779123 0.77893,0.779123 0.43004,0 0.77893,-0.347755 0.77893,-0.779123 0,-0.429468 -0.34889,-0.777223 -0.77893,-0.777223 -0.43004,0 -0.77893,0.347755 -0.77893,0.777223 z"
     id="path6167" />
  <path
     d="m 170.10946,20.925746 c 0,0.431368 0.34889,0.779123 0.77893,0.779123 0.43004,0 0.77893,-0.347755 0.77893,-0.779123 0,-0.429468 -0.34889,-0.777223 -0.77893,-0.777223 -0.43004,0 -0.77893,0.347755 -0.77893,0.777223 z"
     id="path6169" />
  <path
     d="m 31.187405,160.33425 c 0,-0.43136 -0.348895,-0.77912 -0.778933,-0.77912 -0.430038,0 -0.778933,0.34776 -0.778933,0.77912 0,0.42947 0.348895,0.77723 0.778933,0.77723 0.430038,0 0.778933,-0.34776 0.778933,-0.77723 z"
     id="path6171" />
  <path
     d="m 37.057405,170.63425 c 0,-0.43136 -0.348895,-0.77912 -0.778933,-0.77912 -0.430038,0 -0.778933,0.34776 -0.778933,0.77912 0,0.42947 0.348895,0.77723 0.778933,0.77723 0.430038,0 0.778933,-0.34776 0.778933,-0.77723 z"
     id="path6173" />
  <path
     d="m 44.657405,178.22425 c 0,-0.43136 -0.348895,-0.77912 -0.778933,-0.77912 -0.430038,0 -0.778933,0.34776 -0.778933,0.77912 0,0.42947 0.348895,0.77723 0.778933,0.77723 0.430038,0 0.778933,-0.34776 0.778933,-0.77723 z"
     id="path6175" />
  <path
     d="m 54.197405,183.28425 c 0,-0.43136 -0.348895,-0.77912 -0.778933,-0.77912 -0.430038,0 -0.778933,0.34776 -0.778933,0.77912 0,0.42947 0.348895,0.77723 0.778933,0.77723 0.430038,0 0.778933,-0.34776 0.778933,-0.77723 z"
     id="path6177" />
  <path
     d="m 76.977405,184.83425 c 0,-0.43136 -0.348895,-0.77912 -0.778933,-0.77912 -0.430038,0 -0.778933,0.34776 -0.778933,0.77912 0,0.42947 0.348895,0.77723 0.778933,0.77723 0.430038,0 0.778933,-0.34776 0.778933,-0.77723 z"
     id="path6179" />
  <path
     d="m 86.907405,184.83425 c 0,-0.43136 -0.348895,-0.77912 -0.778933,-0.77912 -0.430038,0 -0.778933,0.34776 -0.778933,0.77912 0,0.42947 0.348895,0.77723 0.778933,0.77723 0.430038,0 0.778933,-0.34776 0.778933,-0.77723 z"
     id="path6181" />
  <path
     d="m 96.067405,184.83425 c 0,-0.43136 -0.348895,-0.77912 -0.778933,-0.77912 -0.430038,0 -0.778933,0.34776 -0.778933,0.77912 0,0.42947 0.348895,0.77723 0.778933,0.77723 0.430038,0 0.778933,-0.34776 0.778933,-0.77723 z"
     id="path6183" />
  <path
     d="m 105.4074,184.83425 c 0,-0.43136 -0.34889,-0.77912 -0.77893,-0.77912 -0.43004,0 -0.77893,0.34776 -0.77893,0.77912 0,0.42947 0.34889,0.77723 0.77893,0.77723 0.43004,0 0.77893,-0.34776 0.77893,-0.77723 z"
     id="path6185" />
  <path
     d="m 121.9674,184.83425 c 0,-0.43136 -0.34889,-0.77912 -0.77893,-0.77912 -0.43004,0 -0.77893,0.34776 -0.77893,0.77912 0,0.42947 0.34889,0.77723 0.77893,0.77723 0.43004,0 0.77893,-0.34776 0.77893,-0.77723 z"
     id="path6187" />
  <path
     d="m 131.8974,184.83425 c 0,-0.43136 -0.34889,-0.77912 -0.77893,-0.77912 -0.43004,0 -0.77893,0.34776 -0.77893,0.77912 0,0.42947 0.34889,0.77723 0.77893,0.77723 0.43004,0 0.77893,-0.34776 0.77893,-0.77723 z"
     id="path6189" />
  <path
     d="m 141.0474,184.83425 c 0,-0.43136 -0.34889,-0.77912 -0.77893,-0.77912 -0.43004,0 -0.77893,0.34776 -0.77893,0.77912 0,0.42947 0.34889,0.77723 0.77893,0.77723 0.43004,0 0.77893,-0.34776 0.77893,-0.77723 z"
     id="path6191" />
  <path
     d="m 150.3974,184.83425 c 0,-0.43136 -0.34889,-0.77912 -0.77893,-0.77912 -0.43004,0 -0.77893,0.34776 -0.77893,0.77912 0,0.42947 0.34889,0.77723 0.77893,0.77723 0.43004,0 0.77893,-0.34776 0.77893,-0.77723 z"
     id="path6193" />
  <path
     d="m 192.37946,161.67425 c 0,-0.43136 0.34889,-0.77912 0.77893,-0.77912 0.43004,0 0.77893,0.34776 0.77893,0.77912 0,0.42947 -0.34889,0.77723 -0.77893,0.77723 -0.43004,0 -0.77893,-0.34776 -0.77893,-0.77723 z"
     id="path6195" />
  <path
     d="m 187.68946,171.60425 c 0,-0.43136 0.34889,-0.77912 0.77893,-0.77912 0.43004,0 0.77893,0.34776 0.77893,0.77912 0,0.42947 -0.34889,0.77723 -0.77893,0.77723 -0.43004,0 -0.77893,-0.34776 -0.77893,-0.77723 z"
     id="path6197" />
  <path
     d="m 180.08946,179.20425 c 0,-0.43136 0.34889,-0.77912 0.77893,-0.77912 0.43004,0 0.77893,0.34776 0.77893,0.77912 0,0.42947 -0.34889,0.77723 -0.77893,0.77723 -0.43004,0 -0.77893,-0.34776 -0.77893,-0.77723 z"
     id="path6199" />
  <path
     d="m 170.54946,184.26425 c 0,-0.43136 0.34889,-0.77912 0.77893,-0.77912 0.43004,0 0.77893,0.34776 0.77893,0.77912 0,0.42947 -0.34889,0.77723 -0.77893,0.77723 -0.43004,0 -0.77893,-0.34776 -0.77893,-0.77723 z"
     id="path6201" />
  <path
     d="m 29.752684,67.198975 c -0.431368,0 -0.779123,-0.348895 -0.779123,-0.778933 0,-0.430038 0.347755,-0.778933 0.779123,-0.778933 0.429468,0 0.777223,0.348895 0.777223,0.778933 0,0.430038 -0.347755,0.778933 -0.777223,0.778933 z"
     id="path6203" />
  <path
     d="m 29.752684,77.138975 c -0.431368,0 -0.779123,-0.348895 -0.779123,-0.778933 0,-0.430038 0.347755,-0.778933 0.779123,-0.778933 0.429468,0 0.777223,0.348895 0.777223,0.778933 0,0.430038 -0.347755,0.778933 -0.777223,0.778933 z"
     id="path6205" />
  <path
     d="m 29.752684,86.288975 c -0.431368,0 -0.779123,-0.348895 -0.779123,-0.778933 0,-0.430038 0.347755,-0.778933 0.779123,-0.778933 0.429468,0 0.777223,0.348895 0.777223,0.778933 0,0.430038 -0.347755,0.778933 -0.777223,0.778933 z"
     id="path6207" />
  <path
     d="m 29.752684,95.638975 c -0.431368,0 -0.779123,-0.348895 -0.779123,-0.778933 0,-0.430038 0.347755,-0.778933 0.779123,-0.778933 0.429468,0 0.777223,0.348895 0.777223,0.778933 0,0.430038 -0.347755,0.778933 -0.777223,0.778933 z"
     id="path6209" />
  <path
     d="m 29.752684,112.18897 c -0.431368,0 -0.779123,-0.34889 -0.779123,-0.77893 0,-0.43004 0.347755,-0.77893 0.779123,-0.77893 0.429468,0 0.777223,0.34889 0.777223,0.77893 0,0.43004 -0.347755,0.77893 -0.777223,0.77893 z"
     id="path6211" />
  <path
     d="m 29.752684,122.11897 c -0.431368,0 -0.779123,-0.34889 -0.779123,-0.77893 0,-0.43004 0.347755,-0.77893 0.779123,-0.77893 0.429468,0 0.777223,0.34889 0.777223,0.77893 0,0.43004 -0.347755,0.77893 -0.777223,0.77893 z"
     id="path6213" />
  <path
     d="m 29.752684,131.26897 c -0.431368,0 -0.779123,-0.34889 -0.779123,-0.77893 0,-0.43004 0.347755,-0.77893 0.779123,-0.77893 0.429468,0 0.777223,0.34889 0.777223,0.77893 0,0.43004 -0.347755,0.77893 -0.777223,0.77893 z"
     id="path6215" />
  <path
     d="m 29.752684,140.61897 c -0.431368,0 -0.779123,-0.34889 -0.779123,-0.77893 0,-0.43004 0.347755,-0.77893 0.779123,-0.77893 0.429468,0 0.777223,0.34889 0.777223,0.77893 0,0.43004 -0.347755,0.77893 -0.777223,0.77893 z"
     id="path6217" />
  <path
     d="m 193.83268,66.398975 c -0.43136,0 -0.77912,-0.348895 -0.77912,-0.778933 0,-0.430038 0.34776,-0.778933 0.77912,-0.778933 0.42947,0 0.77723,0.348895 0.77723,0.778933 0,0.430038 -0.34776,0.778933 -0.77723,0.778933 z"
     id="path6219" />
  <path
     d="m 193.83268,76.328975 c -0.43136,0 -0.77912,-0.348895 -0.77912,-0.778933 0,-0.430038 0.34776,-0.778933 0.77912,-0.778933 0.42947,0 0.77723,0.348895 0.77723,0.778933 0,0.430038 -0.34776,0.778933 -0.77723,0.778933 z"
     id="path6221" />
  <path
     d="m 193.83268,85.478975 c -0.43136,0 -0.77912,-0.348895 -0.77912,-0.778933 0,-0.430038 0.34776,-0.778933 0.77912,-0.778933 0.42947,0 0.77723,0.348895 0.77723,0.778933 0,0.430038 -0.34776,0.778933 -0.77723,0.778933 z"
     id="path6223" />
  <path
     d="m 193.83268,94.828975 c -0.43136,0 -0.77912,-0.348895 -0.77912,-0.778933 0,-0.430038 0.34776,-0.778933 0.77912,-0.778933 0.42947,0 0.77723,0.348895 0.77723,0.778933 0,0.430038 -0.34776,0.778933 -0.77723,0.778933 z"
     id="path6225" />
  <path
     d="m 193.83268,111.37897 c -0.43136,0 -0.77912,-0.34889 -0.77912,-0.77893 0,-0.43004 0.34776,-0.77893 0.77912,-0.77893 0.42947,0 0.77723,0.34889 0.77723,0.77893 0,0.43004 -0.34776,0.77893 -0.77723,0.77893 z"
     id="path6227" />
  <path
     d="m 193.83268,121.31897 c -0.43136,0 -0.77912,-0.34889 -0.77912,-0.77893 0,-0.43004 0.34776,-0.77893 0.77912,-0.77893 0.42947,0 0.77723,0.34889 0.77723,0.77893 0,0.43004 -0.34776,0.77893 -0.77723,0.77893 z"
     id="path6229" />
  <path
     d="m 193.83268,130.46897 c -0.43136,0 -0.77912,-0.34889 -0.77912,-0.77893 0,-0.43004 0.34776,-0.77893 0.77912,-0.77893 0.42947,0 0.77723,0.34889 0.77723,0.77893 0,0.43004 -0.34776,0.77893 -0.77723,0.77893 z"
     id="path6231" />
  <path
     d="m 193.83268,139.81897 c -0.43136,0 -0.77912,-0.34889 -0.77912,-0.77893 0,-0.43004 0.34776,-0.77893 0.77912,-0.77893 0.42947,0 0.77723,0.34889 0.77723,0.77893 0,0.43004 -0.34776,0.77893 -0.77723,0.77893 z"
     id="path6233" />
  <path
     d="m 65.979098,19.757696 c 0,1.00336 -0.812722,1.816082 -1.816082,1.816082 -1.000851,0 -1.813573,-0.812722 -1.813573,-1.816082 0,-1.000852 0.812722,-1.812821 1.813573,-1.812821 1.00336,0 1.816082,0.811969 1.816082,1.812821 z"
     id="path6235" />
  <path
     d="m 113.5291,19.757696 c 0,1.00336 -0.81272,1.816082 -1.81608,1.816082 -1.00086,0 -1.81358,-0.812722 -1.81358,-1.816082 0,-1.000852 0.81272,-1.812821 1.81358,-1.812821 1.00336,0 1.81608,0.811969 1.81608,1.812821 z"
     id="path6237" />
  <path
     d="m 66.889098,184.8277 c 0,1.00336 -0.812722,1.81608 -1.816082,1.81608 -1.000851,0 -1.813573,-0.81272 -1.813573,-1.81608 0,-1.00086 0.812722,-1.81282 1.813573,-1.81282 1.00336,0 1.816082,0.81196 1.816082,1.81282 z"
     id="path6239" />
  <path
     d="m 114.4391,184.8277 c 0,1.00336 -0.81272,1.81608 -1.81608,1.81608 -1.00086,0 -1.81358,-0.81272 -1.81358,-1.81608 0,-1.00086 0.81272,-1.81282 1.81358,-1.81282 1.00336,0 1.81608,0.81196 1.81608,1.81282 z"
     id="path6241" />
  <path
     d="m 31.569098,149.8477 c 0,1.00336 -0.812722,1.81608 -1.816082,1.81608 -1.000851,0 -1.813573,-0.81272 -1.813573,-1.81608 0,-1.00086 0.812722,-1.81282 1.813573,-1.81282 1.00336,0 1.816082,0.81196 1.816082,1.81282 z"
     id="path6243" />
  <path
     d="m 158.06776,184.8277 c 0,1.00336 0.81272,1.81608 1.81608,1.81608 1.00086,0 1.81358,-0.81272 1.81358,-1.81608 0,-1.00086 -0.81272,-1.81282 -1.81358,-1.81282 -1.00336,0 -1.81608,0.81196 -1.81608,1.81282 z"
     id="path6245" />
  <path
     d="m 192.01776,149.3977 c 0,1.00336 0.81272,1.81608 1.81608,1.81608 1.00086,0 1.81358,-0.81272 1.81358,-1.81608 0,-1.00086 -0.81272,-1.81282 -1.81358,-1.81282 -1.00336,0 -1.81608,0.81196 -1.81608,1.81282 z"
     id="path6247" />
  <path
     d="m 157.62776,19.762304 c 0,-1.00336 0.81272,-1.816082 1.81608,-1.816082 1.00086,0 1.81358,0.812722 1.81358,1.816082 0,1.000852 -0.81272,1.812821 -1.81358,1.812821 -1.00336,0 -1.81608,-0.811969 -1.81608,-1.812821 z"
     id="path6249" />
  <path
     d="m 192.01776,54.872304 c 0,-1.00336 0.81272,-1.816082 1.81608,-1.816082 1.00086,0 1.81358,0.812722 1.81358,1.816082 0,1.000852 -0.81272,1.812821 -1.81358,1.812821 -1.00336,0 -1.81608,-0.811969 -1.81608,-1.812821 z"
     id="path6251" />
  <path
     d="m 192.01776,102.3523 c 0,-1.00336 0.81272,-1.81608 1.81608,-1.81608 1.00086,0 1.81358,0.81272 1.81358,1.81608 0,1.00086 -0.81272,1.81282 -1.81358,1.81282 -1.00336,0 -1.81608,-0.81196 -1.81608,-1.81282 z"
     id="path6253" />
  <path
     d="m 27.937762,55.532304 c 0,-1.00336 0.812722,-1.816082 1.816082,-1.816082 1.000851,0 1.813573,0.812722 1.813573,1.816082 0,1.000852 -0.812722,1.812821 -1.813573,1.812821 -1.00336,0 -1.816082,-0.811969 -1.816082,-1.812821 z"
     id="path6257" />
  <path
     d="m 27.937762,103.0123 c 0,-1.00336 0.812722,-1.81608 1.816082,-1.81608 1.000851,0 1.813573,0.81272 1.813573,1.81608 0,1.00086 -0.812722,1.81282 -1.813573,1.81282 -1.00336,0 -1.816082,-0.81196 -1.816082,-1.81282 z"
     id="path6259" />
  <g
     transform="matrix(0.18911801,-0.01857552,0.01806575,0.18147097,149.47267,-18.98622)"
     id="g3127">
    <path
       d="m -230.49362,606.54929 c 17.49919,11.2733 22.49987,34.6696 11.16985,52.257 -11.33033,17.5875 -34.70115,22.706 -52.20023,11.4327 -17.49908,-11.2733 -22.49988,-34.6695 -11.16964,-52.257 11.33023,-17.5874 34.70095,-22.706 52.20002,-11.4327 z m -37.20832,1.7165 2.66146,-286.54796 17.54683,-27.23729 15.60862,27.36373 -1.12483,288.11822 c -10.1748,3.2948 -21.88484,2.6278 -34.69208,-1.6967 z"
       id="path3087"
       style="fill:#000000;fill-opacity:1;stroke-width:0.30000001;stroke-miterlimit:4" />
    <path
       d="m -240.67399,328.44883 -0.0616,98.52284 -16.29205,0.0132 0.0339,-98.5972 z"
       id="path7307"
       style="fill:#008000;fill-rule:evenodd;stroke:#000000;stroke-width:1px" />
  </g>
  <g
     transform="matrix(0.00621459,0.18992833,-0.1844198,0.00600974,214.32683,89.1891)"
     id="g3131">
    <path
       d="m 67.835408,515.64014 c 17.5048,11.2646 22.51712,34.6584 11.19584,52.2514 -11.32161,17.5932 -34.68986,22.7232 -52.19455,11.4587 -17.5046698,-11.2646 -22.5171098,-34.6583 -11.19562,-52.2514 11.32149,-17.5932 34.68967,-22.7232 52.19433,-11.4587 z m -42.65098,2.5122 1.35259,-171.45809 21.81034,-26.75997 20.19086,26.96714 0.28202,173.70802 c -10.17314,3.2999 -30.82641,1.8611 -43.63581,-2.4571 z"
       id="path3087-7"
       style="fill:#000000;fill-opacity:1;stroke-width:0.30000001;stroke-miterlimit:4" />
    <path
       d="m 59.831899,355.59842 -0.08656,66.40613 -22.892429,0.009 0.04764,-66.45626 z"
       id="path7307-4"
       style="fill:#008000;fill-rule:evenodd;stroke:#000000;stroke-width:0.97318113px" />
  </g>
  <path
     d="m 127.96272,104.6306 -6.8771,-2.08943 c 0.56468,-3.804575 -1.60477,-7.509567 -5.25285,-8.617939 -3.64808,-1.108372 -7.51193,0.763562 -9.15916,4.23924 L 62.719992,84.808339 62.011405,87.140572 105.96503,100.4947 c -0.56469,3.80458 1.60476,7.50957 5.25284,8.61795 3.64809,1.10837 7.51194,-0.76357 9.15916,-4.23924 l 6.8771,2.08942 0.70859,-2.33223 z"
     id="rect3139"
     style="fill:#ff6347;fill-opacity:1;stroke:#b40000;stroke-width:0.3775343;stroke-linecap:round;stroke-linejoin:round;stroke-miterlimit:4;stroke-opacity:1;stroke-dasharray:none" />
  <path
     d="m 112.78679,103.95652 a 2.5078333,2.5442335 16.900008 1 1 1.47923,-4.868714 2.5078333,2.5442335 16.900008 1 1 -1.47923,4.868714 z"
     id="path3135"
     style="fill:#000000;fill-opacity:1;stroke-width:0.30000001;stroke-miterlimit:4;stroke-dasharray:none" />
  <metadata
     id="metadata90">
    <rdf:RDF>
      <cc:Work>
        <dc:format>image/svg+xml</dc:format>
        <dc:type
           rdf:resource="http://purl.org/dc/dcmitype/StillImage" />
        <cc:license
           rdf:resource="http://creativecommons.org/licenses/publicdomain/" />
        <dc:publisher>
          <cc:Agent
             rdf:about="http://openclipart.org/">
            <dc:title />
          </cc:Agent>
        </dc:publisher>
        <dc:title>Modified Alarm Clock</dc:title>
        <dc:date />
        <dc:description>alarm, clock, public domain, svg, </dc:description>
        <dc:source>http://openclipart.org/detail/3174/clock-alarm-by-valessiobrito-3174</dc:source>
        <dc:creator>
          <cc:Agent>
            <dc:title>valessiobrito / D Yeager</dc:title>
          </cc:Agent>
        </dc:creator>
        <dc:subject>
          <rdf:Bag>
            <rdf:li>alarm</rdf:li>
            <rdf:li>clip art</rdf:li>
            <rdf:li>clipart</rdf:li>
            <rdf:li>clock</rdf:li>
            <rdf:li>image</rdf:li>
            <rdf:li>media</rdf:li>
            <rdf:li>png</rdf:li>
            <rdf:li>public domain</rdf:li>
            <rdf:li>svg</rdf:li>
          </rdf:Bag>
        </dc:subject>
      </cc:Work>
      <cc:License
         rdf:about="http://creativecommons.org/licenses/publicdomain/">
        <cc:permits
           rdf:resource="http://creativecommons.org/ns#Reproduction" />
        <cc:permits
           rdf:resource="http://creativecommons.org/ns#Distribution" />
        <cc:permits
           rdf:resource="http://creativecommons.org/ns#DerivativeWorks" />
      </cc:License>
    </rdf:RDF>
  </metadata>
  <text
     x="154.41933"
     y="38.847218"
     transform="translate(-3.0335208e-6,0)"
     id="text3250"
     xml:space="preserve"
     style="font-size:36px;font-style:normal;font-weight:normal;line-height:125%;letter-spacing:0px;word-spacing:0px;fill:#000000;fill-opacity:1;stroke:none;font-family:Bitstream Vera Sans"><tspan
       x="154.41933"
       y="38.847218"
       id="tspan3252" /></text>
  <g
     id="text3254"
     style="font-size:36px;font-style:normal;font-variant:normal;font-weight:normal;font-stretch:normal;line-height:125%;letter-spacing:0px;word-spacing:0px;fill:#000000;fill-opacity:1;stroke:none;font-family:Open Sans;-inkscape-font-specification:Open Sans">
    <path
       d="m 157.72566,48.124466 -2.53125,0 0,-16.28125 c -1e-5,-1.354149 0.0417,-2.635398 0.125,-3.84375 -0.21876,0.21877 -0.46355,0.447936 -0.73437,0.6875 -0.27084,0.239602 -1.51043,1.255226 -3.71875,3.046875 l -1.375,-1.78125 6.04687,-4.671875 2.1875,0 0,22.84375"
       id="path3102"
       style="font-size:32px" />
  </g>
  <g
     id="text3258"
     style="font-size:36px;font-style:normal;font-variant:normal;font-weight:normal;font-stretch:normal;line-height:125%;letter-spacing:0px;word-spacing:0px;fill:#000000;fill-opacity:1;stroke:none;font-family:Open Sans;-inkscape-font-specification:Open Sans">
    <path
       d="m 104.37765,48.167793 -2.53125,0 0,-16.28125 c -1e-5,-1.354149 0.0417,-2.635397 0.125,-3.84375 -0.21876,0.21877 -0.46355,0.447937 -0.73438,0.6875 -0.27084,0.239603 -1.510421,1.255227 -3.718748,3.046875 l -1.375,-1.78125 6.046878,-4.671875 2.1875,0 0,22.84375"
       id="path3097"
       style="font-size:32px;letter-spacing:-1.24000001px" />
    <path
       d="m 126.8564,48.167793 -15.01563,0 0,-2.234375 6.01563,-6.046875 c 1.83332,-1.854156 3.04165,-3.177072 3.625,-3.96875 0.58332,-0.791653 1.02082,-1.562486 1.3125,-2.3125 0.29165,-0.749984 0.43748,-1.557275 0.4375,-2.421875 -2e-5,-1.218732 -0.36981,-2.182272 -1.10938,-2.890625 -0.73959,-0.718729 -1.76563,-1.078104 -3.07812,-1.078125 -0.94793,2.1e-5 -1.84897,0.156271 -2.70313,0.46875 -0.84375,0.31252 -1.78646,0.880228 -2.82812,1.703125 l -1.375,-1.765625 c 2.10416,-1.749977 4.39582,-2.624977 6.875,-2.625 2.14582,2.3e-5 3.82811,0.552106 5.04687,1.65625 1.21874,1.093771 1.82811,2.567728 1.82813,4.421875 -2e-5,1.447933 -0.40627,2.880223 -1.21875,4.296875 -0.81252,1.416678 -2.33335,3.208343 -4.5625,5.375 l -5,4.890625 0,0.125 11.75,0 0,2.40625"
       id="path3099"
       style="font-size:32px;letter-spacing:-1.24000001px" />
  </g>
  <g
     id="text3262"
     style="font-size:32px;font-style:normal;font-variant:normal;font-weight:normal;font-stretch:normal;line-height:125%;letter-spacing:-3.69000006px;word-spacing:0px;fill:#000000;fill-opacity:1;stroke:none;font-family:Open Sans;-inkscape-font-specification:Open Sans">
    <path
       d="m 66.593594,47.895443 -2.53125,0 0,-16.28125 c -9e-6,-1.354149 0.04166,-2.635398 0.125,-3.84375 -0.218759,0.21877 -0.46355,0.447936 -0.734375,0.6875 -0.270841,0.239602 -1.510424,1.255226 -3.71875,3.046875 l -1.375,-1.78125 6.046875,-4.671875 2.1875,0 0,22.84375"
       id="path3092"
       style="letter-spacing:-5.03999996px" />
    <path
       d="m 79.866094,47.895443 -2.53125,0 0,-16.28125 c -9e-6,-1.354149 0.04166,-2.635398 0.125,-3.84375 -0.218759,0.21877 -0.46355,0.447936 -0.734375,0.6875 -0.270841,0.239602 -1.510424,1.255226 -3.71875,3.046875 l -1.375,-1.78125 6.046875,-4.671875 2.1875,0 0,22.84375"
       id="path3094"
       style="letter-spacing:-5.03999996px" />
  </g>
  <g
     id="text3266"
     style="font-size:32px;font-style:normal;font-variant:normal;font-weight:normal;font-stretch:normal;line-height:125%;letter-spacing:0px;word-spacing:0px;fill:#000000;fill-opacity:1;stroke:none;font-family:Open Sans;-inkscape-font-specification:Open Sans">
    <path
       d="m 45.97187,74.295441 -2.53125,0 0,-16.28125 c -8e-6,-1.354149 0.04166,-2.635398 0.125,-3.84375 -0.218758,0.21877 -0.46355,0.447936 -0.734375,0.6875 -0.270841,0.239602 -1.510423,1.255226 -3.71875,3.046875 l -1.375,-1.78125 6.046875,-4.671875 2.1875,0 0,22.84375"
       id="path3129"
       style="letter-spacing:-3.51000118px" />
    <path
       d="m 66.305619,62.842316 c -1.6e-5,3.947924 -0.625016,6.895838 -1.875,8.84375 -1.239597,1.947917 -3.140636,2.921874 -5.703125,2.921875 -2.45834,-10e-7 -4.32813,-0.994791 -5.609375,-2.984375 -1.281252,-1.999996 -1.921876,-4.927076 -1.921875,-8.78125 -10e-7,-3.979152 0.61979,-6.932274 1.859375,-8.859375 1.239579,-1.927061 3.130202,-2.890602 5.671875,-2.890625 2.479155,2.3e-5 4.359362,1.00523 5.640625,3.015625 1.291651,2.010435 1.937484,4.92189 1.9375,8.734375 m -12.484375,0 c -4e-6,3.322924 0.390621,5.744797 1.171875,7.265625 0.781244,1.510419 2.026034,2.265627 3.734375,2.265625 1.729156,2e-6 2.979155,-0.765623 3.75,-2.296875 0.781237,-1.541661 1.171861,-3.953117 1.171875,-7.234375 -1.4e-5,-3.281236 -0.390638,-5.682275 -1.171875,-7.203125 -0.770845,-1.53123 -2.020844,-2.296854 -3.75,-2.296875 -1.708341,2.1e-5 -2.953131,0.755228 -3.734375,2.265625 -0.781254,1.500017 -1.171879,3.911473 -1.171875,7.234375"
       id="path3131"
       style="letter-spacing:-3.51000118px" />
  </g>
  <g
     id="text3270"
     style="font-size:32px;font-style:normal;font-variant:normal;font-weight:normal;font-stretch:normal;line-height:125%;letter-spacing:0px;word-spacing:0px;fill:#000000;fill-opacity:1;stroke:none;font-family:Open Sans;-inkscape-font-specification:Open Sans">
    <path
       d="m 53.778122,101.60169 c -1.7e-5,8.93751 -3.458347,13.40625 -10.375,13.40625 -1.208338,0 -2.166671,-0.10416 -2.875,-0.3125 l 0,-2.23437 c 0.833329,0.27083 1.781245,0.40625 2.84375,0.40625 2.499991,0 4.385406,-0.77083 5.65625,-2.3125 1.281237,-1.55208 1.979153,-3.92708 2.09375,-7.125 l -0.1875,0 c -0.57293,0.86459 -1.333346,1.52605 -2.28125,1.98437 -0.947927,0.44793 -2.015634,0.67189 -3.203125,0.67188 -2.02084,10e-6 -3.625005,-0.60416 -4.8125,-1.8125 -1.187502,-1.20832 -1.781252,-2.89582 -1.78125,-5.062503 -2e-6,-2.374982 0.661456,-4.24998 1.984375,-5.625 1.333328,-1.374977 3.083327,-2.062477 5.25,-2.0625 1.552073,2.3e-5 2.906238,0.401065 4.0625,1.203125 1.166652,0.791688 2.062485,1.953145 2.6875,3.484375 0.624984,1.52085 0.937483,3.317724 0.9375,5.390623 m -7.6875,-7.859373 c -1.489591,2.1e-5 -2.640631,0.479187 -3.453125,1.4375 -0.812505,0.958352 -1.218754,2.291684 -1.21875,4 -4e-6,1.500013 0.374995,2.682303 1.125,3.546873 0.749994,0.85418 1.890618,1.28126 3.421875,1.28125 0.947907,10e-6 1.817698,-0.1927 2.609375,-0.57812 0.802071,-0.38541 1.432279,-0.91145 1.890625,-1.57813 0.45832,-0.66665 0.687486,-1.36457 0.6875,-2.093748 -1.4e-5,-1.093734 -0.213555,-2.104149 -0.640625,-3.03125 -0.427096,-0.927064 -1.026054,-1.65623 -1.796875,-2.1875 -0.760427,-0.531229 -1.635427,-0.796854 -2.625,-0.796875"
       id="path3126" />
  </g>
  <g
     id="text3274"
     style="font-size:32px;font-style:normal;font-variant:normal;font-weight:normal;font-stretch:normal;line-height:125%;letter-spacing:0px;word-spacing:0px;fill:#000000;fill-opacity:1;stroke:none;font-family:Open Sans;-inkscape-font-specification:Open Sans">
    <path
       d="m 46.724998,130.28593 c 2.083323,3e-5 3.734363,0.4844 4.953125,1.45313 1.218735,0.96877 1.82811,2.30731 1.828125,4.01562 -1.5e-5,1.12502 -0.348973,2.15106 -1.046875,3.07813 -0.69793,0.9271 -1.812513,1.77085 -3.34375,2.53125 1.854154,0.88543 3.171861,1.81772 3.953125,2.79687 0.781234,0.96876 1.171859,2.09376 1.171875,3.375 -1.6e-5,1.89584 -0.661474,3.41147 -1.984375,4.54688 -1.32293,1.125 -3.135428,1.6875 -5.4375,1.6875 -2.437506,0 -4.312504,-0.53125 -5.625,-1.59375 -1.312502,-1.07291 -1.968751,-2.58854 -1.96875,-4.54688 -10e-7,-2.61457 1.593747,-4.65103 4.78125,-6.10937 -1.437504,-0.81249 -2.468753,-1.68749 -3.09375,-2.625 -0.625002,-0.9479 -0.937502,-2.00519 -0.9375,-3.17188 -2e-6,-1.65623 0.609372,-2.97393 1.828125,-3.95312 1.229162,-0.98956 2.869785,-1.48435 4.921875,-1.48438 m -4.9375,17.40625 c -4e-6,1.25001 0.432288,2.22397 1.296875,2.92188 0.874994,0.69792 2.098951,1.04688 3.671875,1.04687 1.552073,1e-5 2.760405,-0.36458 3.625,-1.09375 0.86457,-0.72916 1.296861,-1.72916 1.296875,-3 -1.4e-5,-1.01041 -0.406263,-1.90624 -1.21875,-2.6875 -0.812512,-0.79165 -2.229177,-1.55728 -4.25,-2.29687 -1.55209,0.66668 -2.677089,1.40626 -3.375,2.21875 -0.697921,0.80209 -1.046879,1.76563 -1.046875,2.89062 m 4.90625,-15.29687 c -1.302091,2e-5 -2.322923,0.31252 -3.0625,0.9375 -0.739588,0.62502 -1.109379,1.45835 -1.109375,2.5 -4e-6,0.95835 0.307287,1.78127 0.921875,2.46875 0.614577,0.68751 1.749993,1.37501 3.40625,2.0625 1.489573,-0.62499 2.541655,-1.29686 3.15625,-2.01563 0.624987,-0.71873 0.937487,-1.55727 0.9375,-2.51562 -1.3e-5,-1.05207 -0.380221,-1.8854 -1.140625,-2.5 -0.750011,-0.62498 -1.786468,-0.93748 -3.109375,-0.9375"
       id="path3123" />
  </g>
  <g
     id="text3278"
     style="font-size:32px;font-style:normal;font-variant:normal;font-weight:normal;font-stretch:normal;line-height:125%;letter-spacing:0px;word-spacing:0px;fill:#000000;fill-opacity:1;stroke:none;font-family:Open Sans;-inkscape-font-specification:Open Sans">
    <path
       d="m 65.660942,177.09544 9.46875,-20.45312 -12.453125,0 0,-2.39063 15.203125,0 0,2.07813 -9.34375,20.76562 -2.875,0"
       id="path3120" />
  </g>
  <g
     id="text3282"
     style="font-size:32px;font-style:normal;font-variant:normal;font-weight:normal;font-stretch:normal;line-height:125%;letter-spacing:0px;word-spacing:0px;fill:#000000;fill-opacity:1;stroke:none;font-family:Open Sans;-inkscape-font-specification:Open Sans">
    <path
       d="m 105.42812,167.33374 c 0,-4.48957 0.86979,-7.84373 2.60938,-10.0625 1.74999,-2.22914 4.33332,-3.34373 7.75,-3.34375 1.17707,2e-5 2.10415,0.099 2.78125,0.29688 l 0,2.23437 c -0.8021,-0.2604 -1.71876,-0.3906 -2.75,-0.39062 -2.44793,2e-5 -4.31772,0.76564 -5.60938,2.29687 -1.29167,1.52085 -2,3.91668 -2.125,7.1875 l 0.1875,0 c 1.14583,-1.79165 2.95833,-2.68749 5.4375,-2.6875 2.05207,1e-5 3.66666,0.61981 4.84375,1.85938 1.18749,1.23959 1.78124,2.92188 1.78125,5.04687 -1e-5,2.37501 -0.65105,4.24479 -1.95312,5.60938 -1.29168,1.35416 -3.04168,2.03124 -5.25,2.03125 -2.36459,-1e-5 -4.23959,-0.88542 -5.625,-2.65625 -1.38542,-1.78125 -2.07813,-4.25521 -2.07813,-7.42188 m 7.67188,7.875 c 1.47915,0 2.62499,-0.46354 3.4375,-1.39062 0.8229,-0.9375 1.23436,-2.28646 1.23437,-4.04688 -1e-5,-1.51041 -0.38022,-2.69791 -1.14062,-3.5625 -0.76043,-0.86457 -1.89585,-1.29686 -3.40625,-1.29687 -0.93751,1e-5 -1.79688,0.19272 -2.57813,0.57812 -0.78125,0.38543 -1.40625,0.91668 -1.875,1.59375 -0.45833,0.67709 -0.6875,1.38022 -0.6875,2.10938 0,1.07292 0.20833,2.07292 0.625,3 0.41666,0.92708 1.00521,1.66146 1.76563,2.20312 0.77082,0.54167 1.64582,0.8125 2.625,0.8125"
       id="path3117" />
  </g>
  <g
     id="text3286"
     style="font-size:32px;font-style:normal;font-variant:normal;font-weight:normal;font-stretch:normal;line-height:125%;letter-spacing:0px;word-spacing:0px;fill:#000000;fill-opacity:1;stroke:none;font-family:Open Sans;-inkscape-font-specification:Open Sans">
    <path
       d="m 156.29138,162.6992 c 2.40624,2e-5 4.29686,0.59898 5.67188,1.79688 1.3854,1.18751 2.07811,2.81772 2.07812,4.89062 -1e-5,2.36459 -0.75522,4.21876 -2.26562,5.5625 -1.50002,1.34375 -3.57293,2.01563 -6.21875,2.01563 -2.57293,0 -4.53646,-0.41146 -5.89063,-1.23438 l 0,-2.5 c 0.72917,0.46876 1.63541,0.83855 2.71875,1.10938 1.08333,0.26042 2.15104,0.39063 3.20313,0.39062 1.83332,1e-5 3.25519,-0.43229 4.26562,-1.29687 1.02082,-0.86458 1.53124,-2.11458 1.53125,-3.75 -1e-5,-3.18749 -1.95314,-4.78124 -5.85937,-4.78125 -0.98959,1e-5 -2.31251,0.15105 -3.96875,0.45312 l -1.34375,-0.85937 0.85937,-10.6875 11.35938,0 0,2.39062 -9.14063,0 -0.57812,6.85938 c 1.19791,-0.23957 2.39061,-0.35936 3.57812,-0.35938"
       id="path3114" />
  </g>
  <g
     id="text3290"
     style="font-size:32px;font-style:normal;font-variant:normal;font-weight:normal;font-stretch:normal;line-height:125%;letter-spacing:0px;word-spacing:0px;fill:#000000;fill-opacity:1;stroke:none;font-family:Open Sans;-inkscape-font-specification:Open Sans">
    <path
       d="m 186.45624,147.44543 -3.39063,0 0,5.25 -2.48437,0 0,-5.25 -11.10938,0 0,-2.26562 10.84375,-15.45313 2.75,0 0,15.35938 3.39063,0 0,2.35937 m -5.875,-2.35937 0,-7.59375 c -1e-5,-1.48957 0.0521,-3.17186 0.15625,-5.04688 l -0.125,0 c -0.50001,1.00002 -0.96876,1.82815 -1.40625,2.48438 l -7.14063,10.15625 8.51563,0"
       id="path3111" />
  </g>
  <g
     id="text3294"
     style="font-size:32px;font-style:normal;font-variant:normal;font-weight:normal;font-stretch:normal;line-height:125%;letter-spacing:0px;word-spacing:0px;fill:#000000;fill-opacity:1;stroke:none;font-family:Open Sans;-inkscape-font-specification:Open Sans">
    <path
       d="m 186.61575,75.019951 -15.01562,0 0,-2.234375 6.01562,-6.046875 c 1.83333,-1.854157 3.04166,-3.177072 3.625,-3.96875 0.58332,-0.791654 1.02082,-1.562486 1.3125,-2.3125 0.29166,-0.749985 0.43749,-1.557276 0.4375,-2.421875 -1e-5,-1.218732 -0.3698,-2.182273 -1.10937,-2.890625 -0.7396,-0.71873 -1.76564,-1.078104 -3.07813,-1.078125 -0.94792,2.1e-5 -1.84896,0.156271 -2.70312,0.46875 -0.84376,0.31252 -1.78646,0.880228 -2.82813,1.703125 l -1.375,-1.765625 c 2.10417,-1.749978 4.39583,-2.624977 6.875,-2.625 2.14583,2.3e-5 3.82812,0.552106 5.04688,1.65625 1.21873,1.09377 1.82811,2.567727 1.82812,4.421875 -1e-5,1.447932 -0.40626,2.880222 -1.21875,4.296875 -0.81251,1.416678 -2.33334,3.208343 -4.5625,5.375 l -5,4.890625 0,0.125 11.75,0 0,2.40625"
       id="path3105" />
  </g>
  <g
     id="text3298"
     style="font-size:32px;font-style:normal;font-variant:normal;font-weight:normal;font-stretch:normal;line-height:125%;letter-spacing:0px;word-spacing:0px;fill:#000000;fill-opacity:1;stroke:none;font-family:Open Sans;-inkscape-font-specification:Open Sans">
    <path
       d="m 186.51874,97.226692 c -2e-5,1.45835 -0.41148,2.651057 -1.23438,3.578128 -0.81251,0.92709 -1.96876,1.54688 -3.46875,1.85937 l 0,0.125 c 1.83332,0.22918 3.1927,0.81251 4.07813,1.75 0.8854,0.93751 1.32811,2.16668 1.32812,3.6875 -1e-5,2.17709 -0.75522,3.85417 -2.26562,5.03125 -1.51043,1.16667 -3.65626,1.75 -6.4375,1.75 -1.20834,0 -2.31772,-0.0937 -3.32813,-0.28125 -1,-0.17708 -1.97396,-0.49479 -2.92187,-0.95312 l 0,-2.46875 c 0.98958,0.48958 2.04166,0.86458 3.15625,1.125 1.12499,0.25 2.18749,0.375 3.1875,0.375 3.9479,0 5.92186,-1.54687 5.92187,-4.64063 -1e-5,-2.77082 -2.17709,-4.15624 -6.53125,-4.15625 l -2.25,0 0,-2.23437 2.28125,0 c 1.78124,10e-6 3.1927,-0.39061 4.23438,-1.17188 1.04165,-0.79165 1.56248,-1.885398 1.5625,-3.281248 -2e-5,-1.114565 -0.38543,-1.989564 -1.15625,-2.625 -0.76043,-0.635396 -1.79689,-0.953104 -3.10938,-0.953125 -1,2.1e-5 -1.94271,0.135438 -2.82812,0.40625 -0.88542,0.270854 -1.89584,0.770853 -3.03125,1.5 l -1.3125,-1.75 c 0.9375,-0.739562 2.01562,-1.317686 3.23437,-1.734375 1.22916,-0.42706 2.52083,-0.640602 3.875,-0.640625 2.21874,2.3e-5 3.9427,0.51044 5.17188,1.53125 1.22915,1.010437 1.84373,2.401061 1.84375,4.171875"
       id="path3108" />
  </g>
</svg>
