<?xml version="1.0" encoding="UTF-8" standalone="no"?>
<!-- Created with Inkscape (http://www.inkscape.org/) -->

<svg
   xmlns:dc="http://purl.org/dc/elements/1.1/"
   xmlns:cc="http://creativecommons.org/ns#"
   xmlns:rdf="http://www.w3.org/1999/02/22-rdf-syntax-ns#"
   xmlns:svg="http://www.w3.org/2000/svg"
   xmlns="http://www.w3.org/2000/svg"
   xmlns:xlink="http://www.w3.org/1999/xlink"
   version="1.1"
   width="100%"
   height="100%"
   viewBox="0 0 484.71 245.35"
   id="svg5444">
  <defs
     id="defs5446">
    <linearGradient
       x1="125.89"
       y1="286.38"
       x2="569.34998"
       y2="130.07001"
       id="linearGradient7215"
       gradientUnits="userSpaceOnUse">
      <stop
         id="stop7035"
         style="stop-color:#867850;stop-opacity:1"
         offset="0" />
      <stop
         id="stop7041"
         style="stop-color:#a08872;stop-opacity:1"
         offset="0.35473999" />
      <stop
         id="stop7037"
         style="stop-color:#867850;stop-opacity:1"
         offset="1" />
    </linearGradient>
    <linearGradient
       x1="412.44"
       y1="330.39001"
       x2="411.64001"
       y2="335.09"
       id="linearGradient7217"
       gradientUnits="userSpaceOnUse">
      <stop
         id="stop7104"
         style="stop-color:#b8b8b8;stop-opacity:1"
         offset="0" />
      <stop
         id="stop7110"
         style="stop-color:#e3e3e3;stop-opacity:1"
         offset="0.5" />
      <stop
         id="stop7106"
         style="stop-color:#b9b9b9;stop-opacity:1"
         offset="1" />
    </linearGradient>
    <linearGradient
       x1="412.44"
       y1="330.39001"
       x2="411.64001"
       y2="335.09"
       id="linearGradient7219"
       gradientUnits="userSpaceOnUse"
       gradientTransform="matrix(0.90747,-0.42013,0.42013,0.90747,-96.493,204.08)">
      <stop
         id="stop7104-7"
         style="stop-color:#b8b8b8;stop-opacity:1"
         offset="0" />
      <stop
         id="stop7110-8"
         style="stop-color:#e3e3e3;stop-opacity:1"
         offset="0.5" />
      <stop
         id="stop7106-8"
         style="stop-color:#b9b9b9;stop-opacity:1"
         offset="1" />
    </linearGradient>
    <linearGradient
       x1="412.44"
       y1="330.39001"
       x2="411.64001"
       y2="335.09"
       id="linearGradient7221"
       gradientUnits="userSpaceOnUse"
       gradientTransform="matrix(-0.96884,-0.24771,0.24771,-0.96884,748.05,756.69)">
      <stop
         id="stop7104-5"
         style="stop-color:#b8b8b8;stop-opacity:1"
         offset="0" />
      <stop
         id="stop7110-4"
         style="stop-color:#e3e3e3;stop-opacity:1"
         offset="0.5" />
      <stop
         id="stop7106-1"
         style="stop-color:#b9b9b9;stop-opacity:1"
         offset="1" />
    </linearGradient>
    <linearGradient
       x1="125.89"
       y1="286.38"
       x2="569.34998"
       y2="130.07001"
       id="linearGradient3024"
       xlink:href="#linearGradient7215"
       gradientUnits="userSpaceOnUse" />
    <linearGradient
       x1="412.44"
       y1="330.39001"
       x2="411.64001"
       y2="335.09"
       id="linearGradient3026"
       xlink:href="#linearGradient7217"
       gradientUnits="userSpaceOnUse" />
    <linearGradient
       x1="412.44"
       y1="330.39001"
       x2="411.64001"
       y2="335.09"
       id="linearGradient3028"
       xlink:href="#linearGradient7219"
       gradientUnits="userSpaceOnUse"
       gradientTransform="matrix(0.90747,-0.42013,0.42013,0.90747,-96.493,204.08)" />
    <linearGradient
       x1="412.44"
       y1="330.39001"
       x2="411.64001"
       y2="335.09"
       id="linearGradient3030"
       xlink:href="#linearGradient7221"
       gradientUnits="userSpaceOnUse"
       gradientTransform="matrix(-0.96884,-0.24771,0.24771,-0.96884,748.05,756.69)" />
    <linearGradient
       x1="412.44"
       y1="330.39001"
       x2="411.64001"
       y2="335.09"
       id="linearGradient3035"
       xlink:href="#linearGradient7221"
       gradientUnits="userSpaceOnUse"
       gradientTransform="matrix(-0.96884,-0.24771,0.24771,-0.96884,618.23,659.014)" />
    <linearGradient
       x1="412.44"
       y1="330.39001"
       x2="411.64001"
       y2="335.09"
       id="linearGradient3038"
       xlink:href="#linearGradient7219"
       gradientUnits="userSpaceOnUse"
       gradientTransform="matrix(0.90747,-0.42013,0.42013,0.90747,-226.313,106.404)" />
    <linearGradient
       x1="412.44"
       y1="330.39001"
       x2="411.64001"
       y2="335.09"
       id="linearGradient3041"
       xlink:href="#linearGradient7217"
       gradientUnits="userSpaceOnUse"
       gradientTransform="translate(-129.82,-97.676)" />
    <linearGradient
       x1="125.89"
       y1="286.38"
       x2="569.34998"
       y2="130.07001"
       id="linearGradient3045"
       xlink:href="#linearGradient7215"
       gradientUnits="userSpaceOnUse"
       gradientTransform="translate(-129.82,-97.676)" />
  </defs>
  <rect
     width="480.89999"
     height="244.50999"
     ry="3.8278999"
     x="1.9099957"
     y="0.10000098"
     id="rect5454"
     style="color:#000000;fill:url(#linearGradient3045);stroke:#777777;stroke-width:0.2;stroke-linejoin:round" />
  <rect
     width="452.51999"
     height="212.92999"
     ry="3.8278999"
     x="16.099998"
     y="11.834002"
     id="rect5454-1"
     style="color:#000000;fill:#444444;stroke:#777777;stroke-width:0.2;stroke-linejoin:round" />
  <rect
     width="484.51001"
     height="7.2179999"
     x="0.099998169"
     y="238.034"
     id="rect6009"
     style="color:#000000;fill:#60553f;stroke:#777777;stroke-width:0.2;stroke-linejoin:round" />
  <metadata
     id="metadata3012">
    <rdf:RDF>
      <cc:Work>
        <dc:format>image/svg+xml</dc:format>
        <dc:type
           rdf:resource="http://purl.org/dc/dcmitype/StillImage" />
        <cc:license
           rdf:resource="http://creativecommons.org/licenses/publicdomain/" />
        <dc:publisher>
          <cc:Agent
             rdf:about="http://openclipart.org/">
            <dc:title>Openclipart</dc:title>
          </cc:Agent>
        </dc:publisher>
        <dc:title></dc:title>
        <dc:date>2010-04-21T03:43:54</dc:date>
        <dc:description>A blackboard with chalk and eraser. Drawn in Inkscape.</dc:description>
        <dc:source>http://openclipart.org/detail/49363/blackboard-by-j_alves</dc:source>
        <dc:creator>
          <cc:Agent>
            <dc:title>J_Alves</dc:title>
          </cc:Agent>
        </dc:creator>
        <dc:subject>
          <rdf:Bag>
            <rdf:li>blackboard</rdf:li>
            <rdf:li>chalk</rdf:li>
            <rdf:li>chalkboard</rdf:li>
            <rdf:li>clip art</rdf:li>
            <rdf:li>clipart</rdf:li>
            <rdf:li>education</rdf:li>
            <rdf:li>school</rdf:li>
          </rdf:Bag>
        </dc:subject>
      </cc:Work>
      <cc:License
         rdf:about="http://creativecommons.org/licenses/publicdomain/">
        <cc:permits
           rdf:resource="http://creativecommons.org/ns#Reproduction" />
        <cc:permits
           rdf:resource="http://creativecommons.org/ns#Distribution" />
        <cc:permits
           rdf:resource="http://creativecommons.org/ns#DerivativeWorks" />
      </cc:License>
    </rdf:RDF>
  </metadata>
  <text
     x="46.113976"
     y="53.799641"
     transform="translate(0,-5.2143877e-6)"
     id="text3024"
     xml:space="preserve"
     style="font-size:56px;font-style:normal;font-variant:normal;font-weight:normal;font-stretch:normal;text-align:start;line-height:125%;letter-spacing:0px;word-spacing:0px;writing-mode:lr-tb;text-anchor:start;fill:#000000;fill-opacity:1;stroke:none;font-family:Open Sans;-inkscape-font-specification:Open Sans"><tspan
       x="46.113976"
       y="53.799641"
       id="tspan3026" /></text>
  <g
     id="text3032"
     style="font-size:56px;font-style:normal;font-variant:normal;font-weight:normal;font-stretch:normal;text-align:start;line-height:125%;letter-spacing:0px;word-spacing:0px;writing-mode:lr-tb;text-anchor:start;fill:#cccccc;fill-opacity:1;stroke:none;font-family:Open Sans;-inkscape-font-specification:Open Sans">
    <path
       d="m 52.447968,45.904564 c -5.020855,4.1e-5 -8.989601,1.677123 -11.90625,5.03125 -2.895845,3.333366 -4.34376,7.906279 -4.34375,13.71875 -1e-5,5.979183 1.395822,10.604179 4.1875,13.875 2.812483,3.250006 6.812479,4.875004 12,4.875 3.187471,4e-6 6.822884,-0.572912 10.90625,-1.71875 l 0,4.65625 c -3.166701,1.1875 -7.072947,1.781249 -11.71875,1.78125 -6.729185,-10e-7 -11.927097,-2.041665 -15.59375,-6.125 -3.64584,-4.083324 -5.468754,-9.885401 -5.46875,-17.40625 -4e-6,-4.708306 0.874995,-8.833302 2.625,-12.375 1.770825,-3.541628 4.312489,-6.270792 7.625,-8.1875 3.333315,-1.916621 7.249978,-2.874954 11.75,-2.875 4.791635,4.6e-5 8.979131,0.875045 12.5625,2.625 l -2.25,4.5625 c -3.458367,-1.624959 -6.916696,-2.437459 -10.375,-2.4375"
       id="path3241"
       style="font-size:64px;letter-spacing:1.25px;word-spacing:5px" />
    <path
       d="m 94.791718,87.498314 -1.03125,-4.875 -0.25,0 c -1.708357,2.145836 -3.416689,3.604168 -5.125,4.375 -1.687519,0.75 -3.8021,1.124999 -6.34375,1.125 -3.395844,-10e-7 -6.062508,-0.875 -8,-2.625 -1.916671,-1.749996 -2.875003,-4.239577 -2.875,-7.46875 -3e-6,-6.91665 5.531241,-10.541647 16.59375,-10.875 l 5.8125,-0.1875 0,-2.125 c -2.6e-5,-2.687475 -0.583359,-4.666639 -1.75,-5.9375 -1.145856,-1.291637 -2.989604,-1.93747 -5.53125,-1.9375 -2.854182,3e-5 -6.083346,0.87503 -9.6875,2.625 l -1.59375,-3.96875 c 1.687491,-0.916634 3.531239,-1.635383 5.53125,-2.15625 2.020819,-0.520799 4.04165,-0.781215 6.0625,-0.78125 4.08331,3.5e-5 7.104141,0.906284 9.0625,2.71875 1.979137,1.81253 2.968719,4.718777 2.96875,8.71875 l 0,23.375 -3.84375,0 m -11.71875,-3.65625 c 3.229148,4e-6 5.760396,-0.885412 7.59375,-2.65625 1.854142,-1.770825 2.781224,-4.24999 2.78125,-7.4375 l 0,-3.09375 -5.1875,0.21875 c -4.125016,0.14585 -7.10418,0.791682 -8.9375,1.9375 -1.81251,1.125013 -2.718759,2.885428 -2.71875,5.28125 -9e-6,1.875007 0.562491,3.302089 1.6875,4.28125 1.145822,0.979171 2.73957,1.468754 4.78125,1.46875"
       id="path3243"
       style="font-size:64px;letter-spacing:1.25px;word-spacing:5px" />
    <path
       d="m 134.04172,87.498314 0,-22.15625 c -3e-5,-2.791642 -0.63545,-4.874973 -1.90625,-6.25 -1.27086,-1.37497 -3.26044,-2.06247 -5.96875,-2.0625 -3.58335,3e-5 -6.20835,0.968779 -7.875,2.90625 -1.66668,1.937526 -2.50001,5.135439 -2.5,9.59375 l 0,17.96875 -5.1875,0 0,-34.25 4.21875,0 0.84375,4.6875 0.25,0 c 1.06249,-1.687469 2.55207,-2.989551 4.46875,-3.90625 1.91665,-0.937466 4.05206,-1.406215 6.40625,-1.40625 4.12497,3.5e-5 7.22914,1.000034 9.3125,3 2.0833,1.979196 3.12496,5.156277 3.125,9.53125 l 0,22.34375 -5.1875,0"
       id="path3245"
       style="font-size:64px;letter-spacing:1.25px;word-spacing:5px" />
    <path
       d="m 186.38547,64.654564 12.1875,-22.84375 5.75,0 -15.25,27.96875 0,17.71875 -5.375,0 0,-17.46875 -15.21875,-28.21875 5.8125,0 12.09375,22.84375"
       id="path3247"
       style="font-size:64px;letter-spacing:1.25px;word-spacing:5px" />
    <path
       d="m 237.54172,70.342064 c -4e-5,5.583345 -1.40629,9.947924 -4.21875,13.09375 -2.81253,3.125001 -6.69794,4.687499 -11.65625,4.6875 -3.06252,-10e-7 -5.78127,-0.71875 -8.15625,-2.15625 -2.37501,-1.437497 -4.20834,-3.499995 -5.5,-6.1875 -1.29167,-2.68749 -1.93751,-5.83332 -1.9375,-9.4375 -1e-5,-5.583311 1.39583,-9.927056 4.1875,-13.03125 2.79165,-3.124967 6.66665,-4.687465 11.625,-4.6875 4.79164,3.5e-5 8.59372,1.593783 11.40625,4.78125 2.8333,3.187527 4.24996,7.500022 4.25,12.9375 m -26.09375,0 c -1e-5,4.375013 0.87499,7.708343 2.625,10 1.74998,2.291671 4.3229,3.437504 7.71875,3.4375 3.39581,4e-6 5.96872,-1.135412 7.71875,-3.40625 1.7708,-2.291657 2.65622,-5.635404 2.65625,-10.03125 -3e-5,-4.354145 -0.88545,-7.656225 -2.65625,-9.90625 -1.75003,-2.270804 -4.34378,-3.40622 -7.78125,-3.40625 -3.39585,3e-5 -5.95835,1.114613 -7.6875,3.34375 -1.72918,2.229191 -2.59376,5.552105 -2.59375,9.96875"
       id="path3249"
       style="font-size:64px;letter-spacing:1.25px;word-spacing:5px" />
    <path
       d="m 252.72922,53.248314 0,22.21875 c -1e-5,2.791676 0.6354,4.875007 1.90625,6.25 1.27082,1.375004 3.2604,2.062504 5.96875,2.0625 3.58331,4e-6 6.19789,-0.979162 7.84375,-2.9375 1.66664,-1.958325 2.49997,-5.156238 2.5,-9.59375 l 0,-18 5.1875,0 0,34.25 -4.28125,0 -0.75,-4.59375 -0.28125,0 c -1.06253,1.687503 -2.5417,2.979168 -4.4375,3.875 -1.87502,0.895833 -4.02086,1.343749 -6.4375,1.34375 -4.16668,-10e-7 -7.29168,-0.989583 -9.375,-2.96875 -2.06251,-1.979162 -3.09376,-5.145826 -3.09375,-9.5 l 0,-22.40625 5.25,0"
       id="path3251"
       style="font-size:64px;letter-spacing:1.25px;word-spacing:5px" />
    <path
       d="m 312.01047,87.498314 0,-45.6875 5.3125,0 0,40.875 20.15625,0 0,4.8125 -25.46875,0"
       id="path3253"
       style="font-size:64px;letter-spacing:1.25px;word-spacing:5px" />
    <path
       d="m 375.29172,70.342064 c -4e-5,5.583345 -1.40629,9.947924 -4.21875,13.09375 -2.81253,3.125001 -6.69794,4.687499 -11.65625,4.6875 -3.06252,-10e-7 -5.78127,-0.71875 -8.15625,-2.15625 -2.37501,-1.437497 -4.20834,-3.499995 -5.5,-6.1875 -1.29167,-2.68749 -1.93751,-5.83332 -1.9375,-9.4375 -10e-6,-5.583311 1.39583,-9.927056 4.1875,-13.03125 2.79165,-3.124967 6.66665,-4.687465 11.625,-4.6875 4.79164,3.5e-5 8.59372,1.593783 11.40625,4.78125 2.8333,3.187527 4.24996,7.500022 4.25,12.9375 m -26.09375,0 c -10e-6,4.375013 0.87499,7.708343 2.625,10 1.74998,2.291671 4.3229,3.437504 7.71875,3.4375 3.39581,4e-6 5.96872,-1.135412 7.71875,-3.40625 1.7708,-2.291657 2.65622,-5.635404 2.65625,-10.03125 -3e-5,-4.354145 -0.88545,-7.656225 -2.65625,-9.90625 -1.75003,-2.270804 -4.34378,-3.40622 -7.78125,-3.40625 -3.39585,3e-5 -5.95835,1.114613 -7.6875,3.34375 -1.72918,2.229191 -2.59376,5.552105 -2.59375,9.96875"
       id="path3255"
       style="font-size:64px;letter-spacing:1.25px;word-spacing:5px" />
    <path
       d="m 407.69797,78.154564 c -3e-5,3.187506 -1.18753,5.645837 -3.5625,7.375 -2.37502,1.729167 -5.70835,2.593749 -10,2.59375 -4.54168,-10e-7 -8.08334,-0.71875 -10.625,-2.15625 l 0,-4.8125 c 1.64583,0.833339 3.40624,1.489588 5.28125,1.96875 1.89582,0.47917 3.71874,0.718754 5.46875,0.71875 2.70831,4e-6 4.79165,-0.427079 6.25,-1.28125 1.45831,-0.874994 2.18747,-2.19791 2.1875,-3.96875 -3e-5,-1.333323 -0.58336,-2.468739 -1.75,-3.40625 -1.14586,-0.95832 -3.39585,-2.083319 -6.75,-3.375 -3.18751,-1.187483 -5.45834,-2.218732 -6.8125,-3.09375 -1.33334,-0.895814 -2.33334,-1.906229 -3,-3.03125 -0.64584,-1.124977 -0.96876,-2.468726 -0.96875,-4.03125 -10e-6,-2.791638 1.13541,-4.989553 3.40625,-6.59375 2.27082,-1.624966 5.3854,-2.437465 9.34375,-2.4375 3.68748,3.5e-5 7.29164,0.750034 10.8125,2.25 l -1.84375,4.21875 c -3.43752,-1.416637 -6.5521,-2.12497 -9.34375,-2.125 -2.45835,3e-5 -4.31251,0.385447 -5.5625,1.15625 -1.25001,0.770862 -1.87501,1.833361 -1.875,3.1875 -10e-6,0.916692 0.22916,1.697941 0.6875,2.34375 0.47915,0.645856 1.23957,1.260439 2.28125,1.84375 1.04165,0.583355 3.04165,1.427104 6,2.53125 4.06248,1.479185 6.80206,2.968766 8.21875,4.46875 1.43747,1.500013 2.15622,3.385428 2.15625,5.65625"
       id="path3257"
       style="font-size:64px;letter-spacing:1.25px;word-spacing:5px" />
    <path
       d="m 431.82297,88.123314 c -5.06252,-10e-7 -9.06251,-1.541666 -12,-4.625 -2.91667,-3.083326 -4.37501,-7.364572 -4.375,-12.84375 -10e-6,-5.520811 1.35416,-9.906223 4.0625,-13.15625 2.72915,-3.249967 6.3854,-4.874965 10.96875,-4.875 4.29164,3.5e-5 7.68747,1.4167 10.1875,4.25 2.49997,2.812528 3.74996,6.531274 3.75,11.15625 l 0,3.28125 -23.59375,0 c 0.10416,4.020845 1.11457,7.072926 3.03125,9.15625 1.93748,2.083338 4.65623,3.125004 8.15625,3.125 3.68747,4e-6 7.3333,-0.770829 10.9375,-2.3125 l 0,4.625 c -1.83337,0.791667 -3.57295,1.354167 -5.21875,1.6875 -1.62503,0.354166 -3.59377,0.531249 -5.90625,0.53125 m -1.40625,-31.15625 c -2.75002,3e-5 -4.94793,0.895863 -6.59375,2.6875 -1.62501,1.791693 -2.58335,4.270857 -2.875,7.4375 l 17.90625,0 c -3e-5,-3.27081 -0.7292,-5.770807 -2.1875,-7.5 -1.45836,-1.74997 -3.54169,-2.62497 -6.25,-2.625"
       id="path3259"
       style="font-size:64px;letter-spacing:1.25px;word-spacing:5px" />
  </g>
  <g
     id="text3036"
     style="font-size:56px;font-style:normal;font-variant:normal;font-weight:normal;font-stretch:normal;text-align:start;line-height:125%;letter-spacing:0px;word-spacing:0px;writing-mode:lr-tb;text-anchor:start;fill:#cccccc;fill-opacity:1;stroke:none;font-family:Open Sans;-inkscape-font-specification:Open Sans">
    <path
       d="m 48.775436,151.46112 10.664063,-19.98828 5.03125,0 -13.34375,24.47266 0,15.5039 -4.703125,0 0,-15.28515 -13.316406,-24.69141 5.085937,0 10.582031,19.98828"
       id="path3262"
       style="letter-spacing:1.25px;word-spacing:5px" />
    <path
       d="m 93.693405,156.43768 c -3.1e-5,4.88543 -1.230498,8.70444 -3.691406,11.45703 -2.460962,2.73438 -5.860698,4.10157 -10.199219,4.10157 -2.679701,0 -5.058605,-0.62891 -7.136719,-1.88672 -2.078132,-1.25781 -3.682297,-3.0625 -4.8125,-5.41406 -1.130212,-2.35156 -1.695315,-5.10416 -1.695312,-8.25782 -3e-6,-4.88539 1.22135,-8.68617 3.664062,-11.40234 2.442699,-2.73435 5.833321,-4.10153 10.171875,-4.10156 4.192688,3e-5 7.519507,1.39456 9.980469,4.18359 2.479137,2.78909 3.718719,6.56252 3.71875,11.32031 m -22.832031,0 c -8e-6,3.82814 0.765616,6.7448 2.296875,8.75 1.531238,2.00522 3.782538,3.00782 6.753906,3.00782 2.971334,0 5.222634,-0.99349 6.753906,-2.98047 1.549454,-2.0052 2.324193,-4.93098 2.324219,-8.77735 -2.6e-5,-3.80987 -0.774765,-6.69919 -2.324219,-8.66797 -1.531272,-1.98695 -3.800801,-2.98044 -6.808593,-2.98046 -2.971368,2e-5 -5.213554,0.97528 -6.726563,2.92578 -1.513029,1.95054 -2.269539,4.85809 -2.269531,8.72265"
       id="path3264"
       style="letter-spacing:1.25px;word-spacing:5px" />
    <path
       d="m 107.13872,141.48065 0,19.44141 c -1e-5,2.44271 0.55598,4.26563 1.66797,5.46875 1.11196,1.20313 2.85285,1.80469 5.22265,1.80469 3.1354,0 5.42316,-0.85677 6.86328,-2.57032 1.45831,-1.71353 2.18748,-4.51171 2.1875,-8.39453 l 0,-15.75 4.53907,0 0,29.96875 -3.7461,0 -0.65625,-4.01953 -0.24609,0 c -0.92971,1.47657 -2.22398,2.60677 -3.88281,3.39063 -1.64065,0.78385 -3.51825,1.17578 -5.63282,1.17578 -3.64584,0 -6.38021,-0.86589 -8.20312,-2.59766 -1.80469,-1.73177 -2.70704,-4.5026 -2.70703,-8.3125 l 0,-19.60547 4.59375,0"
       id="path3266"
       style="letter-spacing:1.25px;word-spacing:5px" />
    <path
       d="m 152.13872,140.93378 c 1.33071,3e-5 2.52472,0.1094 3.58203,0.32812 l -0.62891,4.21094 c -1.2396,-0.27341 -2.33335,-0.41013 -3.28125,-0.41016 -2.42449,3e-5 -4.50262,0.9844 -6.23437,2.95313 -1.71355,1.96877 -2.57032,4.42059 -2.57031,7.35547 l 0,16.07812 -4.53907,0 0,-29.96875 3.7461,0 0.51953,5.55078 0.21875,0 c 1.11197,-1.95049 2.45181,-3.4544 4.01953,-4.51172 1.56769,-1.05726 3.29035,-1.5859 5.16797,-1.58593"
       id="path3268"
       style="letter-spacing:1.25px;word-spacing:5px" />
    <path
       d="m 206.61528,160.81268 c -3e-5,3.51824 -1.27607,6.26173 -3.82812,8.23047 -2.55211,1.96875 -6.01565,2.95313 -10.39063,2.95313 -4.73959,0 -8.38542,-0.61068 -10.9375,-1.83203 l 0,-4.48438 c 1.64062,0.69271 3.42708,1.23959 5.35938,1.64063 1.93228,0.40104 3.84634,0.60156 5.74218,0.60156 3.09894,0 5.43227,-0.58333 7,-1.75 1.56769,-1.18489 2.35154,-2.82551 2.35157,-4.92188 -3e-5,-1.3854 -0.28258,-2.51561 -0.84766,-3.39062 -0.5469,-0.89322 -1.47658,-1.71353 -2.78906,-2.46094 -1.29429,-0.74738 -3.27216,-1.59503 -5.9336,-2.54297 -3.71876,-1.33071 -6.38021,-2.90753 -7.98437,-4.73047 -1.58594,-1.82289 -2.37891,-4.20179 -2.37891,-7.13672 0,-3.08069 1.15755,-5.53251 3.47266,-7.35546 2.31509,-1.82288 5.37759,-2.73434 9.1875,-2.73438 3.97394,4e-5 7.62888,0.72921 10.96484,2.1875 l -1.44922,4.04688 c -3.2995,-1.38539 -6.50783,-2.07809 -9.625,-2.07813 -2.46095,4e-5 -4.38412,0.52868 -5.76953,1.58594 -1.38542,1.05732 -2.07813,2.52477 -2.07812,4.40234 -1e-5,1.38545 0.2552,2.52477 0.76562,3.41797 0.51041,0.87503 1.36718,1.68622 2.57031,2.43359 1.22135,0.72919 3.08072,1.54039 5.57813,2.4336 4.19269,1.49481 7.07289,3.09898 8.64062,4.8125 1.58591,1.71356 2.37888,3.93751 2.37891,6.67187"
       id="path3270"
       style="letter-spacing:1.25px;word-spacing:5px" />
    <path
       d="m 233.78716,171.4494 -0.90235,-4.26562 -0.21875,0 c -1.49481,1.8776 -2.9896,3.15364 -4.48437,3.82812 -1.47658,0.65625 -3.32684,0.98438 -5.55078,0.98438 -2.97137,0 -5.3047,-0.76563 -7,-2.29688 -1.67709,-1.53124 -2.51563,-3.70963 -2.51563,-6.53515 0,-6.05207 4.83984,-9.22395 14.51953,-9.51563 l 5.08594,-0.16406 0,-1.85938 c -2e-5,-2.35154 -0.51044,-4.08331 -1.53125,-5.19531 -1.00262,-1.13018 -2.6159,-1.69529 -4.83984,-1.69531 -2.49741,2e-5 -5.32293,0.76565 -8.47657,2.29687 l -1.39453,-3.47265 c 1.47656,-0.80206 3.08984,-1.43096 4.83985,-1.88672 1.76821,-0.4557 3.53644,-0.68357 5.30468,-0.6836 3.5729,3e-5 6.21613,0.793 7.92969,2.37891 1.73175,1.58596 2.59763,4.12893 2.59766,7.62891 l 0,20.45312 -3.36328,0 m -10.25391,-3.19922 c 2.8255,1e-5 5.04035,-0.77473 6.64453,-2.32422 1.62237,-1.54947 2.43357,-3.71874 2.43359,-6.50781 l 0,-2.70703 -4.53906,0.19141 c -3.60939,0.12762 -6.21616,0.69272 -7.82031,1.69531 -1.58595,0.98439 -2.37891,2.52475 -2.37891,4.62109 0,1.64063 0.49218,2.88933 1.47657,3.7461 1.00259,0.85677 2.39712,1.28516 4.18359,1.28515"
       id="path3272"
       style="letter-spacing:1.25px;word-spacing:5px" />
    <path
       d="m 252.31841,171.4494 -4.53907,0 0,-42.54687 4.53907,0 0,42.54687"
       id="path3274"
       style="letter-spacing:1.25px;word-spacing:5px" />
    <path
       d="m 269.81059,171.4494 -11.375,-29.96875 4.86719,0 6.45313,17.77344 c 1.45832,4.15626 2.31509,6.85417 2.57031,8.09375 l 0.21875,0 c 0.2005,-0.96614 0.82941,-2.96223 1.88672,-5.98828 1.0755,-3.04426 3.47263,-9.67056 7.1914,-19.87891 l 4.86719,0 -11.375,29.96875 -5.30469,0"
       id="path3276"
       style="letter-spacing:1.25px;word-spacing:5px" />
    <path
       d="m 311.03716,171.4494 -0.90235,-4.26562 -0.21875,0 c -1.49481,1.8776 -2.9896,3.15364 -4.48437,3.82812 -1.47658,0.65625 -3.32684,0.98438 -5.55078,0.98438 -2.97137,0 -5.3047,-0.76563 -7,-2.29688 -1.67709,-1.53124 -2.51563,-3.70963 -2.51563,-6.53515 0,-6.05207 4.83984,-9.22395 14.51953,-9.51563 l 5.08594,-0.16406 0,-1.85938 c -2e-5,-2.35154 -0.51044,-4.08331 -1.53125,-5.19531 -1.00262,-1.13018 -2.6159,-1.69529 -4.83984,-1.69531 -2.49741,2e-5 -5.32293,0.76565 -8.47657,2.29687 l -1.39453,-3.47265 c 1.47656,-0.80206 3.08984,-1.43096 4.83985,-1.88672 1.76821,-0.4557 3.53644,-0.68357 5.30468,-0.6836 3.5729,3e-5 6.21613,0.793 7.92969,2.37891 1.73175,1.58596 2.59763,4.12893 2.59766,7.62891 l 0,20.45312 -3.36328,0 m -10.25391,-3.19922 c 2.8255,1e-5 5.04035,-0.77473 6.64453,-2.32422 1.62237,-1.54947 2.43357,-3.71874 2.43359,-6.50781 l 0,-2.70703 -4.53906,0.19141 c -3.60939,0.12762 -6.21616,0.69272 -7.82031,1.69531 -1.58595,0.98439 -2.37891,2.52475 -2.37891,4.62109 0,1.64063 0.49218,2.88933 1.47657,3.7461 1.00259,0.85677 2.39712,1.28516 4.18359,1.28515"
       id="path3278"
       style="letter-spacing:1.25px;word-spacing:5px" />
    <path
       d="m 334.70903,168.25018 c 0.80207,1e-5 1.57681,-0.0547 2.32422,-0.16406 0.74738,-0.1276 1.33982,-0.2552 1.77734,-0.38281 l 0,3.47265 c -0.4922,0.23698 -1.22137,0.42839 -2.1875,0.57422 -0.94793,0.16407 -1.8047,0.2461 -2.57031,0.2461 -5.79688,0 -8.69532,-3.05339 -8.69531,-9.16016 l 0,-17.82812 -4.29297,0 0,-2.1875 4.29297,-1.88672 1.91406,-6.39844 2.625,0 0,6.94531 8.69531,0 0,3.52735 -8.69531,0 0,17.63671 c -10e-6,1.8047 0.42838,3.19011 1.28516,4.15625 0.85676,0.96615 2.03254,1.44923 3.52734,1.44922"
       id="path3280"
       style="letter-spacing:1.25px;word-spacing:5px" />
    <path
       d="m 350.61528,171.4494 -4.53906,0 0,-29.96875 4.53906,0 0,29.96875 m -4.92187,-38.08984 c -10e-6,-1.03903 0.2552,-1.79553 0.76562,-2.26953 0.51041,-0.49215 1.14843,-0.73824 1.91406,-0.73828 0.72916,4e-5 1.35807,0.24613 1.88672,0.73828 0.52864,0.49222 0.79296,1.24873 0.79297,2.26953 -10e-6,1.02087 -0.26433,1.78649 -0.79297,2.29687 -0.52865,0.49223 -1.15756,0.73832 -1.88672,0.73828 -0.76563,4e-5 -1.40365,-0.24605 -1.91406,-0.73828 -0.51042,-0.51038 -0.76563,-1.276 -0.76562,-2.29687"
       id="path3282"
       style="letter-spacing:1.25px;word-spacing:5px" />
    <path
       d="m 387.41216,156.43768 c -4e-5,4.88543 -1.2305,8.70444 -3.69141,11.45703 -2.46096,2.73438 -5.8607,4.10157 -10.19922,4.10157 -2.6797,0 -5.05861,-0.62891 -7.13672,-1.88672 -2.07813,-1.25781 -3.6823,-3.0625 -4.8125,-5.41406 -1.13021,-2.35156 -1.69531,-5.10416 -1.69531,-8.25782 0,-4.88539 1.22135,-8.68617 3.66406,-11.40234 2.4427,-2.73435 5.83332,-4.10153 10.17188,-4.10156 4.19268,3e-5 7.5195,1.39456 9.98047,4.18359 2.47913,2.78909 3.71871,6.56252 3.71875,11.32031 m -22.83204,0 c 0,3.82814 0.76562,6.7448 2.29688,8.75 1.53124,2.00522 3.78254,3.00782 6.75391,3.00782 2.97133,0 5.22263,-0.99349 6.7539,-2.98047 1.54946,-2.0052 2.32419,-4.93098 2.32422,-8.77735 -3e-5,-3.80987 -0.77476,-6.69919 -2.32422,-8.66797 -1.53127,-1.98695 -3.8008,-2.98044 -6.80859,-2.98046 -2.97137,2e-5 -5.21356,0.97528 -6.72656,2.92578 -1.51303,1.95054 -2.26954,4.85809 -2.26954,8.72265"
       id="path3284"
       style="letter-spacing:1.25px;word-spacing:5px" />
    <path
       d="m 417.09966,171.4494 0,-19.38672 c -3e-5,-2.44268 -0.55602,-4.2656 -1.66797,-5.46875 -1.11201,-1.2031 -2.85289,-1.80466 -5.22266,-1.80468 -3.13543,2e-5 -5.4323,0.84768 -6.89062,2.54296 -1.45835,1.69534 -2.18751,4.49351 -2.1875,8.39454 l 0,15.72265 -4.53907,0 0,-29.96875 3.69141,0 0.73828,4.10156 0.21875,0 c 0.92968,-1.47653 2.23306,-2.61585 3.91016,-3.41796 1.67706,-0.82029 3.54555,-1.23044 5.60547,-1.23047 3.60935,3e-5 6.32549,0.87503 8.14843,2.625 1.82289,1.73179 2.73435,4.51174 2.73438,8.33984 l 0,19.55078 -4.53906,0"
       id="path3286"
       style="letter-spacing:1.25px;word-spacing:5px" />
    <path
       d="m 435.27544,160.42987 0,-1.47656 c -1e-5,-2.1328 0.32811,-3.8828 0.98437,-5.25 0.65624,-1.3854 1.87759,-2.84373 3.66406,-4.375 2.47916,-2.09633 4.03775,-3.67315 4.67579,-4.73047 0.65623,-1.05726 0.98435,-2.3333 0.98437,-3.82813 -2e-5,-1.85934 -0.60158,-3.29033 -1.80469,-4.29296 -1.18491,-1.0208 -2.89845,-1.53122 -5.14062,-1.53125 -1.44012,3e-5 -2.84376,0.17321 -4.21094,0.51953 -1.36719,0.32816 -2.9349,0.93883 -4.70312,1.83203 l -1.61329,-3.69141 c 3.44531,-1.80465 7.04557,-2.70699 10.80079,-2.70703 3.48175,4e-5 6.18878,0.85681 8.12109,2.57031 1.93227,1.71358 2.89841,4.12894 2.89844,7.2461 -3e-5,1.33076 -0.18232,2.50654 -0.54688,3.52734 -0.34637,1.00263 -0.86591,1.95966 -1.55859,2.87109 -0.69273,0.89326 -2.18752,2.34247 -4.48438,4.34766 -1.84116,1.56773 -3.06251,2.87111 -3.66406,3.91016 -0.58334,1.03907 -0.87501,2.42449 -0.875,4.15625 l 0,0.90234 -3.52734,0 m -1.33985,8.12109 c 0,-2.47916 1.09374,-3.71874 3.28125,-3.71875 1.05728,1e-5 1.86848,0.31902 2.4336,0.95704 0.58332,0.63802 0.87498,1.55859 0.875,2.76171 -2e-5,1.16667 -0.29168,2.07813 -0.875,2.73438 -0.58335,0.63802 -1.39455,0.95703 -2.4336,0.95703 -0.94792,0 -1.73178,-0.28255 -2.35156,-0.84766 -0.6198,-0.58333 -0.92969,-1.53124 -0.92969,-2.84375"
       id="path3288"
       style="letter-spacing:1.25px;word-spacing:5px" />
  </g>
</svg>
