<?xml version="1.0" encoding="UTF-8" standalone="no"?>
<!-- Created with Inkscape (http://www.inkscape.org/) -->

<svg
   xmlns:dc="http://purl.org/dc/elements/1.1/"
   xmlns:cc="http://creativecommons.org/ns#"
   xmlns:rdf="http://www.w3.org/1999/02/22-rdf-syntax-ns#"
   xmlns:svg="http://www.w3.org/2000/svg"
   xmlns="http://www.w3.org/2000/svg"
   xmlns:xlink="http://www.w3.org/1999/xlink"
   version="1.1"
   width="100%"
   height="100%"
   viewBox="0 0 484.71 245.35"
   id="svg5444">
  <defs
     id="defs5446">
    <linearGradient
       x1="125.89"
       y1="286.38"
       x2="569.34998"
       y2="130.07001"
       id="linearGradient7215"
       gradientUnits="userSpaceOnUse">
      <stop
         id="stop7035"
         style="stop-color:#867850;stop-opacity:1"
         offset="0" />
      <stop
         id="stop7041"
         style="stop-color:#a08872;stop-opacity:1"
         offset="0.35473999" />
      <stop
         id="stop7037"
         style="stop-color:#867850;stop-opacity:1"
         offset="1" />
    </linearGradient>
    <linearGradient
       x1="412.44"
       y1="330.39001"
       x2="411.64001"
       y2="335.09"
       id="linearGradient7217"
       gradientUnits="userSpaceOnUse">
      <stop
         id="stop7104"
         style="stop-color:#b8b8b8;stop-opacity:1"
         offset="0" />
      <stop
         id="stop7110"
         style="stop-color:#e3e3e3;stop-opacity:1"
         offset="0.5" />
      <stop
         id="stop7106"
         style="stop-color:#b9b9b9;stop-opacity:1"
         offset="1" />
    </linearGradient>
    <linearGradient
       x1="412.44"
       y1="330.39001"
       x2="411.64001"
       y2="335.09"
       id="linearGradient7219"
       gradientUnits="userSpaceOnUse"
       gradientTransform="matrix(0.90747,-0.42013,0.42013,0.90747,-96.493,204.08)">
      <stop
         id="stop7104-7"
         style="stop-color:#b8b8b8;stop-opacity:1"
         offset="0" />
      <stop
         id="stop7110-8"
         style="stop-color:#e3e3e3;stop-opacity:1"
         offset="0.5" />
      <stop
         id="stop7106-8"
         style="stop-color:#b9b9b9;stop-opacity:1"
         offset="1" />
    </linearGradient>
    <linearGradient
       x1="412.44"
       y1="330.39001"
       x2="411.64001"
       y2="335.09"
       id="linearGradient7221"
       gradientUnits="userSpaceOnUse"
       gradientTransform="matrix(-0.96884,-0.24771,0.24771,-0.96884,748.05,756.69)">
      <stop
         id="stop7104-5"
         style="stop-color:#b8b8b8;stop-opacity:1"
         offset="0" />
      <stop
         id="stop7110-4"
         style="stop-color:#e3e3e3;stop-opacity:1"
         offset="0.5" />
      <stop
         id="stop7106-1"
         style="stop-color:#b9b9b9;stop-opacity:1"
         offset="1" />
    </linearGradient>
    <linearGradient
       x1="125.89"
       y1="286.38"
       x2="569.34998"
       y2="130.07001"
       id="linearGradient3024"
       xlink:href="#linearGradient7215"
       gradientUnits="userSpaceOnUse" />
    <linearGradient
       x1="412.44"
       y1="330.39001"
       x2="411.64001"
       y2="335.09"
       id="linearGradient3026"
       xlink:href="#linearGradient7217"
       gradientUnits="userSpaceOnUse" />
    <linearGradient
       x1="412.44"
       y1="330.39001"
       x2="411.64001"
       y2="335.09"
       id="linearGradient3028"
       xlink:href="#linearGradient7219"
       gradientUnits="userSpaceOnUse"
       gradientTransform="matrix(0.90747,-0.42013,0.42013,0.90747,-96.493,204.08)" />
    <linearGradient
       x1="412.44"
       y1="330.39001"
       x2="411.64001"
       y2="335.09"
       id="linearGradient3030"
       xlink:href="#linearGradient7221"
       gradientUnits="userSpaceOnUse"
       gradientTransform="matrix(-0.96884,-0.24771,0.24771,-0.96884,748.05,756.69)" />
    <linearGradient
       x1="412.44"
       y1="330.39001"
       x2="411.64001"
       y2="335.09"
       id="linearGradient3035"
       xlink:href="#linearGradient7221"
       gradientUnits="userSpaceOnUse"
       gradientTransform="matrix(-0.96884,-0.24771,0.24771,-0.96884,618.23,659.014)" />
    <linearGradient
       x1="412.44"
       y1="330.39001"
       x2="411.64001"
       y2="335.09"
       id="linearGradient3038"
       xlink:href="#linearGradient7219"
       gradientUnits="userSpaceOnUse"
       gradientTransform="matrix(0.90747,-0.42013,0.42013,0.90747,-226.313,106.404)" />
    <linearGradient
       x1="412.44"
       y1="330.39001"
       x2="411.64001"
       y2="335.09"
       id="linearGradient3041"
       xlink:href="#linearGradient7217"
       gradientUnits="userSpaceOnUse"
       gradientTransform="translate(-129.82,-97.676)" />
    <linearGradient
       x1="125.89"
       y1="286.38"
       x2="569.34998"
       y2="130.07001"
       id="linearGradient3045"
       xlink:href="#linearGradient7215"
       gradientUnits="userSpaceOnUse"
       gradientTransform="translate(-129.82,-97.676)" />
  </defs>
  <rect
     width="480.89999"
     height="244.50999"
     ry="3.8278999"
     x="1.9099957"
     y="0.10000098"
     id="rect5454"
     style="color:#000000;fill:url(#linearGradient3045);stroke:#777777;stroke-width:0.2;stroke-linejoin:round" />
  <rect
     width="452.51999"
     height="212.92999"
     ry="3.8278999"
     x="16.099998"
     y="11.834002"
     id="rect5454-1"
     style="color:#000000;fill:#444444;stroke:#777777;stroke-width:0.2;stroke-linejoin:round" />
  <rect
     width="484.51001"
     height="7.2179999"
     x="0.099998169"
     y="238.034"
     id="rect6009"
     style="color:#000000;fill:#60553f;stroke:#777777;stroke-width:0.2;stroke-linejoin:round" />
  <metadata
     id="metadata3012">
    <rdf:RDF>
      <cc:Work>
        <dc:format>image/svg+xml</dc:format>
        <dc:type
           rdf:resource="http://purl.org/dc/dcmitype/StillImage" />
        <cc:license
           rdf:resource="http://creativecommons.org/licenses/publicdomain/" />
        <dc:publisher>
          <cc:Agent
             rdf:about="http://openclipart.org/">
            <dc:title>Openclipart</dc:title>
          </cc:Agent>
        </dc:publisher>
        <dc:title></dc:title>
        <dc:date>2010-04-21T03:43:54</dc:date>
        <dc:description>A blackboard with chalk and eraser. Drawn in Inkscape.</dc:description>
        <dc:source>http://openclipart.org/detail/49363/blackboard-by-j_alves</dc:source>
        <dc:creator>
          <cc:Agent>
            <dc:title>J_Alves</dc:title>
          </cc:Agent>
        </dc:creator>
        <dc:subject>
          <rdf:Bag>
            <rdf:li>blackboard</rdf:li>
            <rdf:li>chalk</rdf:li>
            <rdf:li>chalkboard</rdf:li>
            <rdf:li>clip art</rdf:li>
            <rdf:li>clipart</rdf:li>
            <rdf:li>education</rdf:li>
            <rdf:li>school</rdf:li>
          </rdf:Bag>
        </dc:subject>
      </cc:Work>
      <cc:License
         rdf:about="http://creativecommons.org/licenses/publicdomain/">
        <cc:permits
           rdf:resource="http://creativecommons.org/ns#Reproduction" />
        <cc:permits
           rdf:resource="http://creativecommons.org/ns#Distribution" />
        <cc:permits
           rdf:resource="http://creativecommons.org/ns#DerivativeWorks" />
      </cc:License>
    </rdf:RDF>
  </metadata>
  <g
     id="text3139"
     style="font-size:56px;font-style:normal;font-variant:normal;font-weight:normal;font-stretch:normal;text-align:start;line-height:125%;letter-spacing:1.20000005px;word-spacing:5px;writing-mode:lr-tb;text-anchor:start;fill:#cccccc;fill-opacity:1;stroke:none;font-family:Open Sans;-inkscape-font-specification:Open Sans">
    <path
       d="m 201.78563,68.57975 -4.59375,0 -8.06641,-26.769531 c -0.38284,-1.184868 -0.81122,-2.679658 -1.28515,-4.484375 -0.47399,-1.804655 -0.72008,-2.889289 -0.73828,-3.253906 -0.40107,2.406282 -1.03909,5.040394 -1.91407,7.902343 l -7.82031,26.605469 -4.59375,0 -10.63672,-39.976562 4.92188,0 6.3164,24.691406 c 0.87499,3.463553 1.51301,6.598967 1.91407,9.40625 0.49217,-3.335928 1.22133,-6.598946 2.1875,-9.789063 l 7.16406,-24.308593 4.92187,0 7.51953,24.527343 c 0.87497,2.825534 1.61325,6.015635 2.21485,9.570313 0.34631,-2.588533 1.00256,-5.742176 1.96875,-9.460938 l 6.28906,-24.636718 4.92188,0 -10.69141,39.976562"
       id="path3291" />
    <path
       d="m 239.76297,68.57975 0,-19.386719 c -2e-5,-2.442686 -0.55601,-4.265601 -1.66796,-5.46875 -1.11201,-1.203099 -2.85289,-1.804661 -5.22266,-1.804687 -3.15366,2.6e-5 -5.45965,0.856796 -6.91797,2.570312 -1.44011,1.713564 -2.16017,4.520853 -2.16016,8.421875 l 0,15.667969 -4.53906,0 0,-42.546875 4.53906,0 0,12.878906 c -1e-5,1.549508 -0.0729,2.834663 -0.21875,3.855469 l 0.27344,0 c 0.89322,-1.440077 2.16015,-2.570284 3.80078,-3.390625 1.65884,-0.838512 3.54556,-1.257782 5.66016,-1.257812 3.66404,3e-5 6.40753,0.875029 8.23047,2.625 1.84111,1.731796 2.76169,4.493512 2.76172,8.285156 l 0,19.550781 -4.53907,0"
       id="path3293" />
    <path
       d="m 259.33797,68.57975 -4.53906,0 0,-29.96875 4.53906,0 0,29.96875 M 254.4161,30.489906 c 0,-1.039023 0.2552,-1.795533 0.76562,-2.269531 0.51042,-0.492147 1.14844,-0.73824 1.91407,-0.738281 0.72916,4.1e-5 1.35806,0.246134 1.88672,0.738281 0.52863,0.492227 0.79295,1.248737 0.79296,2.269531 -10e-6,1.020871 -0.26433,1.786495 -0.79296,2.296875 -0.52866,0.492223 -1.15756,0.738317 -1.88672,0.738282 -0.76563,3.5e-5 -1.40365,-0.246059 -1.91407,-0.738282 -0.51042,-0.51038 -0.76562,-1.276004 -0.76562,-2.296875"
       id="path3295" />
    <path
       d="m 282.19422,69.126625 c -4.33855,0 -7.70183,-1.330728 -10.08984,-3.992187 -2.3698,-2.679682 -3.55469,-6.46223 -3.55469,-11.347657 0,-5.013001 1.20312,-8.886695 3.60938,-11.621093 2.42447,-2.734346 5.86977,-4.101532 10.33593,-4.101563 1.44009,3.1e-5 2.88019,0.154978 4.32032,0.464844 1.44008,0.309925 2.57028,0.674508 3.39062,1.09375 l -1.39453,3.855469 c -1.00263,-0.401017 -2.09638,-0.729141 -3.28125,-0.984375 -1.18492,-0.273412 -2.23309,-0.41013 -3.14453,-0.410157 -6.08855,2.7e-5 -9.13282,3.882835 -9.13281,11.648438 -10e-6,3.682303 0.73827,6.507821 2.21484,8.476562 1.49478,1.968755 3.70051,2.953129 6.61719,2.953125 2.49737,4e-6 5.05857,-0.537756 7.68359,-1.613281 l 0,4.019531 c -2.00523,1.039063 -4.52997,1.558594 -7.57422,1.558594"
       id="path3297" />
    <path
       d="m 318.61298,68.57975 0,-19.386719 c -3e-5,-2.442686 -0.55602,-4.265601 -1.66797,-5.46875 -1.112,-1.203099 -2.85289,-1.804661 -5.22266,-1.804687 -3.15366,2.6e-5 -5.45965,0.856796 -6.91797,2.570312 -1.44011,1.713564 -2.16016,4.520853 -2.16015,8.421875 l 0,15.667969 -4.53907,0 0,-42.546875 4.53907,0 0,12.878906 c -10e-6,1.549508 -0.0729,2.834663 -0.21875,3.855469 l 0.27343,0 c 0.89322,-1.440077 2.16015,-2.570284 3.80078,-3.390625 1.65884,-0.838512 3.54556,-1.257782 5.66016,-1.257812 3.66404,3e-5 6.40753,0.875029 8.23047,2.625 1.84112,1.731796 2.76169,4.493512 2.76172,8.285156 l 0,19.550781 -4.53906,0"
       id="path3299" />
  </g>
  <text
     x="59.711685"
     y="86.315903"
     transform="translate(0,-5.2143877e-6)"
     id="text3143"
     xml:space="preserve"
     style="font-size:56px;font-style:normal;font-variant:normal;font-weight:normal;font-stretch:normal;text-align:start;line-height:125%;letter-spacing:1.20000005px;word-spacing:5px;writing-mode:lr-tb;text-anchor:start;fill:#000000;fill-opacity:1;stroke:none;font-family:Open Sans;-inkscape-font-specification:Open Sans"><tspan
       x="59.711685"
       y="86.315903"
       id="tspan3145" /></text>
  <g
     id="text3147"
     style="font-size:56px;font-style:normal;font-variant:normal;font-weight:normal;font-stretch:normal;text-align:start;line-height:125%;letter-spacing:1.20000005px;word-spacing:5px;writing-mode:lr-tb;text-anchor:start;fill:#cccccc;fill-opacity:1;stroke:none;font-family:Open Sans;-inkscape-font-specification:Open Sans">
    <path
       d="m 26.188261,93.635727 11.292969,0 c 5.304665,4e-5 9.141901,0.793008 11.511719,2.378906 2.369761,1.585974 3.554655,4.092477 3.554687,7.519527 -3.2e-5,2.36982 -0.665396,4.32946 -1.996094,5.87891 -1.312528,1.53127 -3.235703,2.52476 -5.769531,2.98047 l 0,0.27344 c 6.070282,1.03908 9.105436,4.22918 9.105469,9.57031 -3.3e-5,3.57292 -1.212272,6.36198 -3.636719,8.36719 -2.406277,2.00521 -5.77867,3.00781 -10.117187,3.00781 l -13.945313,0 0,-39.976563 m 4.648438,17.117183 7.65625,0 c 3.281228,3e-5 5.641903,-0.51039 7.082031,-1.53125 1.440078,-1.03903 2.160129,-2.77992 2.160156,-5.22265 -2.7e-5,-2.24216 -0.80211,-3.85544 -2.40625,-4.839846 -1.60419,-1.002568 -4.15627,-1.50387 -7.65625,-1.503906 l -6.835937,0 0,13.097652 m 0,3.9375 0,14.95704 8.339843,0 c 3.226541,0 5.651018,-0.61979 7.273438,-1.85938 1.640597,-1.2578 2.460909,-3.21744 2.460937,-5.87891 -2.8e-5,-2.47915 -0.838569,-4.30206 -2.515625,-5.46875 -1.658878,-1.16664 -4.19273,-1.74998 -7.601562,-1.75 l -7.957031,0"
       id="path3302"
       style="letter-spacing:0.20999999px;word-spacing:4.98000002px" />
    <path
       d="m 66.566229,133.61229 -4.539063,0 0,-29.96875 4.539063,0 0,29.96875 M 61.644354,95.522446 c -5e-6,-1.039024 0.255204,-1.795533 0.765625,-2.269532 0.510411,-0.492146 1.148431,-0.73824 1.914062,-0.738281 0.729159,4.1e-5 1.358065,0.246135 1.886719,0.738281 0.528636,0.492228 0.792959,1.248737 0.792969,2.269532 -1e-5,1.02087 -0.264333,1.786494 -0.792969,2.296875 -0.528654,0.492222 -1.15756,0.738316 -1.886719,0.738281 -0.765631,3.5e-5 -1.403651,-0.246059 -1.914062,-0.738281 -0.510421,-0.510381 -0.76563,-1.276005 -0.765625,-2.296875"
       id="path3304"
       style="letter-spacing:0.20999999px;word-spacing:4.98000002px" />
    <path
       d="m 90.401228,103.15135 c 3.937477,3e-5 6.99086,1.34899 9.160156,4.04688 2.187466,2.67971 3.281216,6.48049 3.281246,11.40234 -3e-5,4.92189 -1.10289,8.75001 -3.30859,11.48438 -2.187525,2.71614 -5.231793,4.07421 -9.132812,4.07421 -1.950538,0 -3.736994,-0.35546 -5.359375,-1.0664 -1.604179,-0.72917 -2.953135,-1.84115 -4.046875,-3.33594 l -0.328125,0 -0.957031,3.85547 -3.253907,0 0,-42.546876 4.539063,0 0,10.335936 c -9e-6,2.31514 -0.07293,4.39326 -0.21875,6.23438 l 0.21875,0 c 2.114572,-2.98956 5.249985,-4.48435 9.40625,-4.48438 m -0.65625,3.80078 c -3.098973,3e-5 -5.332044,0.89326 -6.699219,2.67969 -1.367197,1.76825 -2.05079,4.75783 -2.050781,8.96875 -9e-6,4.21095 0.701813,7.22787 2.105469,9.05078 1.403633,1.80469 3.654933,2.70704 6.753906,2.70703 2.789041,1e-5 4.867164,-1.01171 6.234375,-3.03515 1.367162,-2.04166 2.050755,-4.96744 2.050781,-8.77735 -2.6e-5,-3.90102 -0.683619,-6.80857 -2.050781,-8.72265 -1.367211,-1.91404 -3.481792,-2.87107 -6.34375,-2.8711"
       id="path3306"
       style="letter-spacing:0.20999999px;word-spacing:4.98000002px" />
    <path
       d="m 115.54873,133.61229 -4.53907,0 0,-42.546876 4.53907,0 0,42.546876"
       id="path3308"
       style="letter-spacing:0.20999999px;word-spacing:4.98000002px" />
    <path
       d="m 138.09857,134.15916 c -4.4297,0 -7.9297,-1.34895 -10.5,-4.04687 -2.55209,-2.69791 -3.82813,-6.444 -3.82813,-11.23828 0,-4.83071 1.1849,-8.66795 3.55469,-11.51172 2.38801,-2.84372 5.58723,-4.2656 9.59766,-4.26563 3.75519,3e-5 6.72654,1.23962 8.91406,3.71875 2.18747,2.46097 3.28122,5.71487 3.28125,9.76172 l 0,2.8711 -20.64453,0 c 0.0911,3.51824 0.97525,6.18881 2.65234,8.01172 1.6953,1.82292 4.07421,2.73437 7.13672,2.73437 3.22654,0 6.41664,-0.67447 9.57031,-2.02344 l 0,4.04688 c -1.60419,0.69271 -3.12632,1.18489 -4.5664,1.47656 -1.4219,0.3099 -3.14455,0.46484 -5.16797,0.46484 m -1.23047,-27.26171 c -2.40626,2e-5 -4.32944,0.78388 -5.76953,2.35156 -1.42188,1.56773 -2.26043,3.737 -2.51563,6.50781 l 15.66797,0 c -2e-5,-2.86196 -0.63804,-5.04946 -1.91406,-6.5625 -1.27606,-1.53122 -3.09898,-2.29685 -5.46875,-2.29687"
       id="path3310"
       style="letter-spacing:0.20999999px;word-spacing:4.98000002px" />
    <path
       d="m 189.7642,133.61229 -4.64843,0 0,-35.847657 -12.66016,0 0,-4.128906 29.96875,0 0,4.128906 -12.66016,0 0,35.847657"
       id="path3312"
       style="letter-spacing:0.20999999px;word-spacing:4.98000002px" />
    <path
       d="m 218.87654,103.09666 c 1.33071,3e-5 2.52472,0.10941 3.58203,0.32813 l -0.62891,4.21094 c -1.2396,-0.27341 -2.33335,-0.41013 -3.28125,-0.41016 -2.42449,3e-5 -4.50261,0.9844 -6.23437,2.95313 -1.71355,1.96877 -2.57032,4.42059 -2.57031,7.35546 l 0,16.07813 -4.53907,0 0,-29.96875 3.7461,0 0.51953,5.55078 0.21875,0 c 1.11197,-1.95049 2.45181,-3.4544 4.01953,-4.51172 1.56769,-1.05726 3.29035,-1.58591 5.16797,-1.58594"
       id="path3314"
       style="letter-spacing:0.20999999px;word-spacing:4.98000002px" />
    <path
       d="m 245.60998,133.61229 -0.90234,-4.26563 -0.21875,0 c -1.49481,1.87761 -2.9896,3.15365 -4.48438,3.82813 -1.47657,0.65625 -3.32683,0.98437 -5.55078,0.98437 -2.97136,0 -5.30469,-0.76562 -7,-2.29687 -1.67708,-1.53125 -2.51562,-3.70963 -2.51562,-6.53516 0,-6.05207 4.83983,-9.22394 14.51953,-9.51562 l 5.08594,-0.16406 0,-1.85938 c -2e-5,-2.35154 -0.51044,-4.08331 -1.53125,-5.19531 -1.00263,-1.13018 -2.61591,-1.69529 -4.83985,-1.69531 -2.49741,2e-5 -5.32292,0.76565 -8.47656,2.29687 l -1.39453,-3.47266 c 1.47655,-0.80205 3.08983,-1.43096 4.83984,-1.88671 1.76822,-0.4557 3.53645,-0.68357 5.30469,-0.6836 3.5729,3e-5 6.21612,0.793 7.92969,2.37891 1.73174,1.58596 2.59763,4.12893 2.59765,7.6289 l 0,20.45313 -3.36328,0 m -10.2539,-3.19922 c 2.8255,0 5.04034,-0.77473 6.64453,-2.32422 1.62237,-1.54947 2.43357,-3.71874 2.43359,-6.50781 l 0,-2.70703 -4.53906,0.1914 c -3.60939,0.12762 -6.21616,0.69273 -7.82031,1.69532 -1.58595,0.98438 -2.37892,2.52475 -2.37891,4.62109 -1e-5,1.64063 0.49218,2.88933 1.47656,3.74609 1.0026,0.85678 2.39713,1.28516 4.1836,1.28516"
       id="path3316"
       style="letter-spacing:0.20999999px;word-spacing:4.98000002px" />
    <path
       d="m 279.06997,133.61229 0,-19.38672 c -2e-5,-2.44269 -0.55601,-4.2656 -1.66796,-5.46875 -1.11201,-1.2031 -2.85289,-1.80466 -5.22266,-1.80469 -3.13543,3e-5 -5.4323,0.84769 -6.89063,2.54297 -1.45834,1.69534 -2.1875,4.49351 -2.1875,8.39453 l 0,15.72266 -4.53906,0 0,-29.96875 3.69141,0 0.73828,4.10156 0.21875,0 c 0.92968,-1.47653 2.23306,-2.61586 3.91016,-3.41797 1.67706,-0.82028 3.54555,-1.23044 5.60546,-1.23047 3.60936,3e-5 6.3255,0.87503 8.14844,2.625 1.82289,1.7318 2.73435,4.51175 2.73438,8.33985 l 0,19.55078 -4.53907,0"
       id="path3318"
       style="letter-spacing:0.20999999px;word-spacing:4.98000002px" />
    <path
       d="m 312.44794,125.43651 c -3e-5,2.78907 -1.03909,4.94011 -3.11719,6.45312 -2.07815,1.51302 -4.99481,2.26953 -8.75,2.26953 -3.97397,0 -7.07292,-0.6289 -9.29688,-1.88671 l 0,-4.21094 c 1.4401,0.72917 2.98047,1.30339 4.6211,1.72265 1.65884,0.41928 3.25389,0.62891 4.78515,0.62891 2.36978,0 4.19269,-0.37369 5.46875,-1.12109 1.27603,-0.76562 1.91405,-1.92317 1.91407,-3.47266 -2e-5,-1.16666 -0.51044,-2.16015 -1.53125,-2.98047 -1.00263,-0.83853 -2.97137,-1.8229 -5.90625,-2.95312 -2.78908,-1.03905 -4.77605,-1.94139 -5.96094,-2.70703 -1.16667,-0.78384 -2.04167,-1.66795 -2.625,-2.65235 -0.56511,-0.98435 -0.84766,-2.16013 -0.84766,-3.52734 0,-2.44269 0.99349,-4.36586 2.98047,-5.76953 1.98697,-1.42185 4.71223,-2.13279 8.17578,-2.13282 3.22655,3e-5 6.38019,0.65628 9.46094,1.96875 l -1.61328,3.69141 c -3.00783,-1.23956 -5.73309,-1.85935 -8.17578,-1.85937 -2.15106,2e-5 -3.77345,0.33726 -4.86719,1.01171 -1.09376,0.67451 -1.64063,1.6042 -1.64063,2.78907 0,0.8021 0.20052,1.4857 0.60157,2.05078 0.41926,0.56512 1.08462,1.10288 1.99609,1.61328 0.91145,0.51043 2.66145,1.24872 5.25,2.21484 3.55467,1.29429 5.9518,2.59767 7.19141,3.91016 1.25779,1.31251 1.88669,2.96225 1.88672,4.94922"
       id="path3320"
       style="letter-spacing:0.20999999px;word-spacing:4.98000002px" />
    <path
       d="m 324.55249,133.61229 -4.53906,0 0,-42.546876 4.53906,0 0,42.546876"
       id="path3322"
       style="letter-spacing:0.20999999px;word-spacing:4.98000002px" />
    <path
       d="m 352.87185,133.61229 -0.90234,-4.26563 -0.21875,0 c -1.49481,1.87761 -2.9896,3.15365 -4.48437,3.82813 -1.47658,0.65625 -3.32684,0.98437 -5.55079,0.98437 -2.97136,0 -5.30469,-0.76562 -7,-2.29687 -1.67708,-1.53125 -2.51562,-3.70963 -2.51562,-6.53516 0,-6.05207 4.83984,-9.22394 14.51953,-9.51562 l 5.08594,-0.16406 0,-1.85938 c -2e-5,-2.35154 -0.51044,-4.08331 -1.53125,-5.19531 -1.00263,-1.13018 -2.6159,-1.69529 -4.83985,-1.69531 -2.4974,2e-5 -5.32292,0.76565 -8.47656,2.29687 l -1.39453,-3.47266 c 1.47656,-0.80205 3.08984,-1.43096 4.83984,-1.88671 1.76822,-0.4557 3.53645,-0.68357 5.30469,-0.6836 3.5729,3e-5 6.21613,0.793 7.92969,2.37891 1.73174,1.58596 2.59763,4.12893 2.59766,7.6289 l 0,20.45313 -3.36329,0 m -10.2539,-3.19922 c 2.8255,0 5.04035,-0.77473 6.64453,-2.32422 1.62237,-1.54947 2.43357,-3.71874 2.43359,-6.50781 l 0,-2.70703 -4.53906,0.1914 c -3.60939,0.12762 -6.21616,0.69273 -7.82031,1.69532 -1.58595,0.98438 -2.37892,2.52475 -2.37891,4.62109 -10e-6,1.64063 0.49218,2.88933 1.47656,3.74609 1.0026,0.85678 2.39713,1.28516 4.1836,1.28516"
       id="path3324"
       style="letter-spacing:0.20999999px;word-spacing:4.98000002px" />
    <path
       d="m 375.50372,130.41307 c 0.80207,0 1.57681,-0.0547 2.32422,-0.16406 0.74738,-0.1276 1.33983,-0.25521 1.77734,-0.38281 l 0,3.47265 c -0.4922,0.23698 -1.22137,0.42839 -2.1875,0.57422 -0.94793,0.16406 -1.8047,0.24609 -2.57031,0.24609 -5.79688,0 -8.69532,-3.05338 -8.69531,-9.16015 l 0,-17.82813 -4.29297,0 0,-2.1875 4.29297,-1.88672 1.91406,-6.398433 2.625,0 0,6.945313 8.69531,0 0,3.52734 -8.69531,0 0,17.63672 c -10e-6,1.8047 0.42838,3.19011 1.28516,4.15625 0.85676,0.96615 2.03254,1.44922 3.52734,1.44922"
       id="path3326"
       style="letter-spacing:0.20999999px;word-spacing:4.98000002px" />
    <path
       d="m 390.36999,133.61229 -4.53906,0 0,-29.96875 4.53906,0 0,29.96875 m -4.92187,-38.089844 c -1e-5,-1.039024 0.2552,-1.795533 0.76562,-2.269532 0.51041,-0.492146 1.14843,-0.73824 1.91407,-0.738281 0.72915,4.1e-5 1.35806,0.246135 1.88671,0.738281 0.52864,0.492228 0.79296,1.248737 0.79297,2.269532 -10e-6,1.02087 -0.26433,1.786494 -0.79297,2.296875 -0.52865,0.492222 -1.15756,0.738316 -1.88671,0.738281 -0.76564,3.5e-5 -1.40366,-0.246059 -1.91407,-0.738281 -0.51042,-0.510381 -0.76563,-1.276005 -0.76562,-2.296875"
       id="path3328"
       style="letter-spacing:0.20999999px;word-spacing:4.98000002px" />
    <path
       d="m 426.12686,118.60057 c -3e-5,4.88543 -1.2305,8.70443 -3.69141,11.45703 -2.46096,2.73438 -5.86069,4.10156 -10.19922,4.10156 -2.6797,0 -5.0586,-0.6289 -7.13671,-1.88671 -2.07814,-1.25781 -3.6823,-3.0625 -4.8125,-5.41407 -1.13022,-2.35155 -1.69532,-5.10415 -1.69532,-8.25781 0,-4.8854 1.22135,-8.68617 3.66407,-11.40234 2.44269,-2.73435 5.83332,-4.10154 10.17187,-4.10157 4.19269,3e-5 7.51951,1.39456 9.98047,4.1836 2.47914,2.78908 3.71872,6.56252 3.71875,11.32031 m -22.83203,0 c -10e-6,3.82814 0.76561,6.7448 2.29687,8.75 1.53124,2.00521 3.78254,3.00782 6.75391,3.00781 2.97133,1e-5 5.22263,-0.99348 6.75391,-2.98047 1.54945,-2.0052 2.32419,-4.93097 2.32421,-8.77734 -2e-5,-3.80988 -0.77476,-6.6992 -2.32421,-8.66797 -1.53128,-1.98695 -3.80081,-2.98044 -6.8086,-2.98047 -2.97137,3e-5 -5.21355,0.97529 -6.72656,2.92578 -1.51303,1.95055 -2.26954,4.8581 -2.26953,8.72266"
       id="path3330"
       style="letter-spacing:0.20999999px;word-spacing:4.98000002px" />
    <path
       d="m 454.77435,133.61229 0,-19.38672 c -2e-5,-2.44269 -0.55601,-4.2656 -1.66797,-5.46875 -1.112,-1.2031 -2.85288,-1.80466 -5.22265,-1.80469 -3.13544,3e-5 -5.43231,0.84769 -6.89063,2.54297 -1.45834,1.69534 -2.18751,4.49351 -2.1875,8.39453 l 0,15.72266 -4.53906,0 0,-29.96875 3.6914,0 0.73829,4.10156 0.21875,0 c 0.92967,-1.47653 2.23306,-2.61586 3.91015,-3.41797 1.67707,-0.82028 3.54556,-1.23044 5.60547,-1.23047 3.60935,3e-5 6.3255,0.87503 8.14844,2.625 1.82289,1.7318 2.73434,4.51175 2.73437,8.33985 l 0,19.55078 -4.53906,0"
       id="path3332"
       style="letter-spacing:0.20999999px;word-spacing:4.98000002px" />
  </g>
  <text
     x="59.711685"
     y="123.56181"
     transform="translate(0,-5.2143877e-6)"
     id="text3151"
     xml:space="preserve"
     style="font-size:56px;font-style:normal;font-variant:normal;font-weight:normal;font-stretch:normal;text-align:start;line-height:125%;letter-spacing:1.20000005px;word-spacing:5px;writing-mode:lr-tb;text-anchor:start;fill:#000000;fill-opacity:1;stroke:none;font-family:Open Sans;-inkscape-font-specification:Open Sans"><tspan
       x="59.711685"
       y="123.56181"
       id="tspan3153" /></text>
  <g
     id="text3155"
     style="font-size:56px;font-style:normal;font-variant:normal;font-weight:normal;font-stretch:normal;text-align:start;line-height:125%;letter-spacing:1.20000005px;word-spacing:5px;writing-mode:lr-tb;text-anchor:start;fill:#cccccc;fill-opacity:1;stroke:none;font-family:Open Sans;-inkscape-font-specification:Open Sans">
    <path
       d="m 149.15886,204.55687 0,-39.97656 4.64844,0 0,39.97656 -4.64844,0"
       id="path3335" />
    <path
       d="m 184.64792,196.38109 c -2e-5,2.78907 -1.03908,4.94011 -3.11718,6.45312 -2.07815,1.51302 -4.99481,2.26953 -8.75,2.26953 -3.97397,0 -7.07293,-0.6289 -9.29688,-1.88671 l 0,-4.21094 c 1.4401,0.72917 2.98046,1.30339 4.62109,1.72265 1.65885,0.41928 3.2539,0.62891 4.78516,0.62891 2.36978,0 4.19269,-0.37369 5.46875,-1.12109 1.27602,-0.76562 1.91404,-1.92317 1.91406,-3.47266 -2e-5,-1.16666 -0.51043,-2.16015 -1.53125,-2.98047 -1.00262,-0.83853 -2.97137,-1.8229 -5.90625,-2.95312 -2.78907,-1.03905 -4.77605,-1.94139 -5.96093,-2.70703 -1.16668,-0.78384 -2.04168,-1.66795 -2.625,-2.65235 -0.56511,-0.98435 -0.84766,-2.16013 -0.84766,-3.52734 0,-2.44269 0.99348,-4.36586 2.98047,-5.76953 1.98697,-1.42185 4.71223,-2.13278 8.17578,-2.13282 3.22654,4e-5 6.38019,0.65628 9.46094,1.96875 l -1.61328,3.69141 c -3.00784,-1.23956 -5.73309,-1.85935 -8.17579,-1.85937 -2.15105,2e-5 -3.77344,0.33726 -4.86718,1.01171 -1.09376,0.67451 -1.64064,1.6042 -1.64063,2.78907 -1e-5,0.8021 0.20051,1.4857 0.60156,2.05078 0.41927,0.56512 1.08463,1.10288 1.9961,1.61328 0.91145,0.51043 2.66144,1.24872 5.25,2.21484 3.55467,1.29429 5.9518,2.59767 7.1914,3.91016 1.25779,1.31251 1.8867,2.96225 1.88672,4.94922"
       id="path3337" />
    <path
       d="m 214.63386,164.58031 11.29297,0 c 5.30466,4e-5 9.1419,0.793 11.51172,2.3789 2.36976,1.58598 3.55465,4.09248 3.55468,7.51953 -3e-5,2.36982 -0.66539,4.32946 -1.99609,5.87891 -1.31253,1.53127 -3.2357,2.52476 -5.76953,2.98047 l 0,0.27344 c 6.07028,1.03908 9.10543,4.22918 9.10547,9.57031 -4e-5,3.57292 -1.21228,6.36198 -3.63672,8.36719 -2.40628,2.00521 -5.77867,3.00781 -10.11719,3.00781 l -13.94531,0 0,-39.97656 m 4.64844,17.11718 7.65625,0 c 3.28122,3e-5 5.6419,-0.51039 7.08203,-1.53125 1.44007,-1.03903 2.16013,-2.77992 2.16015,-5.22265 -2e-5,-2.24216 -0.80211,-3.85544 -2.40625,-4.83985 -1.60419,-1.00256 -4.15627,-1.50387 -7.65625,-1.5039 l -6.83593,0 0,13.09765 m 0,3.9375 0,14.95704 8.33984,0 c 3.22654,0 5.65102,-0.61979 7.27344,-1.85938 1.64059,-1.2578 2.46091,-3.21744 2.46093,-5.87891 -2e-5,-2.47915 -0.83857,-4.30206 -2.51562,-5.46875 -1.65888,-1.16664 -4.19273,-1.74998 -7.60156,-1.75 l -7.95703,0"
       id="path3339" />
    <path
       d="m 264.12292,205.10374 c -4.4297,0 -7.92969,-1.34895 -10.5,-4.04687 -2.55208,-2.69791 -3.82812,-6.444 -3.82812,-11.23828 0,-4.83071 1.18489,-8.66795 3.55469,-11.51172 2.38801,-2.84372 5.58722,-4.26559 9.59765,-4.26563 3.75519,4e-5 6.72654,1.23962 8.91407,3.71875 2.18747,2.46097 3.28122,5.71487 3.28125,9.76172 l 0,2.8711 -20.64454,0 c 0.0911,3.51824 0.97526,6.18881 2.65235,8.01172 1.6953,1.82292 4.0742,2.73437 7.13672,2.73437 3.22654,0 6.41664,-0.67447 9.57031,-2.02344 l 0,4.04688 c -1.60419,0.69271 -3.12633,1.18489 -4.56641,1.47656 -1.42189,0.3099 -3.14455,0.46484 -5.16797,0.46484 m -1.23046,-27.26171 c -2.40627,2e-5 -4.32944,0.78388 -5.76954,2.35156 -1.42188,1.56773 -2.26042,3.737 -2.51562,6.50781 l 15.66797,0 c -3e-5,-2.86196 -0.63805,-5.04946 -1.91406,-6.5625 -1.27607,-1.53122 -3.09898,-2.29685 -5.46875,-2.29687"
       id="path3341" />
    <path
       d="m 303.38542,196.38109 c -2e-5,2.78907 -1.03908,4.94011 -3.11719,6.45312 -2.07814,1.51302 -4.9948,2.26953 -8.75,2.26953 -3.97396,0 -7.07292,-0.6289 -9.29687,-1.88671 l 0,-4.21094 c 1.4401,0.72917 2.98046,1.30339 4.62109,1.72265 1.65885,0.41928 3.2539,0.62891 4.78516,0.62891 2.36978,0 4.19269,-0.37369 5.46875,-1.12109 1.27602,-0.76562 1.91404,-1.92317 1.91406,-3.47266 -2e-5,-1.16666 -0.51043,-2.16015 -1.53125,-2.98047 -1.00262,-0.83853 -2.97137,-1.8229 -5.90625,-2.95312 -2.78907,-1.03905 -4.77605,-1.94139 -5.96094,-2.70703 -1.16667,-0.78384 -2.04167,-1.66795 -2.625,-2.65235 -0.5651,-0.98435 -0.84765,-2.16013 -0.84765,-3.52734 0,-2.44269 0.99348,-4.36586 2.98047,-5.76953 1.98697,-1.42185 4.71223,-2.13278 8.17578,-2.13282 3.22654,4e-5 6.38019,0.65628 9.46094,1.96875 l -1.61329,3.69141 c -3.00783,-1.23956 -5.73308,-1.85935 -8.17578,-1.85937 -2.15105,2e-5 -3.77344,0.33726 -4.86718,1.01171 -1.09376,0.67451 -1.64064,1.6042 -1.64063,2.78907 -10e-6,0.8021 0.20051,1.4857 0.60156,2.05078 0.41927,0.56512 1.08463,1.10288 1.9961,1.61328 0.91144,0.51043 2.66144,1.24872 5.25,2.21484 3.55467,1.29429 5.9518,2.59767 7.1914,3.91016 1.25779,1.31251 1.8867,2.96225 1.88672,4.94922"
       id="path3343" />
    <path
       d="m 321.62057,201.35765 c 0.80207,0 1.57681,-0.0547 2.32422,-0.16406 0.74738,-0.1276 1.33983,-0.25521 1.77735,-0.38281 l 0,3.47265 c -0.49221,0.23698 -1.22137,0.42839 -2.1875,0.57422 -0.94793,0.16406 -1.8047,0.24609 -2.57032,0.24609 -5.79688,0 -8.69531,-3.05338 -8.69531,-9.16015 l 0,-17.82813 -4.29297,0 0,-2.1875 4.29297,-1.88672 1.91406,-6.39843 2.625,0 0,6.94531 8.69532,0 0,3.52734 -8.69532,0 0,17.63672 c 0,1.8047 0.42838,3.19011 1.28516,4.15625 0.85676,0.96615 2.03254,1.44922 3.52734,1.44922"
       id="path3345" />
    <path
       d="m 336.0276,193.53734 0,-1.47656 c 0,-2.1328 0.32812,-3.8828 0.98438,-5.25 0.65624,-1.3854 1.87759,-2.84373 3.66406,-4.375 2.47915,-2.09633 4.03774,-3.67316 4.67578,-4.73047 0.65623,-1.05727 0.98436,-2.33331 0.98438,-3.82813 -2e-5,-1.85934 -0.60158,-3.29033 -1.80469,-4.29297 -1.18491,-1.02079 -2.89845,-1.53121 -5.14063,-1.53125 -1.44011,4e-5 -2.84375,0.17322 -4.21093,0.51953 -1.3672,0.32817 -2.9349,0.93884 -4.70313,1.83204 l -1.61328,-3.69141 c 3.44531,-1.80465 7.04557,-2.70699 10.80078,-2.70703 3.48176,4e-5 6.18879,0.85681 8.1211,2.57031 1.93227,1.71358 2.89841,4.12894 2.89843,7.24609 -2e-5,1.33076 -0.18231,2.50654 -0.54687,3.52735 -0.34638,1.00263 -0.86591,1.95966 -1.5586,2.87109 -0.69272,0.89325 -2.18751,2.34247 -4.48437,4.34766 -1.84116,1.56773 -3.06251,2.87111 -3.66406,3.91015 -0.58335,1.03908 -0.87501,2.4245 -0.875,4.15625 l 0,0.90235 -3.52735,0 m -1.33984,8.12109 c -1e-5,-2.47916 1.09374,-3.71874 3.28125,-3.71875 1.05728,1e-5 1.86848,0.31902 2.43359,0.95703 0.58332,0.63803 0.87499,1.5586 0.875,2.76172 -1e-5,1.16667 -0.29168,2.07813 -0.875,2.73438 -0.58334,0.63802 -1.39454,0.95703 -2.43359,0.95703 -0.94793,0 -1.73178,-0.28255 -2.35156,-0.84766 -0.6198,-0.58333 -0.9297,-1.53125 -0.92969,-2.84375"
       id="path3347" />
  </g>
</svg>
