<?xml version="1.0" encoding="UTF-8"?>
<!DOCTYPE svg PUBLIC "-//W3C//DTD SVG 1.1//EN" "http://www.w3.org/Graphics/SVG/1.1/DTD/svg11.dtd">
<svg version="1.1" xmlns="http://www.w3.org/2000/svg" xmlns:xlink="http://www.w3.org/1999/xlink" x="0" y="0" width="500" height="250" viewBox="0, 0, 500, 250">
  <g id="Layer_1">
    <path d="M31.833,60.56 L472.5,59.893" fill-opacity="0" stroke="#0C5631" stroke-width="6" stroke-linecap="square"/>
    <path d="M27.282,24.17 L21.991,24.17 L21.156,26.56 L17.755,26.56 L22.615,13.438 L26.649,13.438 L31.509,26.56 L28.108,26.56 z M22.835,21.735 L26.429,21.735 L24.636,16.514 z" fill="#191B1B"/>
    <path d="M43.006,20.566 L43.006,26.56 L39.841,26.56 L39.841,25.585 L39.841,21.972 Q39.841,20.698 39.784,20.214 Q39.727,19.731 39.587,19.503 Q39.402,19.195 39.086,19.024 Q38.769,18.852 38.365,18.852 Q37.381,18.852 36.818,19.612 Q36.256,20.373 36.256,21.717 L36.256,26.56 L33.109,26.56 L33.109,16.716 L36.256,16.716 L36.256,18.158 Q36.967,17.296 37.767,16.888 Q38.567,16.479 39.534,16.479 Q41.239,16.479 42.122,17.525 Q43.006,18.571 43.006,20.566 z" fill="#191B1B"/>
    <path d="M50.336,22.13 Q49.351,22.13 48.855,22.464 Q48.358,22.798 48.358,23.449 Q48.358,24.046 48.758,24.385 Q49.158,24.723 49.87,24.723 Q50.757,24.723 51.364,24.086 Q51.97,23.449 51.97,22.491 L51.97,22.13 z M55.143,20.944 L55.143,26.56 L51.97,26.56 L51.97,25.101 Q51.338,25.998 50.547,26.406 Q49.756,26.815 48.622,26.815 Q47.092,26.815 46.139,25.923 Q45.185,25.031 45.185,23.607 Q45.185,21.876 46.376,21.067 Q47.567,20.258 50.116,20.258 L51.97,20.258 L51.97,20.012 Q51.97,19.265 51.382,18.918 Q50.793,18.571 49.545,18.571 Q48.534,18.571 47.664,18.773 Q46.794,18.975 46.047,19.379 L46.047,16.98 Q47.057,16.734 48.077,16.607 Q49.096,16.479 50.116,16.479 Q52.779,16.479 53.961,17.529 Q55.143,18.58 55.143,20.944 z" fill="#191B1B"/>
    <path d="M65.382,19.397 Q64.969,19.204 64.561,19.111 Q64.152,19.019 63.739,19.019 Q62.526,19.019 61.871,19.797 Q61.216,20.575 61.216,22.025 L61.216,26.56 L58.07,26.56 L58.07,16.716 L61.216,16.716 L61.216,18.334 Q61.823,17.367 62.61,16.923 Q63.396,16.479 64.495,16.479 Q64.653,16.479 64.838,16.492 Q65.022,16.505 65.374,16.549 z" fill="#191B1B"/>
    <path d="M74.901,17.024 L74.901,19.59 Q74.259,19.151 73.613,18.94 Q72.967,18.729 72.273,18.729 Q70.955,18.729 70.221,19.498 Q69.487,20.267 69.487,21.647 Q69.487,23.027 70.221,23.796 Q70.955,24.565 72.273,24.565 Q73.011,24.565 73.675,24.345 Q74.339,24.126 74.901,23.695 L74.901,26.27 Q74.163,26.543 73.402,26.679 Q72.642,26.815 71.878,26.815 Q69.215,26.815 67.712,25.448 Q66.209,24.082 66.209,21.647 Q66.209,19.212 67.712,17.846 Q69.215,16.479 71.878,16.479 Q72.651,16.479 73.402,16.615 Q74.154,16.752 74.901,17.024 z" fill="#191B1B"/>
    <path d="M87.513,20.566 L87.513,26.56 L84.349,26.56 L84.349,25.585 L84.349,21.99 Q84.349,20.698 84.292,20.214 Q84.235,19.731 84.094,19.503 Q83.91,19.195 83.593,19.024 Q83.277,18.852 82.873,18.852 Q81.888,18.852 81.326,19.612 Q80.763,20.373 80.763,21.717 L80.763,26.56 L77.617,26.56 L77.617,12.884 L80.763,12.884 L80.763,18.158 Q81.475,17.296 82.275,16.888 Q83.075,16.479 84.042,16.479 Q85.747,16.479 86.63,17.525 Q87.513,18.571 87.513,20.566 z" fill="#191B1B"/>
    <path d="M89.139,16.716 L92.286,16.716 L94.931,23.396 L97.181,16.716 L100.328,16.716 L96.188,27.492 Q95.564,29.135 94.734,29.79 Q93.903,30.445 92.541,30.445 L90.721,30.445 L90.721,28.379 L91.706,28.379 Q92.506,28.379 92.87,28.125 Q93.235,27.87 93.437,27.211 L93.525,26.938 z" fill="#191B1B"/>
    <path d="M113.942,17.85 L117.537,21.805 Q118.003,21.19 118.244,20.425 Q118.486,19.661 118.53,18.694 L121.263,18.694 Q121.132,20.294 120.644,21.542 Q120.156,22.79 119.286,23.73 L121.861,26.56 L118.134,26.56 L117.273,25.602 Q116.35,26.217 115.331,26.516 Q114.311,26.815 113.169,26.815 Q110.857,26.815 109.429,25.598 Q108.001,24.38 108.001,22.456 Q108.001,21.172 108.629,20.184 Q109.257,19.195 110.681,18.263 Q110.312,17.797 110.136,17.332 Q109.961,16.866 109.961,16.356 Q109.961,14.923 111.077,14.062 Q112.193,13.201 114.048,13.201 Q114.847,13.201 115.713,13.328 Q116.579,13.456 117.519,13.711 L117.519,16.154 Q116.693,15.732 115.955,15.53 Q115.216,15.328 114.513,15.328 Q113.837,15.328 113.463,15.587 Q113.09,15.846 113.09,16.321 Q113.09,16.62 113.305,17.002 Q113.52,17.384 113.942,17.85 z M112.193,20.03 Q111.622,20.443 111.332,20.966 Q111.042,21.489 111.042,22.113 Q111.042,23.124 111.789,23.836 Q112.536,24.547 113.582,24.547 Q114.171,24.547 114.68,24.367 Q115.19,24.187 115.63,23.827 z" fill="#191B1B"/>
    <path d="M19.319,34.438 L28.451,34.438 L28.451,36.996 L22.703,36.996 L22.703,39.439 L28.108,39.439 L28.108,41.997 L22.703,41.997 L22.703,47.56 L19.319,47.56 z" fill="#191B1B"/>
    <path d="M37.635,40.397 Q37.222,40.204 36.814,40.111 Q36.405,40.019 35.992,40.019 Q34.779,40.019 34.124,40.797 Q33.469,41.575 33.469,43.025 L33.469,47.56 L30.323,47.56 L30.323,37.716 L33.469,37.716 L33.469,39.334 Q34.076,38.367 34.862,37.923 Q35.649,37.479 36.748,37.479 Q36.906,37.479 37.09,37.492 Q37.275,37.505 37.627,37.549 z" fill="#191B1B"/>
    <path d="M49.026,42.612 L49.026,43.508 L41.67,43.508 Q41.784,44.616 42.469,45.17 Q43.155,45.723 44.385,45.723 Q45.379,45.723 46.42,45.429 Q47.462,45.134 48.56,44.537 L48.56,46.963 Q47.444,47.384 46.328,47.6 Q45.212,47.815 44.095,47.815 Q41.423,47.815 39.943,46.457 Q38.462,45.099 38.462,42.647 Q38.462,40.239 39.916,38.859 Q41.371,37.479 43.92,37.479 Q46.24,37.479 47.633,38.877 Q49.026,40.274 49.026,42.612 z M45.792,41.566 Q45.792,40.67 45.269,40.12 Q44.746,39.571 43.902,39.571 Q42.988,39.571 42.417,40.085 Q41.845,40.599 41.705,41.566 z" fill="#191B1B"/>
    <path d="M61.234,42.612 L61.234,43.508 L53.878,43.508 Q53.992,44.616 54.677,45.17 Q55.363,45.723 56.593,45.723 Q57.587,45.723 58.628,45.429 Q59.67,45.134 60.768,44.537 L60.768,46.963 Q59.652,47.384 58.536,47.6 Q57.42,47.815 56.303,47.815 Q53.632,47.815 52.151,46.457 Q50.67,45.099 50.67,42.647 Q50.67,40.239 52.124,38.859 Q53.579,37.479 56.128,37.479 Q58.448,37.479 59.841,38.877 Q61.234,40.274 61.234,42.612 z M58,41.566 Q58,40.67 57.477,40.12 Q56.954,39.571 56.11,39.571 Q55.196,39.571 54.625,40.085 Q54.053,40.599 53.913,41.566 z" fill="#191B1B"/>
    <path d="M70.313,39.158 L70.313,33.884 L73.477,33.884 L73.477,47.56 L70.313,47.56 L70.313,46.136 Q69.663,47.006 68.881,47.411 Q68.098,47.815 67.07,47.815 Q65.251,47.815 64.082,46.369 Q62.913,44.923 62.913,42.647 Q62.913,40.371 64.082,38.925 Q65.251,37.479 67.07,37.479 Q68.09,37.479 68.876,37.888 Q69.663,38.296 70.313,39.158 z M68.239,45.53 Q69.25,45.53 69.781,44.792 Q70.313,44.053 70.313,42.647 Q70.313,41.241 69.781,40.503 Q69.25,39.764 68.239,39.764 Q67.237,39.764 66.705,40.503 Q66.173,41.241 66.173,42.647 Q66.173,44.053 66.705,44.792 Q67.237,45.53 68.239,45.53 z" fill="#191B1B"/>
    <path d="M81.185,39.729 Q80.139,39.729 79.59,40.481 Q79.041,41.232 79.041,42.647 Q79.041,44.062 79.59,44.814 Q80.139,45.565 81.185,45.565 Q82.214,45.565 82.758,44.814 Q83.303,44.062 83.303,42.647 Q83.303,41.232 82.758,40.481 Q82.214,39.729 81.185,39.729 z M81.185,37.479 Q83.725,37.479 85.153,38.85 Q86.582,40.221 86.582,42.647 Q86.582,45.073 85.153,46.444 Q83.725,47.815 81.185,47.815 Q78.636,47.815 77.199,46.444 Q75.762,45.073 75.762,42.647 Q75.762,40.221 77.199,38.85 Q78.636,37.479 81.185,37.479 z" fill="#191B1B"/>
    <path d="M97.99,39.351 Q98.588,38.437 99.409,37.958 Q100.231,37.479 101.215,37.479 Q102.912,37.479 103.799,38.525 Q104.687,39.571 104.687,41.566 L104.687,47.56 L101.523,47.56 L101.523,42.427 Q101.532,42.313 101.536,42.19 Q101.541,42.067 101.541,41.838 Q101.541,40.793 101.233,40.322 Q100.925,39.852 100.24,39.852 Q99.343,39.852 98.856,40.59 Q98.368,41.329 98.35,42.726 L98.35,47.56 L95.186,47.56 L95.186,42.427 Q95.186,40.793 94.905,40.322 Q94.624,39.852 93.903,39.852 Q92.998,39.852 92.506,40.595 Q92.013,41.338 92.013,42.717 L92.013,47.56 L88.849,47.56 L88.849,37.716 L92.013,37.716 L92.013,39.158 Q92.593,38.323 93.345,37.901 Q94.096,37.479 95.002,37.479 Q96.021,37.479 96.803,37.971 Q97.586,38.463 97.99,39.351 z" fill="#191B1B"/>
    <path d="M362.646,16.986 Q361.1,16.986 360.247,18.129 Q359.395,19.271 359.395,21.346 Q359.395,23.411 360.247,24.554 Q361.1,25.696 362.646,25.696 Q364.202,25.696 365.055,24.554 Q365.907,23.411 365.907,21.346 Q365.907,19.271 365.055,18.129 Q364.202,16.986 362.646,16.986 z M362.646,14.534 Q365.811,14.534 367.603,16.345 Q369.396,18.155 369.396,21.346 Q369.396,24.527 367.603,26.338 Q365.811,28.148 362.646,28.148 Q359.491,28.148 357.694,26.338 Q355.896,24.527 355.896,21.346 Q355.896,18.155 357.694,16.345 Q359.491,14.534 362.646,14.534 z" fill="#1A1919"/>
    <path d="M374.96,26.47 L374.96,31.638 L371.813,31.638 L371.813,18.05 L374.96,18.05 L374.96,19.491 Q375.61,18.63 376.401,18.221 Q377.192,17.812 378.221,17.812 Q380.04,17.812 381.209,19.258 Q382.378,20.704 382.378,22.98 Q382.378,25.257 381.209,26.703 Q380.04,28.148 378.221,28.148 Q377.192,28.148 376.401,27.74 Q375.61,27.331 374.96,26.47 z M377.052,20.098 Q376.041,20.098 375.5,20.84 Q374.96,21.583 374.96,22.98 Q374.96,24.378 375.5,25.121 Q376.041,25.863 377.052,25.863 Q378.062,25.863 378.594,25.125 Q379.126,24.387 379.126,22.98 Q379.126,21.574 378.594,20.836 Q378.062,20.098 377.052,20.098 z" fill="#1A1919"/>
    <path d="M392.011,20.73 Q391.598,20.537 391.189,20.445 Q390.78,20.352 390.367,20.352 Q389.154,20.352 388.499,21.13 Q387.845,21.908 387.845,23.358 L387.845,27.893 L384.698,27.893 L384.698,18.05 L387.845,18.05 L387.845,19.667 Q388.451,18.7 389.238,18.256 Q390.024,17.812 391.123,17.812 Q391.281,17.812 391.466,17.826 Q391.65,17.839 392.002,17.883 z" fill="#1A1919"/>
    <path d="M403.401,22.945 L403.401,23.842 L396.045,23.842 Q396.159,24.949 396.845,25.503 Q397.53,26.057 398.761,26.057 Q399.754,26.057 400.795,25.762 Q401.837,25.468 402.936,24.87 L402.936,27.296 Q401.819,27.718 400.703,27.933 Q399.587,28.148 398.471,28.148 Q395.799,28.148 394.318,26.79 Q392.837,25.433 392.837,22.98 Q392.837,20.572 394.291,19.192 Q395.746,17.812 398.295,17.812 Q400.615,17.812 402.008,19.21 Q403.401,20.607 403.401,22.945 z M400.167,21.899 Q400.167,21.003 399.644,20.454 Q399.121,19.904 398.277,19.904 Q397.363,19.904 396.792,20.418 Q396.221,20.933 396.08,21.899 z" fill="#1A1919"/>
    <path d="M413.474,18.357 L413.474,20.748 Q412.463,20.326 411.522,20.115 Q410.582,19.904 409.747,19.904 Q408.851,19.904 408.415,20.128 Q407.98,20.352 407.98,20.818 Q407.98,21.196 408.31,21.398 Q408.64,21.601 409.492,21.697 L410.046,21.776 Q412.463,22.084 413.298,22.787 Q414.133,23.49 414.133,24.993 Q414.133,26.566 412.973,27.357 Q411.812,28.148 409.51,28.148 Q408.534,28.148 407.493,27.995 Q406.451,27.841 405.353,27.533 L405.353,25.143 Q406.293,25.6 407.282,25.828 Q408.27,26.057 409.29,26.057 Q410.213,26.057 410.679,25.802 Q411.145,25.547 411.145,25.046 Q411.145,24.624 410.824,24.417 Q410.503,24.211 409.545,24.097 L408.991,24.026 Q406.891,23.763 406.047,23.051 Q405.203,22.339 405.203,20.889 Q405.203,19.324 406.275,18.568 Q407.348,17.812 409.562,17.812 Q410.433,17.812 411.391,17.944 Q412.349,18.076 413.474,18.357 z" fill="#1A1919"/>
    <path d="M424.187,18.357 L424.187,20.748 Q423.177,20.326 422.236,20.115 Q421.296,19.904 420.461,19.904 Q419.564,19.904 419.129,20.128 Q418.694,20.352 418.694,20.818 Q418.694,21.196 419.024,21.398 Q419.353,21.601 420.206,21.697 L420.76,21.776 Q423.177,22.084 424.012,22.787 Q424.847,23.49 424.847,24.993 Q424.847,26.566 423.686,27.357 Q422.526,28.148 420.224,28.148 Q419.248,28.148 418.207,27.995 Q417.165,27.841 416.066,27.533 L416.066,25.143 Q417.007,25.6 417.996,25.828 Q418.984,26.057 420.004,26.057 Q420.927,26.057 421.393,25.802 Q421.858,25.547 421.858,25.046 Q421.858,24.624 421.538,24.417 Q421.217,24.211 420.259,24.097 L419.705,24.026 Q417.604,23.763 416.761,23.051 Q415.917,22.339 415.917,20.889 Q415.917,19.324 416.989,18.568 Q418.061,17.812 420.276,17.812 Q421.146,17.812 422.104,17.944 Q423.062,18.076 424.187,18.357 z" fill="#1A1919"/>
    <path d="M427.211,18.05 L430.357,18.05 L430.357,27.893 L427.211,27.893 z M427.211,14.218 L430.357,14.218 L430.357,16.784 L427.211,16.784 z" fill="#1A1919"/>
    <path d="M438.065,20.062 Q437.02,20.062 436.47,20.814 Q435.921,21.565 435.921,22.98 Q435.921,24.395 436.47,25.147 Q437.02,25.898 438.065,25.898 Q439.094,25.898 439.639,25.147 Q440.184,24.395 440.184,22.98 Q440.184,21.565 439.639,20.814 Q439.094,20.062 438.065,20.062 z M438.065,17.812 Q440.605,17.812 442.034,19.184 Q443.462,20.555 443.462,22.98 Q443.462,25.406 442.034,26.777 Q440.605,28.148 438.065,28.148 Q435.517,28.148 434.08,26.777 Q432.643,25.406 432.643,22.98 Q432.643,20.555 434.08,19.184 Q435.517,17.812 438.065,17.812 z" fill="#1A1919"/>
    <path d="M455.644,21.899 L455.644,27.893 L452.479,27.893 L452.479,26.918 L452.479,23.306 Q452.479,22.031 452.422,21.548 Q452.365,21.064 452.225,20.836 Q452.04,20.528 451.724,20.357 Q451.407,20.185 451.003,20.185 Q450.019,20.185 449.456,20.946 Q448.894,21.706 448.894,23.051 L448.894,27.893 L445.747,27.893 L445.747,18.05 L448.894,18.05 L448.894,19.491 Q449.605,18.63 450.405,18.221 Q451.205,17.812 452.172,17.812 Q453.877,17.812 454.76,18.858 Q455.644,19.904 455.644,21.899 z" fill="#1A1919"/>
    <path d="M470.339,19.184 L473.934,23.139 Q474.399,22.523 474.641,21.759 Q474.883,20.994 474.927,20.027 L477.66,20.027 Q477.528,21.627 477.04,22.875 Q476.553,24.123 475.683,25.063 L478.258,27.893 L474.531,27.893 L473.67,26.935 Q472.747,27.551 471.728,27.85 Q470.708,28.148 469.565,28.148 Q467.254,28.148 465.826,26.931 Q464.397,25.714 464.397,23.789 Q464.397,22.506 465.026,21.517 Q465.654,20.528 467.078,19.597 Q466.709,19.131 466.533,18.665 Q466.357,18.199 466.357,17.689 Q466.357,16.257 467.474,15.395 Q468.59,14.534 470.444,14.534 Q471.244,14.534 472.11,14.662 Q472.976,14.789 473.916,15.044 L473.916,17.487 Q473.09,17.065 472.352,16.863 Q471.613,16.661 470.91,16.661 Q470.233,16.661 469.86,16.92 Q469.486,17.18 469.486,17.654 Q469.486,17.953 469.702,18.335 Q469.917,18.718 470.339,19.184 z M468.59,21.363 Q468.019,21.776 467.728,22.299 Q467.438,22.822 467.438,23.446 Q467.438,24.457 468.186,25.169 Q468.933,25.881 469.978,25.881 Q470.567,25.881 471.077,25.701 Q471.587,25.52 472.026,25.16 z" fill="#1A1919"/>
    <path d="M355.088,35.771 L367.182,35.771 L367.182,38.329 L362.831,38.329 L362.831,48.893 L359.447,48.893 L359.447,38.329 L355.088,38.329 z" fill="#1A1919"/>
    <path d="M365.362,39.05 L368.509,39.05 L371.154,45.729 L373.404,39.05 L376.551,39.05 L372.411,49.825 Q371.787,51.469 370.957,52.123 Q370.126,52.778 368.764,52.778 L366.944,52.778 L366.944,50.713 L367.929,50.713 Q368.728,50.713 369.093,50.458 Q369.458,50.203 369.66,49.544 L369.748,49.271 z" fill="#1A1919"/>
    <path d="M385.7,41.73 Q385.287,41.537 384.878,41.445 Q384.47,41.352 384.057,41.352 Q382.844,41.352 382.189,42.13 Q381.534,42.908 381.534,44.358 L381.534,48.893 L378.388,48.893 L378.388,39.05 L381.534,39.05 L381.534,40.667 Q382.141,39.7 382.927,39.256 Q383.714,38.812 384.812,38.812 Q384.971,38.812 385.155,38.826 Q385.34,38.839 385.691,38.883 z" fill="#1A1919"/>
    <path d="M391.677,44.464 Q390.692,44.464 390.196,44.798 Q389.699,45.132 389.699,45.782 Q389.699,46.38 390.099,46.718 Q390.499,47.057 391.211,47.057 Q392.099,47.057 392.705,46.419 Q393.311,45.782 393.311,44.824 L393.311,44.464 z M396.484,43.277 L396.484,48.893 L393.311,48.893 L393.311,47.435 Q392.679,48.331 391.888,48.74 Q391.097,49.148 389.963,49.148 Q388.434,49.148 387.48,48.256 Q386.526,47.364 386.526,45.94 Q386.526,44.209 387.717,43.4 Q388.908,42.592 391.457,42.592 L393.311,42.592 L393.311,42.346 Q393.311,41.599 392.723,41.251 Q392.134,40.904 390.886,40.904 Q389.875,40.904 389.005,41.106 Q388.135,41.309 387.388,41.713 L387.388,39.313 Q388.398,39.067 389.418,38.94 Q390.437,38.812 391.457,38.812 Q394.12,38.812 395.302,39.863 Q396.484,40.913 396.484,43.277 z" fill="#1A1919"/>
    <path d="M409.308,42.899 L409.308,48.893 L406.144,48.893 L406.144,47.918 L406.144,44.306 Q406.144,43.031 406.086,42.548 Q406.029,42.064 405.889,41.836 Q405.704,41.528 405.388,41.357 Q405.071,41.185 404.667,41.185 Q403.683,41.185 403.12,41.946 Q402.558,42.706 402.558,44.051 L402.558,48.893 L399.411,48.893 L399.411,39.05 L402.558,39.05 L402.558,40.491 Q403.27,39.63 404.069,39.221 Q404.869,38.812 405.836,38.812 Q407.541,38.812 408.424,39.858 Q409.308,40.904 409.308,42.899 z" fill="#1A1919"/>
    <path d="M422.122,42.899 L422.122,48.893 L418.958,48.893 L418.958,47.918 L418.958,44.306 Q418.958,43.031 418.901,42.548 Q418.844,42.064 418.703,41.836 Q418.519,41.528 418.202,41.357 Q417.886,41.185 417.481,41.185 Q416.497,41.185 415.935,41.946 Q415.372,42.706 415.372,44.051 L415.372,48.893 L412.226,48.893 L412.226,39.05 L415.372,39.05 L415.372,40.491 Q416.084,39.63 416.884,39.221 Q417.684,38.812 418.65,38.812 Q420.355,38.812 421.239,39.858 Q422.122,40.904 422.122,42.899 z" fill="#1A1919"/>
    <path d="M423.748,39.05 L426.895,39.05 L429.54,45.729 L431.79,39.05 L434.936,39.05 L430.797,49.825 Q430.173,51.469 429.342,52.123 Q428.512,52.778 427.149,52.778 L425.33,52.778 L425.33,50.713 L426.314,50.713 Q427.114,50.713 427.479,50.458 Q427.844,50.203 428.046,49.544 L428.134,49.271 z" fill="#1A1919"/>
    <path d="M44.403,79.857 L44.965,79.594 L45.436,80.603 L52.233,77.434 L51.763,76.425 L52.331,76.16 L53.775,79.256 L53.206,79.521 L52.736,78.512 L46.029,81.639 L47.718,85.261 L49.045,84.642 L49.35,85.295 L47.369,86.219 z" fill="#1A1919"/>
    <path d="M55.381,84.086 Q55.625,83.972 55.888,84.066 Q56.152,84.16 56.268,84.409 Q56.382,84.653 56.285,84.916 Q56.187,85.178 55.943,85.292 Q55.693,85.408 55.436,85.314 Q55.179,85.221 55.063,84.971 Q54.946,84.722 55.039,84.462 Q55.131,84.202 55.381,84.086 z M49.128,88.521 L49.559,89.445 L48.996,89.707 L47.674,86.872 L48.237,86.609 L48.672,87.544 L53.186,85.439 L52.75,84.504 L53.319,84.239 L54.21,86.151 z" fill="#1A1919"/>
    <path d="M50.26,90.948 L57.397,87.62 L56.959,86.68 L57.522,86.417 L58.415,88.334 L54.916,89.966 Q55.581,90.005 56.04,90.331 Q56.499,90.657 56.803,91.31 Q57.289,92.351 56.773,93.393 Q56.257,94.436 54.929,95.055 Q53.601,95.674 52.468,95.4 Q51.336,95.127 50.85,94.086 Q50.546,93.433 50.591,92.872 Q50.637,92.311 51.034,91.776 L50.152,92.187 L49.259,90.27 L49.821,90.008 z M52.696,91.001 Q51.677,91.477 51.325,92.116 Q50.973,92.755 51.32,93.499 Q51.669,94.247 52.449,94.353 Q53.228,94.458 54.397,93.913 Q55.57,93.366 55.985,92.703 Q56.401,92.041 56.051,91.292 Q55.705,90.549 54.986,90.409 Q54.268,90.268 53.254,90.741 z" fill="#1A1919"/>
    <path d="M57.826,101.546 L55.863,97.335 L55.82,97.354 Q54.679,97.887 54.298,98.588 Q53.917,99.289 54.308,100.128 Q54.608,100.771 55.137,101.025 Q55.666,101.28 56.406,101.135 L56.773,101.921 Q55.735,102.12 54.974,101.709 Q54.213,101.298 53.735,100.273 Q53.158,99.035 53.623,97.904 Q54.088,96.772 55.437,96.143 Q56.775,95.519 57.937,95.876 Q59.099,96.233 59.658,97.433 Q60.255,98.713 59.786,99.766 Q59.317,100.818 57.826,101.546 z M57.852,100.131 Q58.825,99.638 59.147,99.019 Q59.469,98.4 59.133,97.678 Q58.818,97.004 58.133,96.851 Q57.448,96.699 56.426,97.072 z" fill="#1A1919"/>
    <path d="M63.44,105.917 L62.027,106.576 L61.765,106.013 Q62.172,105.79 62.283,105.487 Q62.393,105.183 62.207,104.785 Q61.871,104.063 61.192,103.91 Q60.513,103.758 59.579,104.194 L56.998,105.397 L57.525,106.529 L56.962,106.791 L55.568,103.801 L56.131,103.539 L56.542,104.42 L61.067,102.311 L60.631,101.376 L61.188,101.116 L62.08,103.028 L61.076,103.496 Q61.799,103.508 62.294,103.826 Q62.788,104.145 63.091,104.793 Q63.202,105.032 63.287,105.312 Q63.373,105.593 63.44,105.917 z" fill="#1A1919"/>
    <path d="M63.408,107.36 L63.007,106.5 L63.575,106.235 L63.977,107.095 L65.729,106.278 L66.187,107.261 L64.435,108.078 L65.291,109.915 L64.723,110.18 L63.866,108.343 L60.282,110.014 Q59.565,110.349 59.428,110.581 Q59.29,110.813 59.464,111.185 Q59.642,111.567 59.949,111.637 Q60.257,111.707 60.766,111.482 L61.11,112.22 Q60.32,112.537 59.789,112.326 Q59.257,112.115 58.898,111.345 Q58.504,110.5 58.715,109.975 Q58.926,109.45 59.824,109.032 z" fill="#1A1919"/>
    <path d="M63.614,116.425 L64.809,115.868 L64.222,114.61 Q63.883,113.882 63.404,113.672 Q62.924,113.463 62.277,113.765 Q61.687,114.04 61.51,114.562 Q61.334,115.084 61.621,115.7 Q61.906,116.311 62.457,116.509 Q63.009,116.708 63.614,116.425 z M65.822,116.585 L62.859,117.967 L63.265,118.838 L62.702,119.101 L61.84,117.253 L62.451,116.968 Q61.907,116.827 61.523,116.489 Q61.139,116.151 60.874,115.583 Q60.436,114.643 60.678,113.858 Q60.919,113.072 61.769,112.676 Q62.645,112.268 63.423,112.674 Q64.201,113.081 64.738,114.233 L65.377,115.603 L65.765,115.423 Q66.407,115.123 66.579,114.568 Q66.75,114.013 66.42,113.307 Q66.148,112.723 65.721,112.501 Q65.295,112.28 64.735,112.437 L64.5,111.933 L65.641,111.401 Q66.097,111.809 66.43,112.239 Q66.763,112.669 66.976,113.125 Q67.523,114.299 67.228,115.183 Q66.932,116.068 65.822,116.585 z" fill="#1A1919"/>
    <path d="M70.926,121.97 L69.513,122.629 L69.251,122.066 Q69.658,121.844 69.768,121.54 Q69.879,121.236 69.693,120.838 Q69.356,120.116 68.678,119.964 Q67.999,119.811 67.064,120.247 L64.483,121.451 L65.011,122.582 L64.448,122.844 L63.054,119.855 L63.617,119.592 L64.028,120.474 L68.552,118.364 L68.116,117.429 L68.674,117.169 L69.566,119.081 L68.562,119.549 Q69.285,119.561 69.78,119.88 Q70.274,120.199 70.576,120.847 Q70.688,121.086 70.773,121.366 Q70.859,121.646 70.926,121.97 z" fill="#1A1919"/>
    <path d="M73.16,122.215 Q73.405,122.101 73.668,122.195 Q73.932,122.288 74.048,122.538 Q74.162,122.782 74.064,123.044 Q73.967,123.306 73.722,123.42 Q73.473,123.537 73.216,123.443 Q72.959,123.35 72.843,123.1 Q72.726,122.85 72.818,122.591 Q72.911,122.331 73.16,122.215 z M66.908,126.65 L67.339,127.574 L66.776,127.836 L65.453,125 L66.016,124.738 L66.452,125.673 L70.966,123.568 L70.53,122.633 L71.098,122.368 L71.99,124.28 z" fill="#1A1919"/>
    <path d="M70.684,131.587 L71.879,131.029 L71.292,129.771 Q70.953,129.043 70.473,128.834 Q69.994,128.624 69.346,128.926 Q68.757,129.201 68.58,129.723 Q68.403,130.245 68.691,130.861 Q68.975,131.472 69.527,131.67 Q70.079,131.869 70.684,131.587 z M72.892,131.747 L69.929,133.128 L70.335,133.999 L69.772,134.262 L68.91,132.414 L69.521,132.129 Q68.977,131.988 68.593,131.65 Q68.209,131.312 67.944,130.744 Q67.506,129.804 67.747,129.019 Q67.989,128.234 68.839,127.837 Q69.715,127.429 70.493,127.835 Q71.271,128.242 71.808,129.394 L72.447,130.764 L72.835,130.584 Q73.477,130.284 73.648,129.729 Q73.819,129.174 73.49,128.468 Q73.218,127.884 72.791,127.662 Q72.365,127.441 71.805,127.599 L71.57,127.094 L72.711,126.562 Q73.167,126.97 73.5,127.4 Q73.833,127.83 74.046,128.286 Q74.593,129.46 74.297,130.345 Q74.002,131.229 72.892,131.747 z" fill="#1A1919"/>
    <path d="M70.124,135.016 L70.687,134.753 L71.098,135.635 L75.611,133.53 L75.176,132.595 L75.744,132.33 L76.635,134.242 L75.632,134.71 Q76.331,134.714 76.825,135.01 Q77.319,135.307 77.587,135.88 Q78.022,136.815 77.692,137.506 Q77.361,138.197 76.224,138.727 L73.198,140.138 L73.604,141.009 L73.041,141.271 L71.783,138.574 L72.346,138.311 L72.739,139.156 L75.458,137.888 Q76.494,137.405 76.76,136.97 Q77.026,136.536 76.726,135.893 Q76.41,135.214 75.747,135.089 Q75.085,134.965 74.134,135.408 L71.553,136.612 L71.949,137.462 L71.387,137.724 z" fill="#1A1919"/>
    <path d="M73.78,142.039 L75.097,141.425 L75.359,141.988 Q74.737,142.303 74.599,142.824 Q74.46,143.344 74.802,144.077 Q75.109,144.736 75.517,144.966 Q75.924,145.196 76.397,144.975 Q76.769,144.802 76.88,144.443 Q76.99,144.085 76.872,143.151 L76.781,142.333 Q76.676,141.497 76.874,141.007 Q77.072,140.517 77.614,140.264 Q78.389,139.902 79.095,140.265 Q79.8,140.628 80.268,141.631 Q80.476,142.078 80.59,142.626 Q80.703,143.174 80.726,143.804 L79.494,144.378 L79.231,143.816 Q79.768,143.539 79.908,143.035 Q80.047,142.53 79.758,141.908 Q79.47,141.292 79.105,141.078 Q78.74,140.864 78.305,141.067 Q77.949,141.233 77.845,141.572 Q77.742,141.911 77.853,142.732 L77.976,143.619 Q78.1,144.537 77.89,145.065 Q77.68,145.592 77.091,145.867 Q76.289,146.241 75.544,145.842 Q74.798,145.443 74.296,144.365 Q74.041,143.818 73.915,143.243 Q73.789,142.668 73.78,142.039 z" fill="#1A1919"/>
    <path d="M90.982,75.857 L91.545,75.594 L92.015,76.603 L98.813,73.434 L98.342,72.425 L98.911,72.16 L100.354,75.256 L99.786,75.521 L99.315,74.512 L92.608,77.639 L94.297,81.261 L95.625,80.642 L95.929,81.295 L93.949,82.219 z" fill="#1A1919"/>
    <path d="M101.96,80.086 Q102.204,79.972 102.468,80.066 Q102.731,80.16 102.848,80.409 Q102.962,80.653 102.864,80.916 Q102.767,81.178 102.522,81.292 Q102.273,81.408 102.016,81.314 Q101.759,81.221 101.642,80.971 Q101.526,80.722 101.618,80.462 Q101.711,80.202 101.96,80.086 z M95.708,84.521 L96.138,85.445 L95.576,85.707 L94.253,82.872 L94.816,82.609 L95.252,83.544 L99.766,81.439 L99.33,80.504 L99.898,80.239 L100.79,82.151 z" fill="#1A1919"/>
    <path d="M96.839,86.948 L103.976,83.62 L103.538,82.68 L104.101,82.417 L104.995,84.334 L101.495,85.966 Q102.16,86.005 102.619,86.331 Q103.078,86.657 103.383,87.31 Q103.868,88.351 103.352,89.393 Q102.836,90.436 101.508,91.055 Q100.181,91.674 99.048,91.4 Q97.915,91.127 97.43,90.086 Q97.125,89.433 97.171,88.872 Q97.216,88.311 97.614,87.776 L96.732,88.187 L95.838,86.27 L96.401,86.008 z M99.276,87.001 Q98.256,87.477 97.904,88.116 Q97.553,88.755 97.899,89.499 Q98.249,90.247 99.028,90.353 Q99.808,90.458 100.976,89.913 Q102.15,89.366 102.565,88.703 Q102.98,88.041 102.631,87.292 Q102.284,86.549 101.566,86.409 Q100.848,86.268 99.833,86.741 z" fill="#1A1919"/>
    <path d="M104.406,97.546 L102.442,93.335 L102.4,93.354 Q101.258,93.887 100.877,94.588 Q100.496,95.289 100.887,96.128 Q101.187,96.771 101.716,97.025 Q102.245,97.28 102.986,97.135 L103.352,97.921 Q102.314,98.12 101.553,97.709 Q100.793,97.298 100.315,96.273 Q99.738,95.035 100.202,93.904 Q100.667,92.772 102.016,92.143 Q103.354,91.519 104.516,91.876 Q105.678,92.233 106.238,93.433 Q106.835,94.713 106.366,95.766 Q105.896,96.818 104.406,97.546 z M104.431,96.131 Q105.404,95.638 105.727,95.019 Q106.049,94.4 105.712,93.678 Q105.398,93.004 104.712,92.851 Q104.027,92.699 103.005,93.072 z" fill="#1A1919"/>
    <path d="M110.019,101.917 L108.607,102.576 L108.344,102.013 Q108.752,101.79 108.862,101.487 Q108.973,101.183 108.787,100.785 Q108.45,100.063 107.771,99.91 Q107.093,99.758 106.158,100.194 L103.577,101.397 L104.105,102.529 L103.542,102.791 L102.148,99.801 L102.711,99.539 L103.122,100.42 L107.646,98.311 L107.21,97.376 L107.768,97.116 L108.659,99.028 L107.656,99.496 Q108.379,99.508 108.873,99.826 Q109.368,100.145 109.67,100.793 Q109.781,101.032 109.867,101.312 Q109.952,101.593 110.019,101.917 z" fill="#1A1919"/>
    <path d="M109.988,103.36 L109.587,102.5 L110.155,102.235 L110.556,103.095 L112.309,102.278 L112.767,103.261 L111.014,104.078 L111.871,105.915 L111.303,106.18 L110.446,104.343 L106.861,106.014 Q106.145,106.349 106.007,106.581 Q105.87,106.813 106.043,107.185 Q106.221,107.567 106.529,107.637 Q106.836,107.707 107.346,107.482 L107.69,108.221 Q106.9,108.537 106.368,108.326 Q105.837,108.115 105.478,107.345 Q105.084,106.5 105.295,105.975 Q105.506,105.45 106.403,105.032 z" fill="#1A1919"/>
    <path d="M110.194,112.425 L111.389,111.868 L110.802,110.61 Q110.462,109.882 109.983,109.672 Q109.504,109.463 108.856,109.765 Q108.267,110.04 108.09,110.562 Q107.913,111.084 108.2,111.7 Q108.485,112.311 109.037,112.509 Q109.588,112.708 110.194,112.425 z M112.402,112.585 L109.439,113.967 L109.845,114.838 L109.282,115.101 L108.42,113.253 L109.031,112.968 Q108.487,112.827 108.103,112.489 Q107.719,112.151 107.454,111.583 Q107.015,110.643 107.257,109.858 Q107.499,109.072 108.348,108.676 Q109.225,108.268 110.003,108.674 Q110.781,109.081 111.318,110.233 L111.957,111.603 L112.344,111.423 Q112.987,111.123 113.158,110.568 Q113.329,110.013 113,109.307 Q112.727,108.723 112.301,108.501 Q111.875,108.28 111.314,108.438 L111.079,107.933 L112.221,107.401 Q112.676,107.809 113.009,108.239 Q113.342,108.669 113.555,109.125 Q114.103,110.299 113.807,111.183 Q113.512,112.068 112.402,112.585 z" fill="#1A1919"/>
    <path d="M117.505,117.97 L116.093,118.629 L115.83,118.066 Q116.237,117.844 116.348,117.54 Q116.458,117.236 116.273,116.838 Q115.936,116.116 115.257,115.964 Q114.578,115.811 113.644,116.247 L111.063,117.451 L111.59,118.582 L111.028,118.844 L109.633,115.855 L110.196,115.592 L110.607,116.474 L115.132,114.364 L114.696,113.429 L115.254,113.169 L116.145,115.081 L115.141,115.549 Q115.865,115.561 116.359,115.88 Q116.854,116.199 117.156,116.847 Q117.267,117.086 117.353,117.366 Q117.438,117.646 117.505,117.97 z" fill="#1A1919"/>
    <path d="M119.74,118.215 Q119.984,118.101 120.248,118.195 Q120.511,118.288 120.628,118.538 Q120.741,118.782 120.644,119.044 Q120.546,119.306 120.302,119.42 Q120.052,119.537 119.795,119.443 Q119.538,119.35 119.422,119.1 Q119.306,118.85 119.398,118.591 Q119.49,118.331 119.74,118.215 z M113.487,122.65 L113.918,123.574 L113.355,123.836 L112.033,121 L112.596,120.738 L113.032,121.673 L117.545,119.568 L117.11,118.633 L117.678,118.368 L118.569,120.28 z" fill="#1A1919"/>
    <path d="M117.263,127.587 L118.458,127.029 L117.871,125.771 Q117.532,125.043 117.053,124.834 Q116.574,124.624 115.926,124.926 Q115.336,125.201 115.16,125.723 Q114.983,126.245 115.27,126.861 Q115.555,127.472 116.106,127.67 Q116.658,127.869 117.263,127.587 z M119.472,127.747 L116.508,129.128 L116.914,129.999 L116.352,130.262 L115.49,128.414 L116.1,128.129 Q115.556,127.988 115.173,127.65 Q114.789,127.312 114.524,126.744 Q114.085,125.804 114.327,125.019 Q114.569,124.234 115.418,123.837 Q116.294,123.429 117.072,123.835 Q117.85,124.242 118.388,125.394 L119.027,126.765 L119.414,126.584 Q120.057,126.284 120.228,125.729 Q120.399,125.174 120.07,124.468 Q119.797,123.884 119.371,123.662 Q118.944,123.441 118.384,123.599 L118.149,123.094 L119.291,122.562 Q119.746,122.97 120.079,123.4 Q120.412,123.83 120.625,124.286 Q121.172,125.46 120.877,126.345 Q120.581,127.229 119.472,127.747 z" fill="#1A1919"/>
    <path d="M116.703,131.016 L117.266,130.753 L117.677,131.635 L122.191,129.53 L121.755,128.595 L122.323,128.33 L123.215,130.242 L122.211,130.71 Q122.911,130.714 123.405,131.01 Q123.899,131.307 124.166,131.88 Q124.602,132.815 124.271,133.506 Q123.94,134.197 122.804,134.727 L119.777,136.138 L120.183,137.009 L119.62,137.271 L118.362,134.574 L118.925,134.311 L119.319,135.156 L122.038,133.888 Q123.073,133.405 123.34,132.97 Q123.606,132.536 123.306,131.893 Q122.989,131.214 122.327,131.089 Q121.664,130.965 120.714,131.408 L118.133,132.612 L118.529,133.462 L117.966,133.724 z" fill="#1A1919"/>
    <path d="M127.047,147.721 Q125.773,147.888 124.818,147.329 Q123.862,146.769 123.272,145.505 Q122.911,144.73 122.867,143.942 Q122.823,143.155 123.098,142.399 Q123.415,141.527 124.037,140.885 Q124.659,140.243 125.614,139.797 Q127.462,138.935 129.094,139.474 Q130.725,140.013 131.54,141.76 Q131.842,142.408 132.014,143.22 Q132.186,144.032 132.234,145.037 L130.408,145.889 L130.128,145.289 Q131.035,144.627 131.231,143.814 Q131.428,143.002 130.93,141.935 Q130.338,140.665 129.133,140.432 Q127.929,140.198 126.182,141.013 Q124.44,141.825 123.844,142.898 Q123.249,143.971 123.84,145.24 Q124.254,146.127 124.944,146.504 Q125.633,146.881 126.591,146.744 z" fill="#1A1919"/>
    <path d="M127.151,152.45 Q127.517,153.236 128.326,153.348 Q129.134,153.459 130.345,152.894 Q131.555,152.33 131.987,151.64 Q132.419,150.951 132.052,150.165 Q131.686,149.379 130.88,149.266 Q130.075,149.154 128.864,149.719 Q127.653,150.283 127.22,150.977 Q126.787,151.67 127.151,152.45 z M126.625,152.696 Q126.051,151.464 126.517,150.335 Q126.983,149.206 128.331,148.577 Q129.68,147.948 130.841,148.315 Q132.001,148.682 132.578,149.92 Q133.155,151.157 132.69,152.282 Q132.226,153.407 130.877,154.036 Q129.528,154.665 128.365,154.299 Q127.202,153.933 126.625,152.696 z" fill="#1A1919"/>
    <path d="M128.515,156.346 L129.078,156.084 L129.489,156.965 L134.003,154.861 L133.567,153.926 L134.135,153.661 L135.027,155.573 L134.023,156.041 Q134.723,156.044 135.217,156.341 Q135.711,156.637 135.978,157.211 Q136.414,158.146 136.083,158.836 Q135.752,159.527 134.616,160.057 L131.589,161.469 L131.995,162.34 L131.432,162.602 L130.174,159.904 L130.737,159.642 L131.131,160.486 L133.85,159.218 Q134.885,158.736 135.151,158.301 Q135.417,157.867 135.118,157.224 Q134.801,156.544 134.138,156.42 Q133.476,156.296 132.525,156.739 L129.945,157.943 L130.341,158.792 L129.778,159.055 z" fill="#1A1919"/>
    <path d="M132.171,163.369 L133.488,162.755 L133.751,163.318 Q133.129,163.634 132.99,164.155 Q132.851,164.675 133.193,165.408 Q133.5,166.066 133.908,166.296 Q134.316,166.526 134.788,166.306 Q135.16,166.133 135.271,165.774 Q135.382,165.415 135.263,164.481 L135.173,163.664 Q135.067,162.827 135.265,162.337 Q135.463,161.847 136.005,161.595 Q136.78,161.233 137.486,161.596 Q138.192,161.958 138.66,162.962 Q138.868,163.408 138.981,163.956 Q139.095,164.505 139.117,165.135 L137.885,165.709 L137.622,165.146 Q138.159,164.87 138.299,164.365 Q138.439,163.86 138.149,163.239 Q137.862,162.623 137.497,162.409 Q137.132,162.194 136.696,162.397 Q136.34,162.563 136.237,162.902 Q136.133,163.242 136.244,164.063 L136.367,164.949 Q136.491,165.868 136.282,166.395 Q136.072,166.923 135.482,167.198 Q134.68,167.572 133.935,167.173 Q133.19,166.773 132.687,165.695 Q132.432,165.148 132.306,164.574 Q132.18,163.999 132.171,163.369 z" fill="#1A1919"/>
    <path d="M139.643,173.113 L137.68,168.902 L137.637,168.921 Q136.495,169.454 136.115,170.155 Q135.734,170.856 136.125,171.695 Q136.425,172.338 136.954,172.592 Q137.483,172.847 138.223,172.702 L138.59,173.488 Q137.552,173.687 136.791,173.276 Q136.03,172.865 135.552,171.84 Q134.975,170.602 135.44,169.471 Q135.905,168.339 137.253,167.71 Q138.592,167.086 139.754,167.443 Q140.916,167.8 141.475,169 Q142.072,170.28 141.603,171.333 Q141.134,172.385 139.643,173.113 z M139.669,171.698 Q140.642,171.205 140.964,170.586 Q141.286,169.967 140.95,169.245 Q140.635,168.571 139.95,168.418 Q139.265,168.266 138.243,168.639 z" fill="#1A1919"/>
    <path d="M145.257,177.484 L143.844,178.143 L143.582,177.58 Q143.989,177.357 144.1,177.054 Q144.21,176.75 144.024,176.352 Q143.688,175.63 143.009,175.477 Q142.33,175.325 141.395,175.761 L138.815,176.964 L139.342,178.096 L138.779,178.358 L137.385,175.368 L137.948,175.106 L138.359,175.987 L142.883,173.877 L142.448,172.943 L143.005,172.683 L143.897,174.595 L142.893,175.063 Q143.616,175.075 144.111,175.393 Q144.605,175.712 144.907,176.36 Q145.019,176.599 145.104,176.879 Q145.19,177.16 145.257,177.484 z" fill="#1A1919"/>
    <path d="M140.854,182.808 L144.963,178.364 L144.663,177.722 L145.231,177.457 L146.442,180.054 L145.874,180.319 L145.453,179.416 L142.312,182.814 L146.934,182.591 L146.54,181.747 L147.108,181.482 L148.096,183.601 L147.528,183.866 L147.234,183.234 L141.189,183.525 z" fill="#1A1919"/>
    <path d="M146.258,189.766 L147.453,189.209 L146.866,187.95 Q146.527,187.223 146.048,187.013 Q145.568,186.803 144.921,187.106 Q144.331,187.38 144.154,187.902 Q143.978,188.425 144.265,189.041 Q144.55,189.651 145.101,189.85 Q145.653,190.048 146.258,189.766 z M148.466,189.926 L145.503,191.308 L145.909,192.179 L145.346,192.441 L144.485,190.593 L145.095,190.308 Q144.551,190.168 144.167,189.83 Q143.783,189.491 143.518,188.923 Q143.08,187.983 143.322,187.198 Q143.563,186.413 144.413,186.017 Q145.289,185.608 146.067,186.015 Q146.845,186.422 147.382,187.574 L148.021,188.944 L148.409,188.763 Q149.051,188.464 149.223,187.909 Q149.394,187.354 149.064,186.647 Q148.792,186.063 148.366,185.842 Q147.939,185.62 147.379,185.778 L147.144,185.274 L148.286,184.741 Q148.741,185.15 149.074,185.579 Q149.407,186.009 149.62,186.466 Q150.167,187.639 149.872,188.524 Q149.576,189.408 148.466,189.926 z" fill="#1A1919"/>
    <path d="M151.114,191.555 L150.713,190.695 L151.281,190.43 L151.682,191.29 L153.435,190.473 L153.893,191.456 L152.14,192.273 L152.997,194.11 L152.429,194.375 L151.572,192.538 L147.987,194.209 Q147.271,194.544 147.133,194.776 Q146.996,195.008 147.169,195.38 Q147.347,195.762 147.655,195.832 Q147.962,195.902 148.472,195.677 L148.816,196.416 Q148.026,196.732 147.494,196.521 Q146.963,196.31 146.604,195.54 Q146.21,194.696 146.421,194.17 Q146.632,193.645 147.529,193.227 z" fill="#1A1919"/>
    <path d="M155.418,194.727 Q155.662,194.613 155.926,194.707 Q156.189,194.8 156.306,195.05 Q156.42,195.294 156.322,195.556 Q156.224,195.818 155.98,195.932 Q155.731,196.049 155.474,195.955 Q155.217,195.862 155.1,195.612 Q154.984,195.363 155.076,195.103 Q155.168,194.843 155.418,194.727 z M149.165,199.162 L149.596,200.086 L149.033,200.348 L147.711,197.513 L148.274,197.25 L148.71,198.185 L153.224,196.08 L152.788,195.145 L153.356,194.88 L154.248,196.792 z" fill="#1A1919"/>
    <path d="M150.403,203.285 L154.511,198.841 L154.212,198.199 L154.78,197.934 L155.991,200.531 L155.423,200.796 L155.002,199.893 L151.86,203.291 L156.482,203.068 L156.089,202.224 L156.657,201.959 L157.645,204.078 L157.077,204.343 L156.782,203.711 L150.737,204.002 z" fill="#1A1919"/>
    <path d="M157.482,211.369 L155.519,207.158 L155.476,207.177 Q154.335,207.71 153.954,208.411 Q153.573,209.112 153.964,209.951 Q154.264,210.594 154.793,210.848 Q155.322,211.103 156.062,210.958 L156.429,211.744 Q155.391,211.943 154.63,211.532 Q153.869,211.121 153.391,210.096 Q152.814,208.858 153.279,207.727 Q153.744,206.595 155.093,205.966 Q156.431,205.342 157.593,205.699 Q158.755,206.056 159.314,207.256 Q159.911,208.536 159.442,209.589 Q158.973,210.641 157.482,211.369 z M157.508,209.954 Q158.481,209.461 158.803,208.842 Q159.126,208.223 158.789,207.501 Q158.474,206.827 157.789,206.674 Q157.104,206.522 156.082,206.895 z" fill="#1A1919"/>
    <path d="M155.614,213.643 L156.931,213.029 L157.194,213.592 Q156.572,213.908 156.433,214.428 Q156.294,214.949 156.636,215.681 Q156.943,216.34 157.351,216.57 Q157.759,216.8 158.231,216.58 Q158.603,216.406 158.714,216.047 Q158.825,215.689 158.706,214.755 L158.616,213.937 Q158.51,213.101 158.708,212.611 Q158.906,212.121 159.448,211.868 Q160.223,211.507 160.929,211.869 Q161.635,212.232 162.103,213.236 Q162.311,213.682 162.424,214.23 Q162.538,214.778 162.56,215.408 L161.328,215.983 L161.065,215.42 Q161.602,215.143 161.742,214.639 Q161.882,214.134 161.592,213.513 Q161.305,212.897 160.94,212.682 Q160.575,212.468 160.139,212.671 Q159.783,212.837 159.68,213.176 Q159.576,213.515 159.687,214.336 L159.81,215.223 Q159.934,216.141 159.724,216.669 Q159.515,217.197 158.925,217.471 Q158.123,217.845 157.378,217.446 Q156.633,217.047 156.13,215.969 Q155.875,215.422 155.749,214.847 Q155.623,214.272 155.614,213.643 z" fill="#1A1919"/>
    <path d="M164.892,81.947 Q163.618,82.114 162.663,81.554 Q161.707,80.995 161.117,79.731 Q160.756,78.955 160.712,78.168 Q160.668,77.38 160.943,76.625 Q161.26,75.753 161.882,75.111 Q162.504,74.468 163.459,74.022 Q165.307,73.161 166.939,73.699 Q168.57,74.238 169.385,75.985 Q169.687,76.633 169.859,77.445 Q170.031,78.257 170.079,79.263 L168.253,80.114 L167.973,79.514 Q168.88,78.852 169.076,78.04 Q169.273,77.227 168.775,76.16 Q168.183,74.891 166.978,74.657 Q165.774,74.424 164.026,75.239 Q162.285,76.051 161.689,77.124 Q161.094,78.197 161.685,79.466 Q162.099,80.353 162.789,80.729 Q163.478,81.106 164.436,80.97 z" fill="#1A1919"/>
    <path d="M164.996,86.676 Q165.362,87.462 166.171,87.573 Q166.979,87.684 168.19,87.12 Q169.4,86.555 169.832,85.866 Q170.264,85.176 169.897,84.39 Q169.531,83.604 168.725,83.492 Q167.92,83.379 166.709,83.944 Q165.498,84.509 165.065,85.202 Q164.632,85.895 164.996,86.676 z M164.47,86.921 Q163.896,85.689 164.362,84.56 Q164.828,83.431 166.176,82.802 Q167.525,82.173 168.686,82.541 Q169.846,82.908 170.423,84.145 Q171,85.382 170.535,86.507 Q170.071,87.632 168.722,88.261 Q167.373,88.89 166.21,88.524 Q165.047,88.158 164.47,86.921 z" fill="#1A1919"/>
    <path d="M166.36,90.572 L166.923,90.309 L167.334,91.191 L171.848,89.086 L171.412,88.151 L171.98,87.886 L172.872,89.798 L171.868,90.266 Q172.568,90.27 173.062,90.566 Q173.556,90.863 173.823,91.436 Q174.259,92.371 173.928,93.062 Q173.597,93.753 172.461,94.283 L169.434,95.694 L169.84,96.565 L169.277,96.827 L168.019,94.13 L168.582,93.867 L168.976,94.712 L171.695,93.444 Q172.73,92.961 172.996,92.526 Q173.262,92.092 172.963,91.45 Q172.646,90.77 171.983,90.646 Q171.321,90.521 170.37,90.964 L167.79,92.168 L168.186,93.018 L167.623,93.28 z" fill="#1A1919"/>
    <path d="M170.016,97.595 L171.333,96.981 L171.596,97.544 Q170.974,97.859 170.835,98.38 Q170.696,98.9 171.038,99.633 Q171.345,100.292 171.753,100.522 Q172.161,100.752 172.633,100.531 Q173.005,100.358 173.116,99.999 Q173.227,99.641 173.108,98.707 L173.018,97.889 Q172.912,97.053 173.11,96.563 Q173.308,96.073 173.85,95.82 Q174.625,95.458 175.331,95.821 Q176.037,96.184 176.505,97.187 Q176.713,97.634 176.826,98.182 Q176.94,98.73 176.962,99.36 L175.73,99.934 L175.467,99.372 Q176.004,99.095 176.144,98.591 Q176.284,98.086 175.994,97.464 Q175.707,96.848 175.342,96.634 Q174.977,96.42 174.541,96.623 Q174.185,96.789 174.082,97.128 Q173.978,97.467 174.089,98.288 L174.212,99.175 Q174.336,100.093 174.126,100.621 Q173.917,101.148 173.327,101.423 Q172.525,101.797 171.78,101.398 Q171.035,100.999 170.532,99.921 Q170.277,99.374 170.151,98.799 Q170.025,98.224 170.016,97.595 z" fill="#1A1919"/>
    <path d="M177.488,107.338 L175.525,103.127 L175.482,103.147 Q174.34,103.679 173.96,104.38 Q173.579,105.082 173.97,105.921 Q174.27,106.563 174.799,106.818 Q175.328,107.072 176.068,106.927 L176.435,107.713 Q175.397,107.913 174.636,107.501 Q173.875,107.09 173.397,106.065 Q172.82,104.828 173.285,103.696 Q173.75,102.565 175.098,101.936 Q176.437,101.312 177.599,101.668 Q178.761,102.025 179.32,103.225 Q179.917,104.505 179.448,105.558 Q178.979,106.611 177.488,107.338 z M177.514,105.923 Q178.487,105.431 178.809,104.812 Q179.131,104.193 178.795,103.471 Q178.48,102.796 177.795,102.644 Q177.11,102.491 176.088,102.864 z" fill="#1A1919"/>
    <path d="M183.102,111.709 L181.689,112.368 L181.427,111.805 Q181.834,111.583 181.944,111.279 Q182.055,110.975 181.869,110.577 Q181.533,109.855 180.854,109.703 Q180.175,109.551 179.24,109.986 L176.66,111.19 L177.187,112.321 L176.624,112.583 L175.23,109.594 L175.793,109.331 L176.204,110.213 L180.728,108.103 L180.293,107.168 L180.85,106.908 L181.742,108.82 L180.738,109.288 Q181.461,109.3 181.956,109.619 Q182.45,109.938 182.752,110.586 Q182.864,110.825 182.949,111.105 Q183.035,111.385 183.102,111.709 z" fill="#1A1919"/>
    <path d="M178.699,117.034 L182.808,112.59 L182.508,111.947 L183.076,111.682 L184.287,114.279 L183.719,114.544 L183.298,113.641 L180.157,117.039 L184.779,116.817 L184.385,115.973 L184.953,115.708 L185.941,117.826 L185.373,118.091 L185.079,117.459 L179.034,117.75 z" fill="#1A1919"/>
    <path d="M184.103,123.991 L185.298,123.434 L184.711,122.176 Q184.372,121.448 183.893,121.239 Q183.413,121.029 182.766,121.331 Q182.176,121.606 181.999,122.128 Q181.823,122.65 182.11,123.266 Q182.395,123.877 182.946,124.075 Q183.498,124.274 184.103,123.991 z M186.311,124.151 L183.348,125.533 L183.754,126.404 L183.191,126.667 L182.329,124.819 L182.94,124.534 Q182.396,124.393 182.012,124.055 Q181.628,123.717 181.363,123.149 Q180.925,122.209 181.167,121.424 Q181.408,120.639 182.258,120.242 Q183.134,119.834 183.912,120.24 Q184.69,120.647 185.227,121.799 L185.866,123.169 L186.254,122.989 Q186.896,122.689 187.068,122.134 Q187.239,121.579 186.909,120.873 Q186.637,120.289 186.21,120.067 Q185.784,119.846 185.224,120.004 L184.989,119.499 L186.13,118.967 Q186.586,119.375 186.919,119.805 Q187.252,120.235 187.465,120.691 Q188.012,121.865 187.717,122.749 Q187.421,123.634 186.311,124.151 z" fill="#1A1919"/>
    <path d="M188.959,125.781 L188.558,124.921 L189.126,124.656 L189.527,125.516 L191.279,124.699 L191.738,125.681 L189.985,126.498 L190.842,128.336 L190.274,128.601 L189.417,126.763 L185.832,128.435 Q185.116,128.769 184.978,129.001 Q184.841,129.233 185.014,129.605 Q185.192,129.987 185.5,130.057 Q185.807,130.127 186.317,129.903 L186.661,130.641 Q185.871,130.958 185.339,130.746 Q184.808,130.535 184.449,129.765 Q184.055,128.921 184.266,128.396 Q184.477,127.871 185.374,127.452 z" fill="#1A1919"/>
    <path d="M193.263,128.952 Q193.507,128.838 193.771,128.932 Q194.034,129.026 194.151,129.275 Q194.265,129.52 194.167,129.782 Q194.069,130.044 193.825,130.158 Q193.576,130.274 193.319,130.181 Q193.062,130.087 192.945,129.838 Q192.829,129.588 192.921,129.328 Q193.013,129.069 193.263,128.952 z M187.01,133.387 L187.441,134.311 L186.878,134.574 L185.556,131.738 L186.119,131.476 L186.555,132.41 L191.069,130.305 L190.633,129.371 L191.201,129.106 L192.092,131.017 z" fill="#1A1919"/>
    <path d="M188.248,137.51 L192.356,133.067 L192.057,132.424 L192.625,132.159 L193.836,134.756 L193.268,135.021 L192.847,134.118 L189.705,137.516 L194.327,137.294 L193.934,136.449 L194.502,136.184 L195.49,138.303 L194.922,138.568 L194.627,137.936 L188.582,138.227 z" fill="#1A1919"/>
    <path d="M195.327,145.594 L193.364,141.383 L193.321,141.403 Q192.18,141.935 191.799,142.637 Q191.418,143.338 191.809,144.177 Q192.109,144.819 192.638,145.074 Q193.167,145.328 193.907,145.183 L194.274,145.969 Q193.236,146.169 192.475,145.757 Q191.714,145.346 191.236,144.321 Q190.659,143.084 191.124,141.952 Q191.589,140.821 192.938,140.192 Q194.276,139.568 195.438,139.925 Q196.6,140.281 197.159,141.481 Q197.756,142.761 197.287,143.814 Q196.818,144.867 195.327,145.594 z M195.353,144.179 Q196.326,143.687 196.648,143.068 Q196.97,142.449 196.634,141.727 Q196.319,141.052 195.634,140.9 Q194.949,140.747 193.927,141.121 z" fill="#1A1919"/>
    <path d="M193.459,147.868 L194.776,147.254 L195.039,147.817 Q194.417,148.133 194.278,148.653 Q194.139,149.174 194.481,149.907 Q194.788,150.565 195.196,150.795 Q195.604,151.025 196.076,150.805 Q196.448,150.632 196.559,150.273 Q196.67,149.914 196.551,148.98 L196.46,148.163 Q196.355,147.326 196.553,146.836 Q196.751,146.346 197.293,146.094 Q198.068,145.732 198.774,146.095 Q199.48,146.457 199.948,147.461 Q200.156,147.907 200.269,148.455 Q200.383,149.004 200.405,149.633 L199.173,150.208 L198.91,149.645 Q199.447,149.369 199.587,148.864 Q199.727,148.359 199.437,147.738 Q199.15,147.122 198.785,146.908 Q198.419,146.693 197.984,146.896 Q197.628,147.062 197.525,147.401 Q197.421,147.741 197.532,148.562 L197.655,149.448 Q197.779,150.367 197.569,150.894 Q197.36,151.422 196.77,151.697 Q195.968,152.071 195.223,151.672 Q194.478,151.272 193.975,150.194 Q193.72,149.647 193.594,149.073 Q193.468,148.498 193.459,147.868 z" fill="#1A1919"/>
    <path d="M232.249,78.631 Q232.322,79.05 232.205,79.431 Q232.089,79.812 231.752,80.227 L229.937,82.476 L230.388,83.443 L229.825,83.705 L228.953,81.836 L230.899,79.423 Q231.466,78.725 231.542,78.327 Q231.618,77.93 231.376,77.409 L230.823,76.225 L227.701,77.681 L228.223,78.802 L227.661,79.064 L226.165,75.857 L226.728,75.594 L227.198,76.603 L233.996,73.434 L233.525,72.425 L234.093,72.16 L235.968,76.18 Q236.508,77.337 236.249,78.224 Q235.99,79.111 234.976,79.584 Q234.158,79.965 233.474,79.725 Q232.79,79.485 232.249,78.631 z M231.392,75.96 L232.122,77.527 Q232.496,78.329 233.054,78.534 Q233.612,78.739 234.409,78.368 Q235.205,77.996 235.404,77.438 Q235.603,76.88 235.229,76.078 L234.498,74.512 z" fill="#1A1919"/>
    <path d="M235.171,88.072 L233.207,83.861 L233.165,83.881 Q232.023,84.413 231.642,85.114 Q231.261,85.816 231.653,86.655 Q231.952,87.297 232.481,87.552 Q233.01,87.806 233.751,87.661 L234.118,88.447 Q233.079,88.647 232.318,88.235 Q231.558,87.824 231.08,86.799 Q230.503,85.562 230.968,84.43 Q231.432,83.299 232.781,82.67 Q234.119,82.046 235.281,82.402 Q236.443,82.759 237.003,83.959 Q237.6,85.239 237.131,86.292 Q236.662,87.345 235.171,88.072 z M235.197,86.657 Q236.169,86.165 236.492,85.546 Q236.814,84.927 236.477,84.204 Q236.163,83.53 235.478,83.378 Q234.792,83.225 233.77,83.598 z" fill="#1A1919"/>
    <path d="M236.846,90.666 L236.288,90.926 Q235.269,91.401 234.917,92.04 Q234.565,92.679 234.912,93.423 Q235.261,94.172 236.041,94.277 Q236.82,94.382 237.989,93.837 Q239.162,93.29 239.578,92.628 Q239.993,91.965 239.644,91.217 Q239.297,90.473 238.579,90.333 Q237.86,90.193 236.846,90.666 z M238.366,88.767 L237.928,87.827 L238.496,87.562 L239.39,89.48 L238.508,89.891 Q239.173,89.93 239.632,90.256 Q240.091,90.581 240.396,91.234 Q240.881,92.275 240.365,93.318 Q239.849,94.36 238.521,94.979 Q237.194,95.598 236.061,95.325 Q234.928,95.051 234.443,94.01 Q234.138,93.357 234.183,92.796 Q234.229,92.235 234.626,91.701 L232.051,92.902 L232.482,93.826 L231.913,94.091 L230.589,91.25 L231.157,90.985 L231.595,91.925 z" fill="#1A1919"/>
    <path d="M243.391,98.061 L244.243,99.888 L239.161,102.258 L239.592,103.182 L239.029,103.444 L238.143,101.543 L239.141,101.078 Q238.452,101.069 237.956,100.776 Q237.461,100.484 237.196,99.916 Q236.758,98.976 237.085,98.283 Q237.412,97.591 238.553,97.059 L241.575,95.65 L241.164,94.768 L241.732,94.503 L242.601,96.367 L239.314,97.9 Q238.284,98.38 238.019,98.811 Q237.755,99.241 238.057,99.889 Q238.374,100.569 239.039,100.692 Q239.704,100.815 240.654,100.372 L243.219,99.176 L242.823,98.326 z" fill="#1A1919"/>
    <path d="M240.365,104.839 L247.502,101.51 L247.063,100.571 L247.626,100.308 L248.52,102.225 L245.021,103.857 Q245.686,103.896 246.145,104.222 Q246.604,104.548 246.908,105.201 Q247.393,106.242 246.877,107.284 Q246.361,108.326 245.034,108.945 Q243.706,109.564 242.573,109.291 Q241.441,109.018 240.955,107.977 Q240.651,107.324 240.696,106.763 Q240.742,106.201 241.139,105.667 L240.257,106.078 L239.363,104.161 L239.926,103.899 z M242.801,104.892 Q241.781,105.367 241.43,106.007 Q241.078,106.646 241.425,107.389 Q241.774,108.138 242.553,108.243 Q243.333,108.348 244.501,107.804 Q245.675,107.256 246.09,106.594 Q246.505,105.932 246.156,105.183 Q245.81,104.439 245.091,104.299 Q244.373,104.159 243.359,104.632 z" fill="#1A1919"/>
    <path d="M244.067,112.778 L244.498,113.702 L243.935,113.964 L242.61,111.123 L243.173,110.861 L243.611,111.8 L250.748,108.472 L250.31,107.532 L250.873,107.27 L251.767,109.187 z" fill="#1A1919"/>
    <path d="M251.976,111.895 Q252.22,111.781 252.484,111.875 Q252.747,111.969 252.864,112.218 Q252.977,112.463 252.88,112.725 Q252.782,112.987 252.538,113.101 Q252.288,113.217 252.031,113.124 Q251.774,113.03 251.658,112.781 Q251.542,112.531 251.634,112.271 Q251.726,112.012 251.976,111.895 z M245.723,116.33 L246.154,117.254 L245.591,117.517 L244.269,114.681 L244.832,114.419 L245.268,115.353 L249.781,113.248 L249.346,112.314 L249.914,112.049 L250.805,113.96 z" fill="#1A1919"/>
    <path d="M250.009,122.568 Q249.01,122.782 248.262,122.413 Q247.515,122.044 247.079,121.109 Q246.505,119.877 246.971,118.748 Q247.437,117.62 248.785,116.991 Q250.139,116.359 251.298,116.73 Q252.457,117.101 253.032,118.333 Q253.282,118.87 253.405,119.459 Q253.528,120.048 253.523,120.703 L252.079,121.377 L251.814,120.809 Q252.505,120.351 252.67,119.818 Q252.836,119.285 252.511,118.589 Q252.142,117.798 251.341,117.68 Q250.539,117.563 249.318,118.132 Q248.096,118.702 247.667,119.39 Q247.238,120.078 247.61,120.875 Q247.904,121.507 248.409,121.73 Q248.915,121.954 249.643,121.782 z" fill="#1A1919"/>
    <path d="M252.34,127.358 L253.535,126.801 L252.948,125.543 Q252.608,124.815 252.129,124.605 Q251.65,124.396 251.002,124.698 Q250.413,124.973 250.236,125.495 Q250.059,126.017 250.346,126.633 Q250.631,127.243 251.183,127.442 Q251.734,127.641 252.34,127.358 z M254.548,127.518 L251.585,128.9 L251.991,129.771 L251.428,130.033 L250.566,128.185 L251.177,127.901 Q250.633,127.76 250.249,127.422 Q249.865,127.084 249.6,126.515 Q249.162,125.575 249.403,124.79 Q249.645,124.005 250.495,123.609 Q251.371,123.201 252.149,123.607 Q252.927,124.014 253.464,125.166 L254.103,126.536 L254.49,126.355 Q255.133,126.056 255.304,125.501 Q255.475,124.946 255.146,124.239 Q254.874,123.655 254.447,123.434 Q254.021,123.213 253.461,123.37 L253.225,122.866 L254.367,122.333 Q254.823,122.742 255.155,123.172 Q255.488,123.601 255.701,124.058 Q256.249,125.232 255.953,126.116 Q255.658,127.001 254.548,127.518 z" fill="#1A1919"/>
    <path d="M251.779,130.787 L252.342,130.525 L252.753,131.406 L257.267,129.302 L256.831,128.367 L257.4,128.102 L258.291,130.014 L257.287,130.482 Q257.987,130.485 258.481,130.782 Q258.975,131.078 259.242,131.652 Q259.678,132.587 259.347,133.277 Q259.017,133.968 257.88,134.498 L254.853,135.91 L255.259,136.781 L254.697,137.043 L253.439,134.345 L254.001,134.083 L254.395,134.927 L257.114,133.659 Q258.15,133.177 258.416,132.742 Q258.682,132.308 258.382,131.665 Q258.065,130.985 257.403,130.861 Q256.74,130.737 255.79,131.18 L253.209,132.384 L253.605,133.233 L253.042,133.496 z" fill="#1A1919"/>
    <path d="M255.436,137.81 L256.753,137.196 L257.015,137.759 Q256.393,138.075 256.254,138.596 Q256.116,139.116 256.457,139.849 Q256.764,140.507 257.172,140.737 Q257.58,140.967 258.053,140.747 Q258.425,140.574 258.535,140.215 Q258.646,139.856 258.527,138.922 L258.437,138.105 Q258.331,137.268 258.53,136.778 Q258.728,136.288 259.27,136.036 Q260.045,135.674 260.751,136.037 Q261.456,136.399 261.924,137.403 Q262.132,137.849 262.246,138.398 Q262.359,138.946 262.381,139.576 L261.149,140.15 L260.887,139.587 Q261.424,139.311 261.564,138.806 Q261.703,138.301 261.413,137.68 Q261.126,137.064 260.761,136.85 Q260.396,136.635 259.961,136.838 Q259.605,137.004 259.501,137.343 Q259.398,137.683 259.509,138.504 L259.631,139.39 Q259.756,140.309 259.546,140.836 Q259.336,141.364 258.747,141.639 Q257.945,142.013 257.2,141.614 Q256.454,141.215 255.952,140.137 Q255.696,139.59 255.571,139.015 Q255.445,138.44 255.436,137.81 z" fill="#1A1919"/>
    <path d="M299.701,77.681 L300.162,78.669 Q300.882,80.214 302.149,80.629 Q303.415,81.044 305.062,80.276 Q306.708,79.508 307.195,78.279 Q307.682,77.05 306.959,75.499 L306.498,74.512 z M298.165,75.857 L298.728,75.594 L299.198,76.603 L305.996,73.434 L305.525,72.425 L306.093,72.16 L307.564,75.314 Q308.52,77.364 308.008,78.996 Q307.495,80.628 305.631,81.497 Q303.762,82.369 302.176,81.712 Q300.589,81.056 299.636,79.011 z" fill="#1A1919"/>
    <path d="M307.419,88.603 L305.455,84.392 L305.413,84.412 Q304.271,84.944 303.89,85.645 Q303.509,86.347 303.9,87.186 Q304.2,87.828 304.729,88.083 Q305.258,88.337 305.999,88.192 L306.365,88.978 Q305.327,89.178 304.566,88.766 Q303.805,88.355 303.327,87.33 Q302.75,86.093 303.215,84.961 Q303.68,83.83 305.029,83.201 Q306.367,82.577 307.529,82.933 Q308.691,83.29 309.251,84.49 Q309.848,85.77 309.378,86.823 Q308.909,87.876 307.419,88.603 z M307.444,87.188 Q308.417,86.696 308.739,86.077 Q309.062,85.458 308.725,84.735 Q308.41,84.061 307.725,83.909 Q307.04,83.756 306.018,84.129 z" fill="#1A1919"/>
    <path d="M312.125,93.927 Q312.878,93.919 313.398,94.21 Q313.918,94.5 314.191,95.085 Q314.604,95.971 314.258,96.663 Q313.911,97.355 312.801,97.872 L309.774,99.284 L310.186,100.165 L309.623,100.428 L308.36,97.72 L308.923,97.457 L309.319,98.307 L312.234,96.947 Q313.1,96.544 313.347,96.118 Q313.595,95.692 313.32,95.103 Q313.016,94.45 312.362,94.337 Q311.708,94.225 310.763,94.666 L308.182,95.869 L308.578,96.719 L308.016,96.981 L306.767,94.305 L307.33,94.043 L307.727,94.892 L310.679,93.515 Q311.524,93.122 311.763,92.7 Q312.003,92.278 311.728,91.688 Q311.423,91.035 310.77,90.923 Q310.116,90.81 309.171,91.251 L306.59,92.455 L306.986,93.304 L306.423,93.567 L305.16,90.859 L305.723,90.596 L306.134,91.478 L310.659,89.368 L310.223,88.433 L310.781,88.173 L311.672,90.085 L310.668,90.553 Q311.358,90.561 311.851,90.842 Q312.344,91.123 312.591,91.654 Q312.898,92.313 312.777,92.906 Q312.656,93.499 312.125,93.927 z" fill="#1A1919"/>
    <path d="M311.658,103.823 Q312.025,104.609 312.833,104.72 Q313.641,104.832 314.852,104.267 Q316.063,103.702 316.495,103.013 Q316.926,102.323 316.56,101.538 Q316.193,100.752 315.388,100.639 Q314.582,100.527 313.371,101.091 Q312.161,101.656 311.728,102.349 Q311.294,103.043 311.658,103.823 z M311.133,104.068 Q310.558,102.836 311.024,101.707 Q311.49,100.579 312.839,99.95 Q314.188,99.321 315.348,99.688 Q316.509,100.055 317.086,101.292 Q317.663,102.53 317.198,103.655 Q316.733,104.78 315.385,105.409 Q314.036,106.038 312.873,105.672 Q311.71,105.306 311.133,104.068 z" fill="#1A1919"/>
    <path d="M317.116,112.075 Q316.117,112.289 315.369,111.92 Q314.622,111.551 314.186,110.616 Q313.611,109.384 314.077,108.255 Q314.543,107.126 315.892,106.497 Q317.246,105.866 318.405,106.237 Q319.564,106.608 320.139,107.84 Q320.389,108.376 320.512,108.966 Q320.635,109.555 320.63,110.21 L319.185,110.884 L318.921,110.315 Q319.612,109.857 319.777,109.324 Q319.943,108.792 319.618,108.096 Q319.249,107.305 318.448,107.187 Q317.646,107.069 316.425,107.639 Q315.203,108.209 314.774,108.897 Q314.345,109.585 314.717,110.382 Q315.011,111.013 315.516,111.237 Q316.021,111.46 316.75,111.289 z" fill="#1A1919"/>
    <path d="M323.735,115.926 L322.322,116.584 L322.06,116.021 Q322.467,115.799 322.577,115.496 Q322.688,115.192 322.502,114.794 Q322.165,114.071 321.487,113.919 Q320.808,113.767 319.873,114.203 L317.292,115.406 L317.82,116.537 L317.257,116.8 L315.863,113.81 L316.426,113.548 L316.837,114.429 L321.361,112.319 L320.925,111.385 L321.483,111.125 L322.375,113.036 L321.371,113.504 Q322.094,113.516 322.589,113.835 Q323.083,114.154 323.385,114.802 Q323.497,115.041 323.582,115.321 Q323.668,115.601 323.735,115.926 z" fill="#1A1919"/>
    <path d="M321.871,122.064 L323.066,121.507 L322.479,120.248 Q322.14,119.521 321.66,119.311 Q321.181,119.101 320.533,119.403 Q319.944,119.678 319.767,120.2 Q319.59,120.722 319.878,121.338 Q320.162,121.949 320.714,122.148 Q321.266,122.346 321.871,122.064 z M324.079,122.224 L321.116,123.606 L321.522,124.476 L320.959,124.739 L320.097,122.891 L320.708,122.606 Q320.164,122.465 319.78,122.127 Q319.396,121.789 319.131,121.221 Q318.693,120.281 318.934,119.496 Q319.176,118.711 320.026,118.315 Q320.902,117.906 321.68,118.313 Q322.458,118.719 322.995,119.872 L323.634,121.242 L324.022,121.061 Q324.664,120.761 324.835,120.206 Q325.007,119.651 324.677,118.945 Q324.405,118.361 323.978,118.14 Q323.552,117.918 322.992,118.076 L322.757,117.571 L323.898,117.039 Q324.354,117.447 324.687,117.877 Q325.02,118.307 325.233,118.764 Q325.78,119.937 325.484,120.822 Q325.189,121.706 324.079,122.224 z" fill="#1A1919"/>
    <path d="M326.727,123.853 L326.326,122.993 L326.894,122.728 L327.295,123.588 L329.047,122.771 L329.505,123.753 L327.753,124.571 L328.61,126.408 L328.042,126.673 L327.185,124.836 L323.6,126.507 Q322.883,126.841 322.746,127.074 Q322.609,127.306 322.782,127.677 Q322.96,128.06 323.268,128.13 Q323.575,128.2 324.084,127.975 L324.429,128.713 Q323.639,129.03 323.107,128.819 Q322.576,128.608 322.217,127.838 Q321.823,126.993 322.034,126.468 Q322.245,125.943 323.142,125.525 z" fill="#1A1919"/>
    <path d="M323.739,129.882 L325.056,129.268 L325.318,129.831 Q324.696,130.147 324.557,130.667 Q324.419,131.188 324.76,131.92 Q325.067,132.579 325.475,132.809 Q325.883,133.039 326.356,132.819 Q326.728,132.645 326.838,132.287 Q326.949,131.928 326.83,130.994 L326.74,130.176 Q326.634,129.34 326.833,128.85 Q327.031,128.36 327.572,128.107 Q328.348,127.746 329.054,128.108 Q329.759,128.471 330.227,129.475 Q330.435,129.921 330.549,130.469 Q330.662,131.017 330.684,131.647 L329.452,132.222 L329.19,131.659 Q329.727,131.382 329.866,130.878 Q330.006,130.373 329.716,129.752 Q329.429,129.136 329.064,128.921 Q328.699,128.707 328.264,128.91 Q327.908,129.076 327.804,129.415 Q327.7,129.754 327.812,130.575 L327.934,131.462 Q328.059,132.38 327.849,132.908 Q327.639,133.436 327.05,133.711 Q326.248,134.084 325.503,133.685 Q324.757,133.286 324.254,132.208 Q323.999,131.661 323.874,131.086 Q323.748,130.511 323.739,129.882 z" fill="#1A1919"/>
    <path d="M356.738,71.541 L358.543,70.699 L358.823,71.312 Q357.933,71.76 357.731,72.458 Q357.53,73.156 358.003,74.171 Q358.444,75.116 359.05,75.438 Q359.656,75.76 360.372,75.426 Q360.946,75.158 361.114,74.714 Q361.282,74.271 361.124,73.168 L360.949,71.976 Q360.764,70.678 361.063,69.974 Q361.361,69.269 362.259,68.85 Q363.268,68.38 364.159,68.837 Q365.051,69.294 365.656,70.589 Q365.913,71.142 366.101,71.856 Q366.288,72.57 366.407,73.42 L364.718,74.207 L364.438,73.607 Q365.235,73.126 365.39,72.481 Q365.546,71.837 365.097,70.875 Q364.706,70.036 364.159,69.758 Q363.612,69.48 362.959,69.784 Q362.391,70.049 362.221,70.53 Q362.05,71.01 362.229,72.226 L362.395,73.344 Q362.574,74.573 362.286,75.267 Q361.999,75.96 361.154,76.354 Q360.002,76.891 359.074,76.425 Q358.145,75.96 357.464,74.499 Q357.16,73.846 356.977,73.107 Q356.794,72.368 356.738,71.541 z" fill="#1A1919"/>
    <path d="M361.256,81.259 Q361.623,82.045 362.431,82.156 Q363.239,82.267 364.45,81.702 Q365.661,81.138 366.093,80.448 Q366.524,79.759 366.158,78.973 Q365.791,78.187 364.986,78.075 Q364.18,77.962 362.969,78.527 Q361.759,79.091 361.325,79.785 Q360.892,80.478 361.256,81.259 z M360.731,81.504 Q360.156,80.272 360.622,79.143 Q361.088,78.014 362.437,77.385 Q363.786,76.756 364.946,77.123 Q366.107,77.491 366.684,78.728 Q367.261,79.965 366.796,81.09 Q366.331,82.215 364.983,82.844 Q363.634,83.473 362.471,83.107 Q361.308,82.741 360.731,81.504 z" fill="#1A1919"/>
    <path d="M366.714,89.51 Q365.715,89.724 364.967,89.355 Q364.22,88.986 363.784,88.052 Q363.209,86.819 363.675,85.691 Q364.141,84.562 365.49,83.933 Q366.844,83.301 368.003,83.672 Q369.162,84.044 369.737,85.276 Q369.987,85.812 370.11,86.401 Q370.233,86.99 370.228,87.646 L368.783,88.319 L368.518,87.751 Q369.21,87.293 369.375,86.76 Q369.54,86.227 369.216,85.531 Q368.847,84.74 368.046,84.623 Q367.244,84.505 366.023,85.075 Q364.801,85.644 364.372,86.332 Q363.943,87.02 364.315,87.817 Q364.609,88.449 365.114,88.672 Q365.619,88.896 366.348,88.724 z" fill="#1A1919"/>
    <path d="M373.143,88.407 Q373.387,88.293 373.651,88.387 Q373.914,88.48 374.031,88.73 Q374.145,88.974 374.047,89.236 Q373.949,89.498 373.705,89.612 Q373.455,89.729 373.199,89.635 Q372.942,89.542 372.825,89.292 Q372.709,89.042 372.801,88.783 Q372.893,88.523 373.143,88.407 z M366.89,92.842 L367.321,93.766 L366.758,94.028 L365.436,91.192 L365.999,90.93 L366.435,91.865 L370.949,89.76 L370.513,88.825 L371.081,88.56 L371.972,90.472 z" fill="#1A1919"/>
    <path d="M370.667,97.779 L371.861,97.222 L371.275,95.963 Q370.935,95.235 370.456,95.026 Q369.977,94.816 369.329,95.118 Q368.74,95.393 368.563,95.915 Q368.386,96.437 368.673,97.053 Q368.958,97.664 369.51,97.862 Q370.061,98.061 370.667,97.779 z M372.875,97.939 L369.911,99.32 L370.318,100.191 L369.755,100.454 L368.893,98.606 L369.504,98.321 Q368.96,98.18 368.576,97.842 Q368.192,97.504 367.927,96.936 Q367.488,95.996 367.73,95.211 Q367.972,94.426 368.821,94.03 Q369.698,93.621 370.476,94.028 Q371.253,94.434 371.791,95.587 L372.43,96.957 L372.817,96.776 Q373.46,96.476 373.631,95.921 Q373.802,95.366 373.473,94.66 Q373.2,94.076 372.774,93.854 Q372.347,93.633 371.787,93.791 L371.552,93.286 L372.694,92.754 Q373.149,93.162 373.482,93.592 Q373.815,94.022 374.028,94.479 Q374.576,95.652 374.28,96.537 Q373.985,97.421 372.875,97.939 z" fill="#1A1919"/>
    <path d="M371.501,102.73 L371.932,103.654 L371.369,103.916 L370.044,101.075 L370.607,100.813 L371.046,101.753 L378.183,98.424 L377.744,97.485 L378.307,97.222 L379.201,99.139 z" fill="#1A1919"/>
    <path d="M379.41,101.847 Q379.655,101.734 379.918,101.827 Q380.182,101.921 380.298,102.171 Q380.412,102.415 380.314,102.677 Q380.217,102.939 379.973,103.053 Q379.723,103.169 379.466,103.076 Q379.209,102.982 379.093,102.733 Q378.976,102.483 379.069,102.223 Q379.161,101.964 379.41,101.847 z M373.158,106.282 L373.589,107.206 L373.026,107.469 L371.703,104.633 L372.266,104.371 L372.702,105.305 L377.216,103.2 L376.78,102.266 L377.348,102.001 L378.24,103.913 z" fill="#1A1919"/>
    <path d="M373.74,108.183 L375.057,107.569 L375.32,108.132 Q374.698,108.448 374.559,108.968 Q374.42,109.489 374.762,110.222 Q375.069,110.88 375.477,111.11 Q375.885,111.34 376.357,111.12 Q376.729,110.946 376.84,110.588 Q376.951,110.229 376.832,109.295 L376.742,108.477 Q376.636,107.641 376.834,107.151 Q377.032,106.661 377.574,106.408 Q378.349,106.047 379.055,106.409 Q379.761,106.772 380.229,107.776 Q380.437,108.222 380.55,108.77 Q380.664,109.319 380.686,109.948 L379.454,110.523 L379.191,109.96 Q379.728,109.684 379.868,109.179 Q380.008,108.674 379.718,108.053 Q379.431,107.437 379.066,107.222 Q378.701,107.008 378.265,107.211 Q377.909,107.377 377.806,107.716 Q377.702,108.055 377.813,108.876 L377.936,109.763 Q378.06,110.681 377.85,111.209 Q377.641,111.737 377.051,112.012 Q376.249,112.386 375.504,111.986 Q374.759,111.587 374.256,110.509 Q374.001,109.962 373.875,109.387 Q373.749,108.812 373.74,108.183 z" fill="#1A1919"/>
    <path d="M381.369,112.106 L380.968,111.246 L381.536,110.981 L381.937,111.841 L383.689,111.024 L384.148,112.006 L382.395,112.823 L383.252,114.661 L382.684,114.926 L381.827,113.088 L378.242,114.76 Q377.525,115.094 377.388,115.326 Q377.251,115.559 377.424,115.93 Q377.602,116.313 377.91,116.383 Q378.217,116.453 378.727,116.228 L379.071,116.966 Q378.281,117.283 377.749,117.072 Q377.218,116.86 376.859,116.09 Q376.465,115.246 376.676,114.721 Q376.887,114.196 377.784,113.777 z" fill="#1A1919"/>
    <path d="M378.381,118.135 L379.698,117.521 L379.96,118.084 Q379.338,118.399 379.2,118.92 Q379.061,119.44 379.403,120.173 Q379.71,120.832 380.117,121.062 Q380.525,121.292 380.998,121.071 Q381.37,120.898 381.48,120.539 Q381.591,120.181 381.473,119.247 L381.382,118.429 Q381.277,117.593 381.475,117.103 Q381.673,116.613 382.215,116.36 Q382.99,115.998 383.696,116.361 Q384.401,116.724 384.869,117.727 Q385.077,118.174 385.191,118.722 Q385.304,119.27 385.326,119.9 L384.094,120.474 L383.832,119.912 Q384.369,119.635 384.509,119.131 Q384.648,118.626 384.359,118.004 Q384.071,117.388 383.706,117.174 Q383.341,116.96 382.906,117.163 Q382.55,117.329 382.446,117.668 Q382.343,118.007 382.454,118.828 L382.576,119.715 Q382.701,120.633 382.491,121.161 Q382.281,121.688 381.692,121.963 Q380.89,122.337 380.145,121.938 Q379.399,121.539 378.897,120.461 Q378.642,119.914 378.516,119.339 Q378.39,118.764 378.381,118.135 z" fill="#1A1919"/>
    <path d="M422.225,81.947 Q420.952,82.114 419.996,81.554 Q419.04,80.995 418.451,79.731 Q418.089,78.955 418.045,78.168 Q418.001,77.38 418.276,76.625 Q418.593,75.753 419.215,75.111 Q419.837,74.468 420.793,74.022 Q422.641,73.161 424.272,73.699 Q425.904,74.238 426.718,75.985 Q427.021,76.633 427.192,77.445 Q427.364,78.257 427.413,79.263 L425.586,80.114 L425.306,79.514 Q426.213,78.852 426.409,78.04 Q426.606,77.227 426.108,76.16 Q425.516,74.891 424.312,74.657 Q423.107,74.424 421.36,75.239 Q419.618,76.051 419.022,77.124 Q418.427,78.197 419.019,79.466 Q419.432,80.353 420.122,80.729 Q420.812,81.106 421.769,80.97 z" fill="#1A1919"/>
    <path d="M422.329,86.676 Q422.696,87.462 423.504,87.573 Q424.312,87.684 425.523,87.12 Q426.734,86.555 427.165,85.866 Q427.597,85.176 427.231,84.39 Q426.864,83.604 426.059,83.492 Q425.253,83.379 424.042,83.944 Q422.831,84.509 422.398,85.202 Q421.965,85.895 422.329,86.676 z M421.803,86.921 Q421.229,85.689 421.695,84.56 Q422.161,83.431 423.51,82.802 Q424.859,82.173 426.019,82.541 Q427.179,82.908 427.756,84.145 Q428.333,85.382 427.869,86.507 Q427.404,87.632 426.055,88.261 Q424.707,88.89 423.543,88.524 Q422.38,88.158 421.803,86.921 z" fill="#1A1919"/>
    <path d="M430.658,93.64 Q431.411,93.632 431.931,93.923 Q432.451,94.214 432.724,94.798 Q433.137,95.685 432.791,96.376 Q432.444,97.068 431.334,97.586 L428.307,98.997 L428.718,99.879 L428.156,100.141 L426.893,97.433 L427.456,97.17 L427.852,98.02 L430.767,96.661 Q431.633,96.257 431.88,95.831 Q432.128,95.405 431.853,94.816 Q431.548,94.163 430.895,94.051 Q430.241,93.938 429.296,94.379 L426.715,95.583 L427.111,96.432 L426.548,96.695 L425.3,94.018 L425.863,93.756 L426.26,94.605 L429.212,93.229 Q430.056,92.835 430.296,92.413 Q430.536,91.991 430.261,91.401 Q429.956,90.748 429.303,90.636 Q428.649,90.524 427.704,90.964 L425.123,92.168 L425.519,93.018 L424.956,93.28 L423.693,90.572 L424.256,90.309 L424.667,91.191 L429.192,89.081 L428.756,88.146 L429.314,87.886 L430.205,89.798 L429.201,90.266 Q429.891,90.275 430.384,90.555 Q430.877,90.836 431.124,91.367 Q431.431,92.026 431.31,92.619 Q431.189,93.212 430.658,93.64 z" fill="#1A1919"/>
    <path d="M435.467,103.953 Q436.22,103.945 436.74,104.236 Q437.26,104.526 437.533,105.111 Q437.946,105.997 437.6,106.689 Q437.253,107.381 436.143,107.898 L433.116,109.31 L433.527,110.191 L432.965,110.454 L431.702,107.746 L432.264,107.483 L432.661,108.333 L435.576,106.973 Q436.442,106.57 436.689,106.144 Q436.937,105.718 436.662,105.129 Q436.357,104.476 435.704,104.363 Q435.05,104.251 434.105,104.692 L431.524,105.895 L431.92,106.745 L431.357,107.007 L430.109,104.331 L430.672,104.069 L431.068,104.918 L434.021,103.541 Q434.865,103.148 435.105,102.726 Q435.345,102.304 435.07,101.714 Q434.765,101.061 434.112,100.949 Q433.458,100.837 432.513,101.277 L429.932,102.481 L430.328,103.33 L429.765,103.593 L428.502,100.885 L429.065,100.622 L429.476,101.504 L434.001,99.394 L433.565,98.459 L434.122,98.199 L435.014,100.111 L434.01,100.579 Q434.699,100.587 435.192,100.868 Q435.685,101.149 435.933,101.68 Q436.24,102.339 436.119,102.932 Q435.998,103.525 435.467,103.953 z" fill="#1A1919"/>
    <path d="M440.543,111.969 L441.395,113.796 L436.313,116.166 L436.744,117.09 L436.181,117.352 L435.295,115.451 L436.293,114.985 Q435.604,114.977 435.109,114.684 Q434.613,114.392 434.348,113.824 Q433.91,112.884 434.237,112.191 Q434.564,111.499 435.706,110.967 L438.727,109.558 L438.316,108.676 L438.884,108.411 L439.753,110.275 L436.466,111.808 Q435.436,112.288 435.171,112.719 Q434.907,113.149 435.209,113.797 Q435.526,114.477 436.191,114.6 Q436.856,114.723 437.806,114.28 L440.371,113.084 L439.975,112.234 z" fill="#1A1919"/>
    <path d="M436.577,118.202 L437.14,117.939 L437.551,118.821 L442.065,116.716 L441.629,115.781 L442.198,115.516 L443.089,117.428 L442.085,117.896 Q442.785,117.9 443.279,118.196 Q443.773,118.493 444.04,119.066 Q444.476,120.001 444.145,120.692 Q443.815,121.383 442.678,121.913 L439.651,123.324 L440.057,124.195 L439.494,124.457 L438.236,121.76 L438.799,121.497 L439.193,122.342 L441.912,121.074 Q442.948,120.591 443.214,120.156 Q443.48,119.722 443.18,119.08 Q442.863,118.4 442.201,118.276 Q441.538,118.151 440.588,118.594 L438.007,119.798 L438.403,120.648 L437.84,120.91 z" fill="#1A1919"/>
    <path d="M447.526,122.367 Q447.77,122.254 448.034,122.347 Q448.297,122.441 448.413,122.691 Q448.527,122.935 448.43,123.197 Q448.332,123.459 448.088,123.573 Q447.838,123.689 447.581,123.596 Q447.324,123.502 447.208,123.253 Q447.092,123.003 447.184,122.743 Q447.276,122.484 447.526,122.367 z M441.273,126.802 L441.704,127.726 L441.141,127.989 L439.819,125.153 L440.382,124.891 L440.818,125.825 L445.331,123.72 L444.896,122.786 L445.464,122.521 L446.355,124.433 z" fill="#1A1919"/>
    <path d="M441.856,128.703 L443.173,128.089 L443.435,128.652 Q442.813,128.968 442.674,129.488 Q442.536,130.009 442.877,130.742 Q443.184,131.4 443.592,131.63 Q444,131.86 444.473,131.64 Q444.845,131.466 444.955,131.108 Q445.066,130.749 444.947,129.815 L444.857,128.997 Q444.751,128.161 444.95,127.671 Q445.148,127.181 445.689,126.928 Q446.465,126.567 447.17,126.929 Q447.876,127.292 448.344,128.296 Q448.552,128.742 448.666,129.29 Q448.779,129.839 448.801,130.468 L447.569,131.043 L447.307,130.48 Q447.844,130.204 447.983,129.699 Q448.123,129.194 447.833,128.573 Q447.546,127.957 447.181,127.742 Q446.816,127.528 446.38,127.731 Q446.025,127.897 445.921,128.236 Q445.817,128.575 445.929,129.396 L446.051,130.283 Q446.176,131.201 445.966,131.729 Q445.756,132.257 445.167,132.532 Q444.365,132.906 443.619,132.506 Q442.874,132.107 442.371,131.029 Q442.116,130.482 441.991,129.907 Q441.865,129.332 441.856,128.703 z" fill="#1A1919"/>
    <path d="M451.033,137.334 Q451.786,137.326 452.306,137.617 Q452.826,137.908 453.099,138.492 Q453.512,139.379 453.166,140.07 Q452.819,140.762 451.709,141.28 L448.682,142.691 L449.093,143.573 L448.53,143.835 L447.267,141.127 L447.83,140.864 L448.227,141.714 L451.142,140.355 Q452.008,139.951 452.255,139.525 Q452.503,139.099 452.228,138.51 Q451.923,137.857 451.27,137.744 Q450.616,137.632 449.671,138.073 L447.09,139.277 L447.486,140.126 L446.923,140.389 L445.675,137.712 L446.238,137.45 L446.634,138.299 L449.587,136.923 Q450.431,136.529 450.671,136.107 Q450.91,135.685 450.636,135.095 Q450.331,134.442 449.677,134.33 Q449.024,134.218 448.079,134.658 L445.498,135.862 L445.894,136.712 L445.331,136.974 L444.068,134.266 L444.631,134.003 L445.042,134.885 L449.567,132.775 L449.131,131.84 L449.688,131.58 L450.58,133.492 L449.576,133.96 Q450.265,133.968 450.758,134.249 Q451.251,134.53 451.499,135.061 Q451.806,135.72 451.685,136.313 Q451.564,136.906 451.033,137.334 z" fill="#1A1919"/>
    <path d="M459.522,146.707 L459.918,147.557 L449.668,148.91 L449.272,148.06 z" fill="#1A1919"/>
    <path d="M453.882,155.311 L454.445,155.048 L454.915,156.057 L461.712,152.888 L461.215,151.82 L461.783,151.555 L462.86,153.865 L458.513,159.28 L465.455,159.431 L466.465,161.597 L465.897,161.862 L465.404,160.806 L458.607,163.975 L459.08,164.989 L458.517,165.252 L457.071,162.151 L457.634,161.888 L458.104,162.897 L464.233,160.04 L457.437,159.898 L457.088,159.15 L461.348,153.853 L455.22,156.711 L455.69,157.72 L455.127,157.982 z" fill="#1A1919"/>
    <path d="M462.586,169.348 L463.781,168.79 L463.194,167.532 Q462.855,166.804 462.376,166.595 Q461.897,166.385 461.249,166.687 Q460.659,166.962 460.483,167.484 Q460.306,168.006 460.593,168.622 Q460.878,169.233 461.429,169.431 Q461.981,169.63 462.586,169.348 z M464.794,169.508 L461.831,170.889 L462.237,171.76 L461.674,172.023 L460.813,170.175 L461.423,169.89 Q460.879,169.749 460.495,169.411 Q460.111,169.073 459.846,168.505 Q459.408,167.565 459.65,166.78 Q459.891,165.995 460.741,165.598 Q461.617,165.19 462.395,165.596 Q463.173,166.003 463.711,167.155 L464.349,168.525 L464.737,168.345 Q465.38,168.045 465.551,167.49 Q465.722,166.935 465.393,166.229 Q465.12,165.645 464.694,165.423 Q464.267,165.202 463.707,165.36 L463.472,164.855 L464.614,164.323 Q465.069,164.731 465.402,165.161 Q465.735,165.591 465.948,166.047 Q466.495,167.221 466.2,168.105 Q465.904,168.99 464.794,169.508 z" fill="#1A1919"/>
    <path d="M469.898,174.892 L468.485,175.551 L468.223,174.988 Q468.63,174.766 468.741,174.462 Q468.851,174.159 468.665,173.76 Q468.329,173.038 467.65,172.886 Q466.971,172.734 466.037,173.169 L463.456,174.373 L463.983,175.504 L463.42,175.767 L462.026,172.777 L462.589,172.514 L463,173.396 L467.525,171.286 L467.089,170.351 L467.646,170.091 L468.538,172.003 L467.534,172.471 Q468.257,172.483 468.752,172.802 Q469.246,173.121 469.549,173.769 Q469.66,174.008 469.745,174.288 Q469.831,174.568 469.898,174.892 z" fill="#1A1919"/>
    <path d="M469.165,179.087 L471.347,179.511 L470.993,178.752 L471.561,178.487 L472.574,180.659 L472.006,180.924 L471.657,180.175 L468.864,179.635 L467.259,182.53 L467.603,183.268 L467.041,183.53 L465.825,180.923 L466.388,180.66 L466.722,181.377 L467.839,179.363 L465.575,178.919 L465.917,179.651 L465.354,179.914 L464.354,177.769 L464.917,177.506 L465.266,178.255 L468.137,178.81 L469.705,175.991 L469.381,175.295 L469.949,175.03 L471.125,177.553 L470.557,177.817 L470.243,177.143 z" fill="#1A1919"/>
    <path d="M474.993,181.27 Q475.237,181.156 475.5,181.25 Q475.764,181.344 475.88,181.593 Q475.994,181.838 475.897,182.1 Q475.799,182.362 475.555,182.476 Q475.305,182.592 475.048,182.499 Q474.791,182.405 474.675,182.156 Q474.558,181.906 474.651,181.646 Q474.743,181.387 474.993,181.27 z M468.74,185.705 L469.171,186.629 L468.608,186.892 L467.286,184.056 L467.849,183.794 L468.284,184.728 L472.798,182.623 L472.362,181.689 L472.931,181.424 L473.822,183.336 z" fill="#1A1919"/>
    <path d="M469.323,187.606 L470.639,186.992 L470.902,187.555 Q470.28,187.871 470.141,188.391 Q470.002,188.912 470.344,189.644 Q470.651,190.303 471.059,190.533 Q471.467,190.763 471.94,190.543 Q472.311,190.369 472.422,190.011 Q472.533,189.652 472.414,188.718 L472.324,187.9 Q472.218,187.064 472.416,186.574 Q472.615,186.084 473.156,185.831 Q473.932,185.47 474.637,185.832 Q475.343,186.195 475.811,187.199 Q476.019,187.645 476.133,188.193 Q476.246,188.741 476.268,189.371 L475.036,189.946 L474.774,189.383 Q475.311,189.106 475.45,188.602 Q475.59,188.097 475.3,187.476 Q475.013,186.86 474.648,186.645 Q474.283,186.431 473.847,186.634 Q473.492,186.8 473.388,187.139 Q473.284,187.478 473.396,188.299 L473.518,189.186 Q473.642,190.104 473.433,190.632 Q473.223,191.16 472.634,191.435 Q471.832,191.808 471.086,191.409 Q470.341,191.01 469.838,189.932 Q469.583,189.385 469.457,188.81 Q469.332,188.235 469.323,187.606 z" fill="#1A1919"/>
    <path d="M478.5,196.237 Q479.253,196.229 479.773,196.52 Q480.293,196.811 480.565,197.395 Q480.979,198.282 480.632,198.973 Q480.286,199.665 479.176,200.183 L476.149,201.594 L476.56,202.476 L475.997,202.738 L474.734,200.03 L475.297,199.767 L475.693,200.617 L478.609,199.257 Q479.474,198.854 479.722,198.428 Q479.97,198.002 479.695,197.413 Q479.39,196.76 478.737,196.647 Q478.083,196.535 477.138,196.976 L474.557,198.179 L474.953,199.029 L474.39,199.292 L473.142,196.615 L473.705,196.353 L474.101,197.202 L477.054,195.826 Q477.898,195.432 478.138,195.01 Q478.377,194.588 478.102,193.998 Q477.798,193.345 477.144,193.233 Q476.491,193.121 475.545,193.561 L472.965,194.765 L473.361,195.615 L472.798,195.877 L471.535,193.169 L472.098,192.906 L472.509,193.788 L477.033,191.678 L476.598,190.743 L477.155,190.483 L478.047,192.395 L477.043,192.863 Q477.732,192.871 478.225,193.152 Q478.718,193.433 478.966,193.964 Q479.273,194.623 479.152,195.216 Q479.031,195.809 478.5,196.237 z" fill="#1A1919"/>
  </g>
</svg>
