<?xml version="1.0" encoding="UTF-8"?>
<!DOCTYPE svg PUBLIC "-//W3C//DTD SVG 1.1//EN" "http://www.w3.org/Graphics/SVG/1.1/DTD/svg11.dtd">
<svg version="1.1" xmlns="http://www.w3.org/2000/svg" xmlns:xlink="http://www.w3.org/1999/xlink" x="0" y="0" width="500" height="300" viewBox="0, 0, 500, 300">
  <g id="Layer_1">
    <g>
      <path d="M132.5,276.5 C60.427,276.5 2,218.073 2,146 C2,73.927 60.427,15.5 132.5,15.5 C204.573,15.5 263,73.927 263,146 C263,218.073 204.573,276.5 132.5,276.5 z" fill="#0000FF" fill-opacity="0.6"/>
      <g>
        <path d="M132.5,276.5 C60.427,276.5 2,218.073 2,146 C2,73.927 60.427,15.5 132.5,15.5 C204.573,15.5 263,73.927 263,146 C263,218.073 204.573,276.5 132.5,276.5 z" fill="#0000FF" fill-opacity="0.6"/>
        <path d="M132.5,276.5 C60.427,276.5 2,218.073 2,146 C2,73.927 60.427,15.5 132.5,15.5 C204.573,15.5 263,73.927 263,146 C263,218.073 204.573,276.5 132.5,276.5 z" fill-opacity="0" stroke="#000000" stroke-width="3"/>
      </g>
    </g>
    <g>
      <path d="M367,276.5 C294.927,276.5 236.5,218.073 236.5,146 C236.5,73.927 294.927,15.5 367,15.5 C439.073,15.5 497.5,73.927 497.5,146 C497.5,218.073 439.073,276.5 367,276.5 z" fill="#00FF00" fill-opacity="0.4"/>
      <g>
        <path d="M367,276.5 C294.927,276.5 236.5,218.073 236.5,146 C236.5,73.927 294.927,15.5 367,15.5 C439.073,15.5 497.5,73.927 497.5,146 C497.5,218.073 439.073,276.5 367,276.5 z" fill="#00FF00" fill-opacity="0.4"/>
        <path d="M367,276.5 C294.927,276.5 236.5,218.073 236.5,146 C236.5,73.927 294.927,15.5 367,15.5 C439.073,15.5 497.5,73.927 497.5,146 C497.5,218.073 439.073,276.5 367,276.5 z" fill-opacity="0" stroke="#000000" stroke-width="3"/>
      </g>
    </g>
    <path d="M100.052,172 L97.942,163.973 L84.026,163.973 L81.858,172 L69.144,172 L83.118,128.992 L98.558,128.992 L112.708,172 z M95.54,154.48 L93.694,147.449 Q93.05,145.105 92.127,141.385 Q91.204,137.664 90.911,136.053 Q90.647,137.547 89.871,140.975 Q89.095,144.402 86.429,154.48 z" fill="#000000"/>
    <path d="M394.308,138.045 Q390.177,138.045 387.862,141.429 Q385.548,144.812 385.548,150.76 Q385.548,163.123 394.952,163.123 Q397.794,163.123 400.46,162.332 Q403.126,161.541 405.821,160.428 L405.821,170.213 Q400.46,172.586 393.692,172.586 Q383.995,172.586 378.824,166.961 Q373.653,161.336 373.653,150.701 Q373.653,144.051 376.158,139.012 Q378.663,133.973 383.365,131.263 Q388.067,128.553 394.425,128.553 Q401.368,128.553 407.696,131.57 L404.151,140.682 Q401.778,139.568 399.405,138.807 Q397.032,138.045 394.308,138.045 z" fill="#000000"/>
  </g>
</svg>
