<?xml version="1.0" encoding="UTF-8"?>
<!DOCTYPE svg PUBLIC "-//W3C//DTD SVG 1.1//EN" "http://www.w3.org/Graphics/SVG/1.1/DTD/svg11.dtd">
<svg version="1.1" xmlns="http://www.w3.org/2000/svg" xmlns:xlink="http://www.w3.org/1999/xlink" x="0" y="0" width="500" height="300" viewBox="0, 0, 500, 300">
  <g id="Layer_1">
    <g>
      <path d="M243.482,285.5 C168.924,285.5 108.482,225.058 108.482,150.5 C108.482,75.942 168.924,15.5 243.482,15.5 C318.04,15.5 378.482,75.942 378.482,150.5 C378.482,225.058 318.04,285.5 243.482,285.5 z" fill="#0000FF" fill-opacity="0.6"/>
      <g>
        <path d="M243.482,285.5 C168.924,285.5 108.482,225.058 108.482,150.5 C108.482,75.942 168.924,15.5 243.482,15.5 C318.04,15.5 378.482,75.942 378.482,150.5 C378.482,225.058 318.04,285.5 243.482,285.5 z" fill="#0000FF" fill-opacity="0.6"/>
        <path d="M243.482,285.5 C168.924,285.5 108.482,225.058 108.482,150.5 C108.482,75.942 168.924,15.5 243.482,15.5 C318.04,15.5 378.482,75.942 378.482,150.5 C378.482,225.058 318.04,285.5 243.482,285.5 z" fill-opacity="0" stroke="#000000" stroke-width="3"/>
      </g>
    </g>
    <g>
      <path d="M250,285.5 C175.442,285.5 115,225.058 115,150.5 C115,75.942 175.442,15.5 250,15.5 C324.558,15.5 385,75.942 385,150.5 C385,225.058 324.558,285.5 250,285.5 z" fill="#00FF00" fill-opacity="0.4"/>
      <g>
        <path d="M250,285.5 C175.442,285.5 115,225.058 115,150.5 C115,75.942 175.442,15.5 250,15.5 C324.558,15.5 385,75.942 385,150.5 C385,225.058 324.558,285.5 250,285.5 z" fill="#00FF00" fill-opacity="0.4"/>
        <path d="M250,285.5 C175.442,285.5 115,225.058 115,150.5 C115,75.942 175.442,15.5 250,15.5 C324.558,15.5 385,75.942 385,150.5 C385,225.058 324.558,285.5 250,285.5 z" fill-opacity="0" stroke="#000000" stroke-width="3"/>
      </g>
    </g>
    <path d="M226.988,129.168 L241.93,129.168 Q250.66,129.168 254.894,131.761 Q259.127,134.354 259.127,139.832 Q259.127,143.436 257.281,145.984 Q255.436,148.533 252.418,149.266 L252.418,149.559 Q256.402,150.613 258.189,153.074 Q259.977,155.535 259.977,159.461 Q259.977,165.291 255.597,168.646 Q251.217,172 243.658,172 L226.988,172 z M238.561,145.604 L242.047,145.604 Q244.537,145.604 245.899,144.578 Q247.262,143.553 247.262,141.531 Q247.262,137.928 241.812,137.928 L238.561,137.928 z M238.561,154.07 L238.561,163.064 L242.633,163.064 Q248.053,163.064 248.053,158.494 Q248.053,156.355 246.603,155.213 Q245.152,154.07 242.398,154.07 z" fill="#000000"/>
  </g>
</svg>
