<?xml version="1.0" encoding="UTF-8"?>
<!DOCTYPE svg PUBLIC "-//W3C//DTD SVG 1.1//EN" "http://www.w3.org/Graphics/SVG/1.1/DTD/svg11.dtd">
<svg version="1.1" xmlns="http://www.w3.org/2000/svg" xmlns:xlink="http://www.w3.org/1999/xlink" x="0" y="0" width="500" height="300" viewBox="0, 0, 500, 300">
  <g id="Layer_1">
    <g>
      <path d="M152.5,285.5 C77.942,285.5 17.5,225.058 17.5,150.5 C17.5,75.942 77.942,15.5 152.5,15.5 C227.058,15.5 287.5,75.942 287.5,150.5 C287.5,225.058 227.058,285.5 152.5,285.5 z" fill="#0000FF" fill-opacity="0.6"/>
      <g>
        <path d="M152.5,285.5 C77.942,285.5 17.5,225.058 17.5,150.5 C17.5,75.942 77.942,15.5 152.5,15.5 C227.058,15.5 287.5,75.942 287.5,150.5 C287.5,225.058 227.058,285.5 152.5,285.5 z" fill="#0000FF" fill-opacity="0.6"/>
        <path d="M152.5,285.5 C77.942,285.5 17.5,225.058 17.5,150.5 C17.5,75.942 77.942,15.5 152.5,15.5 C227.058,15.5 287.5,75.942 287.5,150.5 C287.5,225.058 227.058,285.5 152.5,285.5 z" fill-opacity="0" stroke="#000000" stroke-width="3"/>
      </g>
    </g>
    <g>
      <path d="M331.5,285.5 C256.942,285.5 196.5,225.058 196.5,150.5 C196.5,75.942 256.942,15.5 331.5,15.5 C406.058,15.5 466.5,75.942 466.5,150.5 C466.5,225.058 406.058,285.5 331.5,285.5 z" fill="#00FF00" fill-opacity="0.4"/>
      <g>
        <path d="M331.5,285.5 C256.942,285.5 196.5,225.058 196.5,150.5 C196.5,75.942 256.942,15.5 331.5,15.5 C406.058,15.5 466.5,75.942 466.5,150.5 C466.5,225.058 406.058,285.5 331.5,285.5 z" fill="#00FF00" fill-opacity="0.4"/>
        <path d="M331.5,285.5 C256.942,285.5 196.5,225.058 196.5,150.5 C196.5,75.942 256.942,15.5 331.5,15.5 C406.058,15.5 466.5,75.942 466.5,150.5 C466.5,225.058 406.058,285.5 331.5,285.5 z" fill-opacity="0" stroke="#000000" stroke-width="3"/>
      </g>
    </g>
    <path d="M100.052,172 L97.942,163.973 L84.026,163.973 L81.858,172 L69.144,172 L83.118,128.992 L98.558,128.992 L112.708,172 z M95.54,154.48 L93.694,147.449 Q93.05,145.105 92.127,141.385 Q91.204,137.664 90.911,136.053 Q90.647,137.547 89.871,140.975 Q89.095,144.402 86.429,154.48 z" fill="#000000"/>
    <path d="M226.988,129.168 L241.93,129.168 Q250.66,129.168 254.894,131.761 Q259.127,134.354 259.127,139.832 Q259.127,143.436 257.281,145.984 Q255.436,148.533 252.418,149.266 L252.418,149.559 Q256.402,150.613 258.189,153.074 Q259.977,155.535 259.977,159.461 Q259.977,165.291 255.597,168.646 Q251.217,172 243.658,172 L226.988,172 z M238.561,145.604 L242.047,145.604 Q244.537,145.604 245.899,144.578 Q247.262,143.553 247.262,141.531 Q247.262,137.928 241.812,137.928 L238.561,137.928 z M238.561,154.07 L238.561,163.064 L242.633,163.064 Q248.053,163.064 248.053,158.494 Q248.053,156.355 246.603,155.213 Q245.152,154.07 242.398,154.07 z" fill="#000000"/>
    <path d="M394.308,138.045 Q390.177,138.045 387.862,141.429 Q385.548,144.812 385.548,150.76 Q385.548,163.123 394.952,163.123 Q397.794,163.123 400.46,162.332 Q403.126,161.541 405.821,160.428 L405.821,170.213 Q400.46,172.586 393.692,172.586 Q383.995,172.586 378.824,166.961 Q373.653,161.336 373.653,150.701 Q373.653,144.051 376.158,139.012 Q378.663,133.973 383.365,131.263 Q388.067,128.553 394.425,128.553 Q401.368,128.553 407.696,131.57 L404.151,140.682 Q401.778,139.568 399.405,138.807 Q397.032,138.045 394.308,138.045 z" fill="#000000"/>
  </g>
</svg>
